<svg version="1.2" xmlns="http://www.w3.org/2000/svg" viewBox="0 0 437 429" width="437" height="429">
	<title>Zasób-3-svg</title>
	<style>
		.s0 {
			fill: none
		}

		.s1 {
			fill: #1d1d1b;
			stroke: #eb691f;
			stroke-width: 2.9
		}

		.s2 {
			fill: #eb691f;
			stroke: #eb691f;
			stroke-width: 1.4
		}

		.s3 {
			fill: #ffffff;
			stroke: #eb691f;
			stroke-width: 1.2
		}

		.s4 {
			fill: #000000;
			stroke: #eb691f;
			stroke-width: 1.2
		}

		.s5 {
			fill: #ffffff;
			stroke: #eb691f;
			stroke-width: .8
		}

		.s6 {
			fill: #000000;
			stroke: #eb691f;
			stroke-width: .8
		}

		.s7 {
			fill: none;
			stroke: #eb691f;
			stroke-width: 1.7
		}

		.s8 {
			fill: none;
			stroke: #eb691f;
			stroke-width: 1.7
		}

		.s9 {
			fill: none;
			stroke: #eb691f;
			stroke-width: 1.2
		}

		.s10 {
			fill: #ffffff;
			stroke: #eb691f;
			stroke-width: .9
		}

		.s11 {
			fill: #000000;
			stroke: #eb691f;
			stroke-width: .9
		}

		.s12 {
			fill: #ffffff;
			stroke: #eb691f;
			stroke-width: 1
		}

		.s13 {
			fill: #000000;
			stroke: #eb691f;
			stroke-width: 1
		}
	</style>
	<g id="Warstwa_1-2">
		<g id="Layer">
			<path id="Layer" class="s0"
				d="m218 428.3c-120.5 0-218-95.7-218-214.2 0-118.4 97.5-214.1 218-214.1 120.6 0 218.1 95.7 218.1 214.1 0 118.5-97.5 214.2-218.1 214.2z" />
			<g id="Layer">
				<path id="Layer" fill-rule="evenodd" class="s1"
					d="m92.8 215.2c-0.7-0.1-0.9-0.3-0.9-0.9 0-1.7 0.1-5.3 0.1-8.2 0-3.2 0-4.7 0-7.7 0-0.6 0.2-1 1-1.1 1.9-0.2 3.5-0.4 4.8-0.4 6 0 8.5 1.8 8.5 4.8 0 2.3-1.9 4-4.4 4.4 3.4 0.5 5.1 2.3 5.1 4.5 0 3.6-4 5.1-8.3 5.1-1.9 0-3.8-0.2-5.9-0.5zm12.8-13.5c0-2.5-2-4.2-7.6-4.2-1.9 0-3.4 0.2-5.2 0.4-0.1 2.5-0.2 4.9-0.2 7.9 1.8 0 4.8 0 6.6 0 4.2 0 6.4-1.5 6.4-4.1zm0.7 9c0-2.5-2-4.3-7.5-4.3-1.7 0-4.5 0-6.2 0 0 2.8 0 5.8 0.1 8.1 1.2 0.3 3.8 0.6 5.8 0.6 4.9 0 7.8-1.8 7.8-4.4z" />
				<path id="Layer" fill-rule="evenodd" class="s1"
					d="m141.4 206.2c0 6.1-4.4 9.4-9 9.4-4.5 0-8.6-3.5-8.6-9.3 0-5.1 3.6-9.5 8.9-9.5 5.3 0 8.7 4.2 8.7 9.4zm-8.8 8.9c3.8 0 8.1-3.1 8.1-8.7 0-5.9-3.7-9-8-9-5.1 0-8.2 4.3-8.2 8.7 0 5.9 3.7 9 8.1 9z" />
				<path id="Layer" fill-rule="evenodd" class="s1"
					d="m160.8 215.2c-0.7-0.1-0.9-0.3-0.9-0.9 0-1.7 0.1-5.3 0.1-8.2 0-3.2 0-4.7 0-7.7 0-0.6 0.1-1 0.9-1.1 2-0.2 3.5-0.4 4.9-0.4 6 0 8.4 1.8 8.4 4.8 0 2.3-1.8 4-4.3 4.4 3.3 0.5 5 2.3 5 4.5 0 3.6-4 5.1-8.2 5.1-1.9 0-3.8-0.2-6-0.5zm12.8-13.5c0-2.5-1.9-4.2-7.5-4.2-1.9 0-3.5 0.2-5.2 0.4-0.1 2.5-0.2 4.9-0.2 7.9 1.8 0 4.8 0 6.6 0 4.2 0 6.3-1.5 6.3-4.1zm0.8 9c0-2.5-2-4.3-7.6-4.3-1.7 0-4.4 0-6.1 0 0 2.8 0 5.8 0 8.1 1.3 0.3 3.9 0.6 5.9 0.6 4.9 0 7.8-1.8 7.8-4.4z" />
				<path id="Layer" fill-rule="evenodd" class="s1"
					d="m209.3 206.2c0 6.1-4.4 9.4-8.9 9.4-4.5 0-8.7-3.5-8.7-9.3 0-5.1 3.6-9.5 8.9-9.5 5.4 0 8.7 4.2 8.7 9.4zm-8.8 8.9q0 0 0 0 0 0 0 0zm8.2-8.7c0-5.9-3.7-9-8.1-9-5 0-8.2 4.3-8.2 8.7 0 5.9 3.8 9 8.1 9 3.9 0 8.2-3.1 8.2-8.7z" />
				<path id="Layer" class="s1"
					d="m93.7 260.1c-0.2 0-0.4-0.1-0.4-0.7 0-3.2 0.2-4.9 0.2-7.9 0-3.1-0.1-6.8-0.1-9-2.4 0-4.6 0.1-7 0.1-0.6 0-0.8-0.1-0.8-0.3 0-0.3 0.2-0.4 0.9-0.4 2.5 0 5 0.1 7.4 0.1 2.9 0 4.4-0.1 7.3-0.1 0.5 0 0.7 0.1 0.7 0.4q0 0.3-0.8 0.3c-2.6 0-4.1-0.1-6.9-0.1 0 2.3-0.2 5.5-0.2 8.5 0 3.4 0.1 5.9 0.1 8.3 0 0.7-0.1 0.9-0.4 0.8z" />
				<path id="Layer" fill-rule="evenodd" class="s1"
					d="m133.9 259.7c-2.7-1.4-5.6-4.2-7.5-7.5-2.9 0-4.6-0.1-6.3-0.2 0 2.7 0.1 4.6 0.1 7.1 0 0.7-0.2 0.9-0.4 0.9-0.2 0-0.4-0.2-0.4-0.7 0-3.2 0.1-5.7 0.1-8.7 0-3.1-0.1-4.9-0.1-7.7 0-0.5 0.2-0.8 0.9-0.9 1.7-0.2 3.6-0.3 5.2-0.3 5.7 0 8.3 2.1 8.3 5.1 0 3.3-2.7 5-6.8 5.3 1.7 2.9 4.3 5.5 7.2 6.9 1 0.5 1 0.6 1 0.8 0 0.1-0.1 0.2-0.3 0.2-0.1 0-0.4 0-1-0.3zm-0.8-12.8c0-2.8-2.4-4.7-7.5-4.7-1.6 0-3.4 0.2-5.4 0.5 0 3.1-0.1 5.6-0.1 8.7 1.8 0.2 3.6 0.2 5.4 0.2 4.4 0 7.6-1.5 7.6-4.7z" />
				<path id="Layer" class="s1"
					d="m165.2 260c-2 0-3.8-0.1-5.9-0.1-1.9 0-4.7 0.1-5.7 0.1-0.5 0-0.8-0.2-0.8-0.7 0-2.5 0.1-5.5 0.1-8.6 0-2.8-0.1-5.1-0.1-7.9 0-0.7 0.3-0.9 1-0.9 1.5 0 2.3 0 5.8 0 2.5 0 4 0 5.6 0 0.6 0 0.8 0.1 0.8 0.4 0 0.2-0.2 0.3-0.8 0.3-1.2 0-3.4-0.1-5.7-0.1-2.6 0-4.2 0.1-5.9 0.1-0.1 3.2-0.1 6-0.1 8.7 1.5 0 3 0 4.8 0 2.5 0 4-0.1 5.3-0.1 0.4 0 0.6 0.1 0.6 0.3 0 0.2-0.2 0.4-0.6 0.4-1.9 0-3.3-0.1-5-0.1-1.8 0-3.3 0-5.1 0.2 0 2.6 0 4.9 0.1 7.2 1.4 0.1 3.1 0.1 5.5 0.1 3 0 4.1-0.1 6.3-0.1 0.6 0 0.7 0.2 0.7 0.4 0 0.2-0.2 0.4-0.9 0.4z" />
				<path id="Layer" class="s1"
					d="m190.9 259.8c-3.1 0-4.3 0-5.7 0-0.5 0-0.7-0.1-0.7-0.6 0-1.9 0.1-4.8 0.1-8.3 0-2.6-0.1-5.7-0.1-8.4 0-0.5 0.1-0.8 0.4-0.8 0.3 0 0.4 0.2 0.4 0.7 0 2.6-0.1 5.8-0.1 8.4 0 3.2 0 5.7 0 8.4 2 0 3.8 0 5.8 0 3.1 0 4.4-0.1 5.8-0.1 0.4 0 0.7 0.2 0.7 0.4 0 0.2-0.3 0.4-0.8 0.4-1.2 0-2.7-0.1-5.8-0.1z" />
				<path id="Layer" class="s1"
					d="m228.3 260c-2.1 0-3.8-0.1-6-0.1-1.9 0-4.6 0.1-5.7 0.1-0.5 0-0.7-0.2-0.7-0.7 0-2.5 0-5.5 0-8.6 0-2.8 0-5.1 0-7.9 0-0.7 0.3-0.9 1-0.9 1.4 0 2.2 0 5.8 0 2.4 0 3.9 0 5.5 0 0.7 0 0.9 0.1 0.9 0.4 0 0.2-0.3 0.3-0.9 0.3-1.1 0-3.4-0.1-5.6-0.1-2.7 0-4.2 0.1-5.9 0.1-0.1 3.2-0.2 6-0.2 8.7 1.5 0 3.1 0 4.9 0 2.4 0 3.9-0.1 5.2-0.1 0.5 0 0.6 0.1 0.6 0.3 0 0.2-0.2 0.4-0.6 0.4-1.8 0-3.3-0.1-5-0.1-1.8 0-3.2 0-5.1 0.2 0 2.6 0.1 4.9 0.1 7.2 1.5 0.1 3.1 0.1 5.6 0.1 2.9 0 4.1-0.1 6.2-0.1 0.6 0 0.8 0.2 0.8 0.4 0 0.2-0.2 0.4-0.9 0.4z" />
			</g>
			<path id="Layer" class="s2"
				d="m187.2 152.5c-0.3-0.6-1.5-1.2-3-1.6-2.9-0.8-4.7-0.3-5.4 0.2-0.8 0.5-3.5 2.2-3.4 4.9 0.2 2.7 3.1 4.3 4.9 4.8 3.8 1.2 7-1.1 7.4-1.4l6.8-23.9 11.4-0.4 1.2-6.6-12.8-0.4-7.2 24.4z" />
			<g id="Layer">
				<path id="Layer" class="s3"
					d="m238.2 27.2c0.2 0.2 0.3 0.3 0.4 0.5q1.1 0.9 2.1 1.8 1.3 1 2.6 2c0.6 0.5 1.3 0.9 1.9 1.4q1 0.6 1.9 1.3c0.6 0.3 1.3 0.7 1.9 1q1.4 0.8 2.8 1.5c0.6 0.4 1.2 0.6 1.9 0.9 0.9 0.4 1.8 0.8 2.7 1.2 1 0.4 2.1 0.7 3.1 1q1.6 0.6 3.2 1c0.7 0.2 1.4 0.3 2.1 0.5 1.3 0.2 2.6 0.5 3.9 0.7 1.1 0.2 2.2 0.3 3.3 0.4q1.2 0.1 2.3 0.1c1.2 0.1 2.3 0.1 3.5 0.1 0.3 0 0.7-0.2 1 0.1 0.2 0.2 0.4 0.3 0.5 0.5 0.8 0.9 1.5 1.7 2.2 2.6 0.9 1.3 1.8 2.5 2.6 3.8 0.5 0.7 0.8 1.5 1.1 2.2 0.2 0.4 0.2 0.7-0.2 0.9q-0.1 0.1-0.2 0.2c-0.9 0.8-1.7 1.6-2.6 2.3q-1.7 1.2-3.4 2.4-1.6 1-3.3 2c-1.2 0.6-2.3 1.2-3.5 1.8q-1 0.6-2.1 1.1-1.1 0.4-2.1 0.8c-1.6 0.6-3.1 1.2-4.6 1.7-1.5 0.6-3.1 1-4.7 1.5q-1.6 0.4-3.2 0.8-1.7 0.4-3.4 0.7c-0.5 0.1-0.8 0-1.2-0.2q-1.5-0.7-3-1.3-1.9-0.8-3.9-1.5-1.4-0.5-2.9-0.8-1.9-0.5-3.7-0.9-1.2-0.3-2.4-0.4-0.8-0.1-1.6-0.2c-1.3-0.2-2.5-0.3-3.8-0.4q-1.4-0.1-2.9-0.1c-1.7 0.1-3.4 0.1-5 0.3-1.4 0.1-2.8 0.3-4.2 0.5q0 0.1 0 0.1-0.1 0.2-0.3 0.3c0 0.1 0 0.2 0 0.3q0 1.1 0 2.3c0 0.9 0 1.7 0 2.6 0 0.6 0.1 1.2 0.5 1.6 0.6 0.7 1.1 1.4 1.7 2q1 1 2.1 1.8c0.6 0.4 1.3 0.8 2 1.2q1 0.6 2 1 1.2 0.5 2.5 0.9 1.3 0.4 2.6 0.6 1.2 0.2 2.5 0.3c0.9 0.1 1.9 0.2 2.8 0.3q1.9 0 3.8-0.1 1.6-0.1 3.2-0.3c1-0.1 2.1-0.3 3.1-0.5 0.9-0.1 1.8-0.3 2.6-0.4q1.5-0.4 2.9-0.7c0.8-0.3 1.6-0.5 2.4-0.7 0.3-0.1 0.6-0.1 0.8 0 0.5 0.3 1.1 0.6 1.5 0.9q1.3 1 2.5 2.1c1.1 1 2 2.1 2.7 3.3 0.6 1.1 1.2 2.2 1.6 3.4 0.5 1.2 0.8 2.4 1.1 3.6 0 0.1 0 0.2-0.1 0.3-0.5 0.4-1.1 0.8-1.6 1.2q-1 0.6-2 1.1-0.9 0.4-1.8 0.8-1.3 0.6-2.6 1.2-1.4 0.7-2.9 1.3c-0.7 0.3-1.3 0.7-2 1-0.8 0.4-1.7 0.7-2.5 1.1q-2.1 1-4.2 2-1.4 0.7-2.8 1.4-0.9 0.4-1.7 0.9-1.3 0.7-2.6 1.5c-0.9 0.6-1.8 1.3-2.5 2.1-0.8 1-1.5 2.1-2.1 3.2-0.4 0.6-0.6 1.2-0.9 1.9q-0.5 1.2-1 2.4c-0.1 0.3-0.2 0.6-0.3 0.9-0.2 0.6-0.4 1.1-0.6 1.6-0.1 0.3-0.1 0.5-0.2 0.8 1.4-0.5 2.9-0.6 4.3-0.6 1.5 0 2.9 0.1 4.3 0.2 0-0.1 0-0.2 0-0.3 0.3-0.6 0.6-1.2 1-1.7 0.7-0.9 1.3-1.8 2.1-2.5 1.1-1 2.2-2 3.3-2.9 1-0.7 2-1.4 3-2.2q1.3-0.9 2.7-1.7c0.8-0.5 1.6-0.9 2.4-1.4 0.8-0.5 1.6-1 2.4-1.4 0.8-0.5 1.6-0.8 2.4-1.3 1.2-0.5 2.3-1.1 3.5-1.7q1.6-0.8 3.3-1.6c0.7-0.3 1.4-0.5 2.1-0.9 0.5-0.2 1.2-0.4 1.5-1 0.5-1 1.2-2 1.6-3.1 0.5-1.1 0.7-2.3 0.6-3.6q0.1-1.9-0.7-3.8-0.4-1-0.9-2c-0.4-0.7-0.7-1.4-1.2-2-0.8-1-1.7-2-2.6-2.9q-0.9-1-1.9-1.9c-0.9-0.7-1.8-1.3-2.7-2.1q0.4-0.1 0.8-0.2c0.7-0.2 1.4-0.4 2.2-0.6q1.3-0.4 2.6-0.8c0.8-0.2 1.7-0.4 2.5-0.7q2.7-1 5.5-2.1c1-0.5 2-0.9 3-1.4q0.8-0.4 1.4-0.8c1-0.5 2-1 2.9-1.6q1.4-0.9 2.6-1.9 1.3-1 2.3-2.1c0.7-0.7 1.3-1.5 1.6-2.4 0.3-0.7 0.7-1.4 0.9-2.2q0.5-1.3 0.7-2.6 0.3-1.3 0.5-2.6 0.1-0.9 0-1.8 0-1.2-0.2-2.5c-0.1-0.7-0.3-1.5-0.5-2.2-0.3-0.8-0.7-1.6-1.1-2.4-0.3-0.5-0.6-1-0.9-1.5q0.1 0 0.1 0 2.1-0.9 4.1-1.7c0.1 0 0.3-0.1 0.4-0.2q0.4-0.8 0.8-1.7 0.7-1.3 1.4-2.7c0.3-0.5 0.1-0.9-0.4-1q-1.2-0.3-2.4-0.5-1.9-0.4-3.7-0.8c-0.5-0.1-0.9-0.3-1.4-0.1q-0.5 0.2-1 0.3-2 0.6-4 1.2c-0.5 0.1-0.9 0.2-1.4-0.2q-1.7-1.2-3.5-2.2c-1.2-0.8-2.5-1.5-3.8-2.2q-1-0.5-2-1-1-0.4-1.9-0.8-1.1-0.5-2.2-0.9-0.8-0.4-1.6-0.6-1.5-0.6-2.9-1.1-1.3-0.4-2.5-0.7-1.4-0.4-2.8-0.8-1-0.3-2.1-0.5-1.4-0.3-2.9-0.6-1.3-0.2-2.6-0.4-1.2-0.1-2.4-0.3-1.5-0.1-3-0.2c-0.4 0-0.9-0.2-1.2 0.2-0.1 0.2-0.2 0.3-0.3 0.5-0.6 0.7-1.2 1.4-1.7 2.1-0.6 1.1-1.1 2.2-1.7 3.3z" />
				<path id="Layer" fill-rule="evenodd" class="s4"
					d="m238.2 27.2c0.6-1 1.1-2.2 1.7-3.2 0.5-0.8 1.1-1.5 1.7-2.2 0.1-0.1 0.2-0.3 0.3-0.4 0.3-0.4 0.8-0.2 1.2-0.2q1.5 0.1 3 0.2 1.2 0.1 2.4 0.3 1.3 0.2 2.6 0.4 1.5 0.3 2.9 0.6 1.1 0.2 2.1 0.5 1.4 0.3 2.8 0.7c0.8 0.3 1.6 0.5 2.5 0.8 0.9 0.3 1.9 0.7 2.9 1q0.8 0.3 1.6 0.6 1.1 0.5 2.2 1 0.9 0.4 1.9 0.8 1 0.5 2 1c1.3 0.7 2.6 1.4 3.8 2.1q1.8 1.1 3.5 2.3c0.5 0.4 0.9 0.3 1.4 0.1q2-0.5 3.9-1.1 0.6-0.1 1.1-0.3c0.5-0.2 0.9 0 1.4 0.1q1.8 0.4 3.6 0.7 1.3 0.3 2.5 0.5c0.5 0.1 0.6 0.6 0.4 1q-0.7 1.4-1.4 2.8-0.4 0.8-0.8 1.6c-0.1 0.1-0.3 0.2-0.4 0.3q-2 0.8-4.1 1.6-0.1 0.1-0.1 0.1c0.3 0.5 0.6 0.9 0.8 1.4 0.4 0.8 0.9 1.6 1.2 2.5q0.3 1.1 0.5 2.2 0.2 1.2 0.2 2.4 0 1-0.1 1.9-0.1 1.3-0.4 2.6-0.3 1.3-0.7 2.6c-0.2 0.7-0.6 1.4-0.9 2.1-0.3 1-0.9 1.8-1.6 2.5q-1.1 1.1-2.3 2.1-1.2 1-2.6 1.9c-0.9 0.5-1.9 1.1-2.9 1.6q-0.7 0.4-1.4 0.7c-1 0.5-2 1-3 1.4q-2.8 1.1-5.5 2.1c-0.8 0.3-1.7 0.5-2.5 0.8q-1.3 0.4-2.6 0.8-1.1 0.3-2.2 0.6-0.4 0.1-0.8 0.2c0.9 0.7 1.8 1.4 2.7 2.1q1 0.9 1.9 1.9c0.9 0.9 1.8 1.9 2.6 2.9 0.5 0.6 0.8 1.3 1.2 2q0.5 1 0.9 2c0.5 1.2 0.7 2.5 0.7 3.8 0 1.2-0.1 2.5-0.6 3.6-0.5 1.1-1.1 2.1-1.6 3.1-0.4 0.6-1 0.7-1.6 1-0.6 0.3-1.3 0.6-2 0.9q-1.7 0.7-3.4 1.6c-1.1 0.5-2.2 1.1-3.4 1.7-0.8 0.4-1.6 0.8-2.4 1.2-0.8 0.5-1.6 1-2.4 1.5-0.8 0.4-1.7 0.8-2.4 1.3q-1.4 0.9-2.7 1.8c-1 0.7-2 1.4-3 2.2-1.1 0.9-2.3 1.8-3.3 2.8-0.8 0.8-1.4 1.7-2.1 2.6-0.4 0.5-0.7 1.1-1 1.7 0 0 0 0.2 0 0.2-1.4 0-2.9-0.1-4.3-0.2-1.4 0-2.9 0.1-4.3 0.7 0-0.3 0.1-0.6 0.2-0.8q0.3-0.8 0.6-1.6c0.1-0.3 0.2-0.6 0.3-0.9q0.5-1.3 1-2.5c0.3-0.6 0.5-1.3 0.9-1.9 0.6-1 1.3-2.1 2.1-3.1 0.6-0.9 1.6-1.6 2.5-2.1q1.3-0.8 2.6-1.6 0.8-0.4 1.7-0.9 1.4-0.7 2.8-1.4 2.1-1 4.2-2c0.8-0.3 1.7-0.7 2.5-1.1 0.7-0.3 1.3-0.6 2-0.9q1.4-0.7 2.9-1.3 1.3-0.6 2.6-1.2 0.9-0.4 1.7-0.8 1.1-0.6 2.1-1.2c0.5-0.3 1.1-0.7 1.6-1.1 0.1-0.1 0.1-0.3 0.1-0.4-0.3-1.2-0.6-2.4-1.1-3.5q-0.6-1.8-1.6-3.4c-0.7-1.2-1.6-2.4-2.7-3.3q-1.2-1.1-2.5-2.1c-0.4-0.4-1-0.7-1.5-0.9-0.2-0.1-0.5-0.1-0.8-0.1-0.8 0.2-1.6 0.5-2.4 0.7q-1.4 0.4-2.9 0.7c-0.8 0.2-1.7 0.3-2.6 0.5-1 0.2-2.1 0.4-3.1 0.5q-1.6 0.2-3.2 0.2-1.9 0.1-3.8 0.1c-0.9 0-1.9-0.1-2.8-0.2q-1.3-0.1-2.5-0.3-1.3-0.3-2.6-0.6-1.3-0.4-2.5-0.9-1-0.5-2.1-1.1c-0.6-0.3-1.3-0.7-1.9-1.2q-1.1-0.8-2.1-1.7c-0.6-0.7-1.1-1.4-1.7-2-0.5-0.5-0.6-1-0.5-1.7 0-0.8 0-1.7 0-2.6q0-1.1 0-2.3c0-0.1 0-0.2 0-0.2q0.2-0.2 0.3-0.3 0-0.1 0-0.1c1.4-0.2 2.8-0.4 4.2-0.6 1.6-0.1 3.3-0.2 5-0.2q1.5-0.1 2.9 0c1.3 0.1 2.5 0.3 3.8 0.4q0.8 0.1 1.6 0.2 1.2 0.2 2.4 0.5 1.8 0.4 3.6 0.8 1.6 0.4 3 0.9 2 0.7 3.9 1.4 1.5 0.7 3 1.4c0.4 0.2 0.7 0.3 1.2 0.2q1.7-0.4 3.4-0.8 1.6-0.3 3.2-0.8c1.6-0.4 3.1-0.9 4.7-1.4 1.5-0.5 3-1.1 4.5-1.7q1.1-0.4 2.2-0.9 1-0.5 2.1-1c1.1-0.6 2.3-1.2 3.5-1.9q1.7-0.9 3.3-2 1.7-1.1 3.4-2.4c0.9-0.7 1.7-1.5 2.6-2.2q0.1-0.1 0.2-0.2c0.3-0.3 0.4-0.6 0.2-0.9-0.4-0.8-0.6-1.6-1.1-2.3q-1.2-1.9-2.6-3.7c-0.7-0.9-1.4-1.7-2.2-2.6-0.1-0.2-0.3-0.3-0.5-0.5-0.3-0.3-0.7-0.1-1-0.1-1.2-0.1-2.3-0.1-3.5-0.1q-1.1 0-2.3-0.1c-1.1-0.1-2.2-0.2-3.3-0.4-1.3-0.2-2.6-0.5-3.9-0.8-0.7-0.1-1.4-0.2-2.1-0.4q-1.6-0.5-3.2-1c-1-0.3-2.1-0.7-3.1-1.1-0.9-0.3-1.8-0.7-2.8-1.1-0.6-0.3-1.2-0.6-1.8-0.9q-1.4-0.7-2.8-1.5c-0.6-0.4-1.3-0.7-1.9-1.1q-0.9-0.6-1.9-1.3c-0.6-0.4-1.3-0.8-1.9-1.3q-1.3-1-2.6-2.1c-0.7-0.6-1.4-1.2-2.1-1.8-0.1-0.1-0.2-0.2-0.4-0.4zm1-1.1q0 0 0 0 0 0 0 0zm0.3 0.1q0.7 0.1 1.4 0.2 2.5 0.3 5 0.7 1.4 0.2 2.8 0.6 2.1 0.4 4.2 0.9 1.7 0.4 3.3 0.9c0.8 0.3 1.6 0.6 2.4 0.8q0.9 0.3 1.8 0.6 1.2 0.4 2.4 0.9c0.9 0.4 1.8 0.7 2.7 1.1q1.8 0.9 3.7 1.9 0.9 0.5 1.8 1 1.3 0.8 2.6 1.7c0.5 0.3 0.9 0.6 1.4 1q0.7 0.5 1.3 1 1 0.9 2 1.8 0.9 0.9 1.8 1.8 1 1.2 2 2.4 0.7 0.9 1.4 1.8c0.5 0.8 1 1.6 1.5 2.5 0.3 0.6 0.6 1.4 0.9 2.1 0.4 1.1 0.7 2.2 0.8 3.4 0.1 1.4 0 2.7-0.4 4.1q-0.1 0.2-0.2 0.5 0.1 0 0.1 0.1c0.3-0.5 0.7-1 0.9-1.6q0.4-0.8 0.7-1.7c0.4-1 0.7-2 1-3 0.2-0.7 0.2-1.4 0.3-2.1q0.3-2.1 0-4c-0.1-0.8-0.3-1.6-0.6-2.4-0.3-1.1-0.8-2.2-1.5-3.2-0.3-0.5-0.7-0.9-1.1-1.3-0.3-0.4-0.5-0.9-0.8-1.2q-0.9-1-1.8-1.8c-0.6-0.7-1.3-1.3-2-1.9-0.7-0.6-1.3-1.2-2-1.7-0.9-0.7-1.8-1.3-2.8-1.9q-1.8-1-3.6-2-1.6-0.9-3.2-1.7-1.3-0.6-2.5-1.2-1.4-0.5-2.8-1-0.7-0.3-1.5-0.6-0.8-0.3-1.7-0.6-0.9-0.3-1.8-0.6c-0.9-0.2-1.7-0.5-2.5-0.7-0.7-0.2-1.4-0.3-2.2-0.5-0.9-0.2-1.9-0.4-2.9-0.6-0.9-0.2-1.7-0.3-2.6-0.4-1.1-0.2-2.2-0.4-3.4-0.5-1-0.1-2-0.2-3-0.2-0.2 0-0.4 0-0.5 0.1-0.3 0.2-0.5 0.4-0.7 0.7q-0.6 0.7-1.1 1.5c-0.4 0.7-0.9 1.4-1.3 2.2 0.1 0 0.2 0.1 0.3 0.1zm-21.9 37.3q0 0 0 0 0 0 0 0zm0 2c0 0.8 0 1.5 0 2.3 0 0.5 0 0.5 0.5 0.5 1.2-0.2 2.4-0.3 3.6-0.4q2.6-0.1 5.2-0.1 2 0 4 0.1c1.2 0.1 2.4 0.2 3.6 0.3 0.8 0.1 1.7 0.2 2.5 0.3q2 0.4 3.9 0.8 1.8 0.4 3.6 1c0.7 0.2 1.3 0.4 2 0.7q1.2 0.4 2.3 0.9c0.9 0.4 1.8 0.7 2.7 1.2 0.8 0.4 1.5 0.9 2.3 1.3q1.6 1 3.2 2c1.1 0.7 1.9 1.6 2.7 2.5 0.9 0.9 1.6 1.9 2.2 3 0.4 0.8 0.9 1.7 1.3 2.6q0.6 1.4 1 2.9c0.2 0.6 0.3 1.3 0.4 1.9q0.1 0.8 0.1 1.7c0 1.1-0.1 2.3-0.2 3.4 0 0.4-0.1 0.8-0.1 1.3 0.6-0.2 1.1-0.5 1.7-0.7q1.1-0.3 1.7-1.4c0.7-1.3 1.4-2.6 1.7-4.1 0.1-1.1 0.2-2.2 0-3.3-0.1-0.7-0.4-1.4-0.6-2.1-0.4-1.5-1.2-2.7-2.1-3.9-0.8-1-1.6-2-2.5-2.9q-1.5-1.5-3.2-2.8c-0.9-0.6-1.8-1.2-2.8-1.8q-1.7-1.1-3.4-2.2-1.2-0.7-2.4-1.3-1.5-0.7-2.9-1.4c-0.9-0.4-1.8-0.8-2.7-1.2-1.1-0.4-2.1-0.7-3.2-1.1q-1.5-0.5-3.1-0.9-1.2-0.4-2.4-0.6-1.8-0.4-3.7-0.7-1.3-0.2-2.7-0.3-1.4-0.2-2.9-0.2-1.1-0.1-2.2-0.1-1.9 0-3.8 0.1-1.4 0.1-2.8 0.3-1.2 0.2-2.5 0.4c0 0.7 0 1.4 0 2zm46.3 24.1q0 0 0 0 0 0 0 0zm-1.1 0.8q-1.1 0.7-2.3 1.3-1.7 0.8-3.4 1.6c-0.8 0.4-1.7 0.8-2.6 1.2q-2.1 0.9-4.2 1.9-1.1 0.6-2.3 1.1-1.2 0.6-2.3 1.1-1 0.4-1.9 0.9c-1.2 0.6-2.5 1.2-3.6 1.9-1.5 0.8-3 1.6-4.3 2.8q-1.1 0.9-1.8 2-0.6 0.9-1.1 1.8-0.6 1.2-1.1 2.4-0.5 1-0.9 2.1-0.3 1-0.7 2.1c2.5-0.5 5-0.3 7.4 0 0.5-0.8 1.1-1.6 1.6-2.4 0.4-0.5 0.7-1 1.2-1.4q1.1-1.1 2.2-2.2 1.2-0.9 2.3-1.8 1.2-0.9 2.3-1.7 1-0.7 2-1.3 1-0.6 2-1.2 1.3-0.8 2.5-1.5 1-0.5 2-1.1 1.3-0.6 2.5-1.3 1.2-0.6 2.4-1.2 1.1-0.5 2.2-1c0.3-0.2 0.7-0.3 0.8-0.7q0-0.5 0.1-1.1c0.1-0.8 0.1-1.6 0.2-2.4 0-0.9-0.1-1.8-0.1-2.7-0.4 0.3-0.7 0.6-1.1 0.8zm23-37.5c-0.2 0.1-0.3 0.2-0.4 0.2-0.8 0.7-1.5 1.4-2.3 2.1-0.9 0.7-1.8 1.3-2.6 1.9-0.9 0.6-1.8 1.3-2.8 1.8q-1.8 1.1-3.6 2-1.7 0.9-3.4 1.7c-1.7 0.7-3.3 1.4-4.9 2-2 0.8-4 1.4-6 2-1.2 0.4-2.4 0.7-3.7 0.9-0.8 0.2-1.7 0.4-2.5 0.6q-0.6 0.1-1.2 0.2c0.3 0.3 0.6 0.4 0.9 0.6q1.1 0.6 2.3 1.3 0.8 0.5 1.7 1c0.5 0.3 1 0.7 1.6 1.1 0.3 0.1 0.5 0.5 1 0.3 0.8-0.3 1.7-0.5 2.6-0.8 1.3-0.3 2.6-0.7 3.9-1.1q2.1-0.7 4.1-1.4c1.6-0.7 3.2-1.3 4.8-2q1.9-0.9 3.8-1.9 1.6-0.9 3.2-2c0.6-0.5 1.3-1 1.8-1.5 0.5-0.6 0.9-1.2 1.2-1.9 0.3-0.7 0.7-1.4 0.8-2.1 0.1-1 0.1-2 0-2.9 0-0.7-0.2-1.4-0.3-2.1zm-7.8-11.1c-0.2-0.2-0.3-0.3-0.4-0.4-1.2-1-2.3-1.9-3.5-2.9-0.9-0.6-1.8-1.2-2.7-1.8-0.5-0.3-0.9-0.7-1.5-0.8q-1.2-0.1-2.4-0.3-1.6-0.3-3.3-0.7c-1.2-0.2-2.4-0.5-3.6-0.8-1-0.3-2.1-0.7-3.1-1.1q-1.6-0.5-3.1-1.2c-1.8-0.8-3.4-1.7-4.9-3-0.2-0.1-0.4-0.3-0.6-0.4-0.4-0.2-0.9-0.3-1.3-0.4q-1.5-0.2-3-0.5-1.3-0.2-2.6-0.4-1.4-0.2-2.8-0.3c-0.1 0-0.2 0-0.3 0.1 0 0.1 0 0.2 0.1 0.3q0.2 0.3 0.5 0.5c0.7 0.6 1.4 1.2 2.1 1.8 1.2 0.9 2.4 1.8 3.6 2.7 0.8 0.6 1.6 1.1 2.4 1.6q1.9 1.1 3.8 2.1c1.2 0.6 2.4 1.1 3.6 1.7q1.1 0.4 2.1 0.9 1.2 0.4 2.4 0.8 1.1 0.3 2.2 0.6 1.2 0.4 2.5 0.7 1.6 0.3 3.1 0.6 0.8 0.1 1.5 0.2c1.3 0.1 2.5 0.3 3.8 0.4 1 0.1 2 0.1 3 0.1q1.2 0 2.4-0.1zm-24.7 33.1c-0.1-0.1-0.1-0.2-0.2-0.2q-1.7-0.9-3.4-1.8-1.1-0.5-2.2-1-1.1-0.4-2.3-0.8c-0.4-0.1-0.9-0.4-1.4-0.2-1 0.3-2 0.7-3.1 1-1.1 0.2-2.3 0.3-3.5 0.5-1.4 0.2-2.9 0.2-4.3 0.2q-1.9-0.1-3.8-0.5c-0.5-0.1-1-0.2-1.5-0.3q-0.9-0.3-1.7-0.6-0.9-0.2-1.7-0.6c-0.6-0.3-1.2-0.6-1.8-0.9q-0.7-0.4-1.4-0.8c-0.3-0.2-0.5-0.4-0.9-0.3-0.2 0.1-0.4 0.1-0.6 0.1q-0.8 0-1.7 0.1c-0.2 0.1-0.4 0.3-0.2 0.5 0.2 0.3 0.5 0.7 0.8 1.1q0.9 1 1.9 1.9 0.6 0.6 1.3 1.1 0.7 0.5 1.4 0.9c0.6 0.3 1.2 0.7 1.8 1q1.5 0.6 3.1 1.1 1.3 0.4 2.7 0.7 1.2 0.2 2.5 0.3 2.1 0.1 4.3 0.2c1.1 0 2.2-0.1 3.2-0.2q1.6-0.1 3.2-0.3 1.3-0.2 2.6-0.5c1.2-0.2 2.3-0.4 3.5-0.7 1.1-0.3 2.1-0.6 3.1-0.9q0.1-0.1 0.2-0.1zm27.1-40.9c0.6 0.6 1.2 1.2 1.8 1.7 0.5 0.5 1.1 1 1.6 1.5q0.8 0.7 1.5 1.5c0.4 0.4 0.7 0.9 1.1 1.3 0.1 0 0.2 0.1 0.3 0q1.7-0.7 3.4-1.4c0.4-0.1 0.9-0.2 1.1-0.7 0.4-0.8 0.8-1.6 1.3-2.5q0.3-0.7 0.7-1.4c-1.3-0.2-2.4-0.5-3.6-0.7-0.8-0.2-1.5-0.3-2.3-0.5-0.7-0.1-1.5-0.2-2.3 0-1 0.3-2.1 0.6-3.1 0.8-0.5 0.2-1 0.3-1.5 0.4zm-58.6 34.6c0.1 0.1 0.1 0.2 0.1 0.2 0.8 0.4 1.5 0.8 2.2 1.1q1.1 0.5 2.3 0.9c1.1 0.3 2.3 0.7 3.5 0.9 1.3 0.2 2.6 0.3 3.9 0.4 1.5 0.1 3-0.1 4.6-0.3q1.2-0.2 2.3-0.4c0.8-0.2 1.5-0.5 2.2-0.7 0 0 0.1-0.1 0.1-0.2 0 0-0.1-0.1-0.2-0.1-1.1-0.3-2.2-0.6-3.3-0.8q-1.6-0.3-3.2-0.6-1.4-0.2-2.9-0.3-1.5-0.1-2.9-0.2-1.6-0.1-3.2-0.1-1.7-0.1-3.4 0c-0.7 0-1.3 0.1-2.1 0.2zm46.9-33.5c0 0 0 0 0-0.1q-0.5-0.2-0.9-0.4c-1.4-0.7-2.8-1.4-4.3-2-1.3-0.5-2.6-1-3.9-1.5q-1.4-0.5-2.9-0.9-1.4-0.5-2.9-0.8-1.6-0.4-3.2-0.8c-0.1 0-0.2 0-0.2 0q0 0.1 0 0.2c0.3 0.2 0.6 0.5 1 0.7q1.1 0.7 2.3 1.3 1.2 0.6 2.4 1.1c0.6 0.3 1.2 0.4 1.8 0.6 0.7 0.3 1.4 0.6 2.2 0.8q1.7 0.5 3.6 0.9c0.7 0.2 1.5 0.3 2.2 0.5q0.8 0.2 1.6 0.3c0.4 0.1 0.8 0.1 1.2 0.1z" />
				<path id="Layer" class="s3"
					d="m239.2 26.1c0.5-0.7 0.9-1.5 1.4-2.2q0.5-0.8 1-1.5 0.3-0.4 0.7-0.7c0.1-0.1 0.4-0.1 0.5-0.1 1 0.1 2 0.1 3 0.2 1.2 0.1 2.3 0.3 3.5 0.5 0.8 0.1 1.6 0.2 2.5 0.4 1 0.2 2 0.4 3 0.7q1 0.2 2.1 0.5c0.9 0.2 1.7 0.4 2.5 0.7q0.9 0.2 1.8 0.5c0.6 0.2 1.1 0.4 1.7 0.6q0.8 0.3 1.5 0.6 1.4 0.5 2.8 1.1 1.3 0.5 2.5 1.1 1.6 0.8 3.2 1.7 1.9 1 3.7 2.1c0.9 0.6 1.9 1.1 2.8 1.8 0.7 0.5 1.2 1.2 1.9 1.8 0.7 0.6 1.4 1.2 2 1.8q1 0.9 1.8 1.8c0.3 0.4 0.6 0.8 0.9 1.2 0.3 0.5 0.7 0.9 1 1.3 0.7 1 1.2 2.1 1.6 3.3q0.3 1.1 0.5 2.3 0.3 2 0 4c-0.1 0.7-0.1 1.4-0.3 2.1-0.3 1-0.6 2.1-1 3.1q-0.3 0.9-0.6 1.7c-0.3 0.5-0.6 1-0.9 1.5q-0.1 0-0.1 0c0-0.2 0-0.4 0.1-0.6 0.5-1.3 0.5-2.7 0.4-4.1q-0.1-1.8-0.8-3.4c-0.3-0.7-0.5-1.4-0.9-2.1q-0.7-1.3-1.5-2.5-0.7-0.9-1.4-1.8-1-1.2-2-2.3-0.8-1-1.7-1.8c-0.7-0.7-1.4-1.2-2.1-1.8q-0.6-0.6-1.3-1.1c-0.4-0.3-0.9-0.7-1.4-1q-1.3-0.9-2.6-1.7-0.9-0.5-1.8-1-1.9-0.9-3.7-1.8c-0.9-0.4-1.8-0.8-2.7-1.2q-1.2-0.4-2.4-0.9c-0.6-0.2-1.2-0.3-1.7-0.5-0.9-0.3-1.7-0.6-2.5-0.8q-1.6-0.5-3.3-0.9-2.1-0.5-4.2-1-1.4-0.3-2.8-0.5-2.5-0.4-5-0.8-0.7-0.1-1.4-0.2c-0.1 0-0.2 0-0.3-0.1z" />
				<path id="Layer" class="s3"
					d="m217.6 63.6c0.9-0.2 1.7-0.3 2.6-0.4q1.3-0.2 2.7-0.3 1.9-0.1 3.8-0.1 1.1 0 2.2 0 1.5 0.1 3 0.2 1.3 0.1 2.6 0.3 1.9 0.3 3.8 0.7 1.2 0.3 2.3 0.6 1.6 0.5 3.1 1c1.1 0.4 2.2 0.7 3.2 1.1 0.9 0.3 1.8 0.8 2.7 1.2q1.5 0.6 2.9 1.3 1.2 0.7 2.4 1.4 1.7 1 3.5 2.1c0.9 0.6 1.9 1.2 2.7 1.9q1.7 1.3 3.2 2.8c0.9 0.9 1.8 1.8 2.5 2.9 0.9 1.1 1.7 2.4 2.1 3.8 0.3 0.8 0.5 1.5 0.6 2.2 0.2 1.1 0.2 2.1 0 3.2-0.3 1.5-0.9 2.9-1.7 4.2q-0.5 1-1.7 1.4c-0.6 0.2-1.1 0.4-1.7 0.7 0.1-0.5 0.1-0.9 0.2-1.3q0.1-1.7 0.1-3.5 0-0.8-0.1-1.7c-0.1-0.6-0.2-1.2-0.4-1.8-0.3-1-0.6-2-1-3-0.4-0.9-0.9-1.7-1.3-2.6-0.6-1-1.3-2-2.1-2.9-0.8-1-1.7-1.9-2.8-2.5q-1.6-1-3.2-2c-0.7-0.5-1.5-0.9-2.3-1.4-0.9-0.4-1.8-0.8-2.7-1.2q-1.1-0.4-2.3-0.9-1-0.4-2-0.7-1.8-0.5-3.5-0.9-2-0.5-4-0.8c-0.8-0.2-1.7-0.2-2.5-0.3-1.2-0.1-2.4-0.3-3.6-0.3q-2-0.2-4-0.2-2.6 0-5.1 0.2c-1.3 0-2.5 0.2-3.7 0.3-0.5 0.1-0.5 0.1-0.5-0.5 0.1-0.7 0-1.5 0-2.2 0-0.7 0-1.3 0-2.1z" />
				<path id="Layer" class="s3"
					d="m264 89.7c0 1 0 1.8 0 2.7 0 0.8-0.1 1.6-0.2 2.4q0 0.5-0.1 1.1c-0.1 0.4-0.5 0.5-0.8 0.7q-1.1 0.5-2.2 1-1.2 0.6-2.3 1.2-1.3 0.7-2.5 1.3c-0.7 0.4-1.4 0.7-2.1 1.1q-1.2 0.7-2.4 1.5-1.1 0.6-2.1 1.2-1 0.6-1.9 1.3-1.2 0.8-2.3 1.7-1.2 0.9-2.3 1.8-1.2 1.1-2.3 2.2c-0.4 0.4-0.8 0.9-1.2 1.4-0.5 0.8-1 1.6-1.6 2.4-2.4-0.3-4.8-0.5-7.4 0 0.3-0.8 0.5-1.4 0.8-2.1 0.2-0.7 0.5-1.4 0.8-2.1q0.5-1.2 1.1-2.4 0.5-0.9 1.1-1.8 0.8-1.1 1.8-2c1.3-1.2 2.8-2 4.3-2.8 1.2-0.7 2.4-1.3 3.6-1.9q1-0.5 1.9-0.9 1.2-0.5 2.3-1.1 1.2-0.5 2.4-1.1 2.1-1 4.1-1.9c0.9-0.4 1.8-0.8 2.7-1.2q1.6-0.8 3.3-1.6 1.2-0.6 2.4-1.3c0.3-0.2 0.7-0.5 1.1-0.8z" />
				<path id="Layer" class="s3"
					d="m285.8 53c0.1 0.8 0.3 1.4 0.4 2.1 0 0.9 0 1.9-0.1 2.9-0.1 0.7-0.4 1.5-0.8 2.1-0.3 0.7-0.7 1.3-1.2 1.9-0.5 0.6-1.2 1.1-1.8 1.5q-1.6 1.1-3.2 2-1.9 1-3.8 1.9-2.3 1-4.7 2-2.1 0.7-4.2 1.4c-1.3 0.4-2.6 0.8-3.8 1.1-0.9 0.3-1.8 0.5-2.7 0.8-0.5 0.2-0.7-0.2-1-0.3-0.6-0.4-1.1-0.7-1.6-1.1q-0.8-0.5-1.7-1-1.1-0.7-2.3-1.3c-0.3-0.2-0.6-0.3-0.8-0.6q0.5-0.1 1.1-0.2c0.9-0.2 1.7-0.3 2.6-0.5 1.2-0.3 2.4-0.6 3.6-1 2-0.6 4-1.2 6-1.9 1.7-0.6 3.3-1.4 4.9-2.1q1.7-0.8 3.4-1.7 1.9-0.9 3.6-2c1-0.5 1.9-1.2 2.8-1.8 0.9-0.6 1.8-1.3 2.6-1.9 0.8-0.7 1.6-1.4 2.3-2.1 0.1 0 0.2-0.1 0.4-0.2z" />
				<path id="Layer" class="s3"
					d="m278 41.9c-0.8 0.1-1.6 0.1-2.4 0.1q-1.5 0-3-0.1c-1.2-0.1-2.5-0.3-3.8-0.5q-0.7 0-1.5-0.2-1.5-0.2-3-0.5-1.3-0.3-2.6-0.7-1.1-0.3-2.2-0.7-1.2-0.3-2.3-0.8-1.1-0.4-2.1-0.8c-1.2-0.6-2.5-1.1-3.6-1.7-1.3-0.7-2.6-1.4-3.8-2.2q-1.3-0.7-2.5-1.5-1.8-1.4-3.6-2.7-1-0.9-2.1-1.8-0.3-0.2-0.5-0.5c-0.1-0.1-0.1-0.2-0.1-0.4 0.1 0 0.2 0 0.3 0q1.4 0.1 2.8 0.3 1.3 0.2 2.6 0.4 1.5 0.2 3 0.5c0.5 0.1 0.9 0.2 1.3 0.3 0.2 0.1 0.4 0.3 0.7 0.5 1.4 1.3 3.1 2.2 4.8 3q1.6 0.7 3.1 1.2 1.6 0.6 3.1 1.1c1.2 0.3 2.4 0.5 3.6 0.8q1.7 0.4 3.4 0.7 1.1 0.2 2.3 0.3c0.6 0.1 1 0.5 1.5 0.8 0.9 0.6 1.8 1.1 2.7 1.8 1.2 0.9 2.3 1.9 3.5 2.9 0.1 0.1 0.2 0.2 0.4 0.4z" />
				<path id="Layer" class="s3"
					d="m253.3 75q-0.1 0-0.2 0.1c-1.1 0.3-2.1 0.6-3.1 0.9-1.2 0.2-2.4 0.5-3.6 0.7q-1.2 0.3-2.5 0.4-1.6 0.3-3.2 0.4c-1.1 0.1-2.2 0.2-3.2 0.2-1.5 0-2.9-0.1-4.4-0.2q-1.2-0.1-2.5-0.3-1.3-0.3-2.6-0.7-1.6-0.5-3.1-1.1c-0.7-0.3-1.2-0.7-1.8-1q-0.8-0.4-1.4-0.9c-0.5-0.4-1-0.7-1.4-1.1q-0.9-0.9-1.8-1.9c-0.4-0.4-0.6-0.8-0.9-1.1-0.1-0.2 0-0.4 0.3-0.5q0.8-0.1 1.7-0.1c0.2-0.1 0.4 0 0.6-0.1 0.3-0.1 0.5 0.1 0.8 0.3q0.7 0.4 1.4 0.8 0.9 0.5 1.9 0.9c0.5 0.3 1.1 0.4 1.6 0.6q0.9 0.3 1.7 0.6c0.5 0.1 1 0.2 1.5 0.3q1.9 0.4 3.9 0.5c1.4 0 2.8 0 4.3-0.2 1.1-0.2 2.3-0.3 3.5-0.6 1-0.2 2-0.6 3.1-0.9 0.5-0.2 0.9 0.1 1.4 0.2q1.1 0.4 2.2 0.8 1.2 0.5 2.2 1c1.2 0.6 2.3 1.2 3.5 1.8q0 0.1 0.1 0.2z" />
				<path id="Layer" class="s3"
					d="m280.4 34.1c0.5-0.1 1-0.2 1.4-0.4 1.1-0.2 2.2-0.5 3.2-0.8 0.8-0.2 1.5-0.1 2.3 0.1 0.7 0.1 1.5 0.2 2.2 0.4 1.2 0.2 2.4 0.5 3.7 0.7q-0.4 0.8-0.8 1.4-0.6 1.3-1.2 2.5c-0.3 0.5-0.7 0.6-1.1 0.7q-1.7 0.8-3.4 1.4c-0.1 0.1-0.3 0-0.3 0-0.4-0.4-0.7-0.9-1.1-1.3q-0.8-0.8-1.5-1.5c-0.6-0.5-1.1-1-1.6-1.5-0.6-0.5-1.2-1.1-1.8-1.7z" />
				<path id="Layer" class="s3"
					d="m221.8 68.7q1.1-0.1 2.1-0.2 1.7 0 3.4 0 1.6 0 3.1 0.1 1.5 0.1 2.9 0.2 1.5 0.1 3 0.4 1.6 0.2 3.1 0.5c1.2 0.2 2.3 0.5 3.4 0.8 0.1 0 0.1 0.1 0.2 0.2-0.1 0-0.1 0.1-0.2 0.1-0.7 0.3-1.4 0.5-2.1 0.7q-1.2 0.2-2.4 0.4c-1.5 0.2-3 0.4-4.6 0.3-1.3-0.1-2.6-0.2-3.8-0.4-1.2-0.2-2.4-0.6-3.6-0.9q-1.1-0.3-2.2-0.8c-0.8-0.4-1.5-0.8-2.2-1.2 0 0-0.1-0.1-0.1-0.2z" />
				<path id="Layer" class="s3"
					d="m268.6 35.2q-0.5 0-1.1-0.1-0.8-0.1-1.6-0.3-1.1-0.2-2.3-0.5-1.8-0.4-3.6-0.9c-0.7-0.2-1.4-0.5-2.1-0.8-0.6-0.2-1.2-0.3-1.8-0.6q-1.2-0.5-2.4-1.1-1.2-0.6-2.3-1.3c-0.4-0.2-0.7-0.5-1-0.7 0-0.1 0-0.1-0.1-0.2 0.1 0 0.2 0 0.2 0q1.7 0.4 3.3 0.8 1.5 0.4 2.9 0.8 1.5 0.4 2.9 0.9c1.3 0.5 2.6 1 3.9 1.5 1.4 0.6 2.9 1.3 4.3 2q0.4 0.2 0.9 0.4 0 0.1 0 0.1z" />
			</g>
			<path id="Layer" class="s2"
				d="m305.1 348.6c-0.4-0.6-1.5-1.1-3.1-1.4-2.9-0.6-4.7 0.1-5.4 0.6-0.7 0.6-3.3 2.5-2.9 5.2 0.4 2.7 3.5 4 5.3 4.4 3.8 0.9 6.9-1.7 7.3-2l4.7-24.3 11.2-1.4 0.8-6.7-12.9 0.7c0 0-5 24.9-5 24.9z" />
			<g id="Layer">
				<path id="Layer" class="s5"
					d="m160.9 343c0.3-0.1 0.5-0.1 0.6-0.2 1-0.3 1.9-0.5 2.9-0.9q1.7-0.5 3.4-1.1c0.8-0.3 1.5-0.7 2.3-1 0.8-0.4 1.5-0.7 2.3-1 0.7-0.4 1.3-0.8 2-1.1q1.5-0.8 3-1.7c0.7-0.4 1.3-0.8 1.9-1.2 0.8-0.6 1.8-1.2 2.6-1.8 1-0.7 1.9-1.5 2.8-2.3q1.3-1.1 2.7-2.3 0.8-0.8 1.6-1.7c1-1 2-2 2.9-3.1 0.8-0.9 1.5-1.8 2.2-2.7q0.7-1 1.4-2c0.7-1.1 1.3-2.1 2-3.2 0.2-0.3 0.2-0.7 0.7-0.8 0.2-0.1 0.5-0.2 0.7-0.2 1.2-0.2 2.5-0.4 3.7-0.5q2.5-0.2 4.9-0.3c1 0 1.9 0.2 2.8 0.3 0.4 0 0.7 0.2 0.7 0.7q0.1 0.1 0.1 0.3c0.2 1.2 0.5 2.4 0.6 3.6 0.2 1.5 0.3 2.9 0.4 4.4q0.1 2.1 0 4.2c0 1.3-0.1 2.7-0.2 4.1q-0.1 1.3-0.2 2.5-0.2 1.2-0.4 2.4c-0.3 1.7-0.6 3.4-0.9 5.1-0.4 1.7-0.9 3.4-1.3 5q-0.5 1.8-1.1 3.4-0.6 1.8-1.2 3.5c-0.2 0.5-0.4 0.8-0.8 1q-1.5 0.9-3 1.9-1.8 1.3-3.5 2.7-1.3 1.1-2.5 2.2-1.4 1.4-2.8 2.9-1 0.9-1.8 1.9c-0.4 0.4-0.7 0.9-1.1 1.4-0.8 1-1.7 2.1-2.5 3.2q-0.9 1.2-1.6 2.6c-0.9 1.5-1.8 3.1-2.6 4.7-0.7 1.3-1.2 2.7-1.8 4q0 0 0.1 0 0 0.3 0 0.5c0.1 0 0.2 0.1 0.3 0.1q1.1 0.7 2.1 1.4c0.9 0.5 1.7 0.9 2.5 1.4 0.6 0.4 1.1 0.6 1.8 0.5 1-0.2 1.9-0.2 2.8-0.5q1.5-0.3 2.8-0.8c0.8-0.3 1.6-0.7 2.3-1.1q1.1-0.6 2.1-1.3 1.2-0.9 2.2-1.8 1.1-0.9 2.1-2c0.6-0.6 1.1-1.3 1.7-2 0.6-0.9 1.2-1.7 1.8-2.5 0.7-1.1 1.4-2.3 2-3.5q0.8-1.4 1.6-3c0.4-1 0.8-2.1 1.3-3.1 0.3-0.9 0.7-1.8 1-2.7q0.5-1.4 0.9-2.9c0.3-0.9 0.5-1.8 0.8-2.6 0-0.3 0.2-0.5 0.4-0.7 0.6-0.3 1.1-0.6 1.7-0.9q1.7-0.6 3.4-1.1c1.5-0.4 3-0.5 4.6-0.5q2 0 4.1 0.4c1.3 0.2 2.6 0.7 3.9 1 0.1 0.1 0.3 0.2 0.3 0.3 0 0.7 0.1 1.4 0.2 2.1q0 1.3-0.1 2.5c-0.1 0.7-0.2 1.4-0.2 2.1q-0.2 1.4-0.4 2.9-0.2 1.7-0.4 3.5c0 0.7-0.1 1.5-0.2 2.3-0.1 0.9-0.2 1.9-0.4 2.8q-0.2 2.5-0.5 5-0.1 1.6-0.2 3.3-0.1 1-0.1 2 0 1.6 0 3.2c0 1.2 0.1 2.4 0.6 3.5 0.5 1.3 1.1 2.5 1.7 3.7 0.4 0.6 0.9 1.2 1.3 1.9q0.9 1.1 1.7 2.2c0.3 0.3 0.5 0.5 0.8 0.8q0.5 0.7 1.1 1.5c0.2 0.2 0.4 0.3 0.6 0.6 0.3-1.6 1-3 1.9-4.3 0.8-1.3 1.7-2.5 2.6-3.8-0.1 0-0.2 0-0.3-0.1-0.3-0.7-0.7-1.3-1-1.9-0.4-1.1-0.9-2.2-1.2-3.3-0.4-1.5-0.6-3.1-0.8-4.6q-0.3-1.9-0.4-3.9-0.1-1.7-0.2-3.4c0-1 0.1-2 0.1-3 0-1 0-2 0-3 0.1-0.9 0.2-1.9 0.2-2.9 0.1-1.3 0.2-2.7 0.3-4q0.2-2 0.4-4c0.1-0.8 0.3-1.5 0.3-2.3 0.1-0.7 0.3-1.3-0.1-1.9-0.6-1.1-1.2-2.3-1.9-3.3-0.8-1-1.9-1.9-3.1-2.6-1.2-0.7-2.5-1.2-3.9-1.5q-1.2-0.2-2.4-0.2c-0.9-0.1-1.7-0.2-2.6 0-1.4 0.1-2.8 0.4-4.2 0.6q-1.4 0.3-2.8 0.7c-1.1 0.4-2.3 0.9-3.5 1.3q0.1-0.4 0.3-0.9c0.2-0.7 0.4-1.5 0.6-2.3q0.4-1.4 0.8-2.8c0.2-0.9 0.5-1.8 0.6-2.7q0.6-3 1.1-6.1c0.2-1.2 0.3-2.4 0.5-3.5q0-0.9 0.1-1.7c0-1.2 0.1-2.4 0-3.5q0-1.8-0.3-3.5-0.2-1.6-0.6-3.2c-0.3-1-0.8-2-1.5-2.8-0.5-0.7-0.9-1.4-1.4-2.1q-1-1.1-2.1-2.1-1.1-1-2.2-1.8-0.8-0.6-1.7-1.1-1.2-0.6-2.4-1.2c-0.8-0.3-1.6-0.6-2.4-0.7-1-0.2-2-0.3-2.9-0.4-0.6 0-1.2 0-1.8 0q-0.1-0.1-0.1-0.1 0.4-2.4 0.8-4.7c0-0.1 0-0.3-0.1-0.4q-0.5-0.9-1-1.7-0.9-1.4-1.8-2.8c-0.3-0.5-0.8-0.6-1.2-0.2q-0.9 0.9-1.8 1.9-1.4 1.5-2.8 2.9c-0.3 0.4-0.8 0.7-0.9 1.3q-0.1 0.5-0.2 1-0.6 2.1-1.2 4.2c-0.1 0.6-0.3 1-0.9 1.3q-2.1 0.8-4.1 1.8c-1.4 0.7-2.7 1.5-4.1 2.3q-1.1 0.6-2.1 1.3-0.9 0.6-1.8 1.2-1.1 0.7-2.1 1.4c-0.5 0.4-1 0.8-1.5 1.2-0.9 0.7-1.8 1.3-2.6 2-0.7 0.6-1.4 1.3-2.1 1.9q-1.1 1-2.2 2-0.9 0.8-1.7 1.7-1.1 1.1-2.2 2.3-0.9 1-1.8 2.1-0.9 1-1.6 2-1 1.3-1.9 2.6c-0.3 0.4-0.7 0.7-0.5 1.2 0.1 0.2 0.2 0.4 0.2 0.5 0.4 1 0.7 1.9 1.1 2.8 0.7 1.1 1.4 2.2 2.1 3.3z" />
				<path id="Layer" fill-rule="evenodd" class="s6"
					d="m160.9 343c-0.7-1.1-1.5-2.2-2.1-3.4-0.5-0.8-0.7-1.8-1.1-2.7-0.1-0.2-0.2-0.3-0.2-0.5-0.2-0.6 0.2-0.9 0.5-1.3q0.9-1.3 1.8-2.5 0.8-1 1.7-2 0.9-1.1 1.8-2.2 1.1-1.1 2.2-2.3 0.8-0.8 1.6-1.6 1.1-1.1 2.3-2.1c0.7-0.6 1.4-1.2 2.1-1.8q1.3-1.1 2.6-2.1c0.5-0.4 1-0.8 1.5-1.1q1-0.8 2-1.5 1-0.6 1.9-1.2 1-0.6 2-1.2c1.4-0.8 2.8-1.6 4.2-2.3q2-1 4-1.9c0.7-0.2 0.8-0.7 1-1.2q0.5-2.1 1.1-4.2 0.2-0.5 0.3-1.1c0.1-0.6 0.6-0.9 0.9-1.2q1.4-1.5 2.7-2.9 0.9-1 1.9-2c0.3-0.3 0.9-0.3 1.2 0.2q0.9 1.4 1.8 2.8 0.5 0.8 1 1.7c0.1 0.1 0.1 0.3 0.1 0.5q-0.4 2.3-0.8 4.6 0 0.1 0 0.1c0.6 0 1.2 0 1.8 0 1 0.1 2 0.2 3 0.4q1.2 0.3 2.4 0.8c0.8 0.3 1.5 0.7 2.3 1.1q0.9 0.5 1.7 1.1 1.2 0.9 2.2 1.9 1.1 1 2.1 2.1c0.6 0.6 1 1.3 1.5 2 0.7 0.8 1.1 1.8 1.4 2.8q0.5 1.6 0.7 3.2 0.2 1.8 0.3 3.5c0 1.2 0 2.3-0.1 3.5q0 0.9-0.1 1.7c-0.1 1.2-0.2 2.4-0.4 3.5q-0.5 3.1-1.1 6.2c-0.2 0.9-0.4 1.8-0.7 2.7q-0.3 1.4-0.7 2.8-0.3 1.1-0.7 2.3-0.1 0.4-0.2 0.8c1.2-0.4 2.3-0.8 3.5-1.2q1.4-0.4 2.8-0.7c1.4-0.3 2.8-0.5 4.2-0.7 0.8-0.1 1.7 0 2.6 0q1.1 0.1 2.3 0.3c1.4 0.2 2.8 0.8 4 1.5 1.2 0.7 2.2 1.5 3 2.6 0.8 1 1.4 2.1 2 3.2 0.4 0.6 0.2 1.3 0.1 1.9-0.1 0.8-0.2 1.6-0.3 2.4q-0.2 1.9-0.4 3.9c-0.1 1.4-0.2 2.7-0.3 4.1-0.1 0.9-0.2 1.9-0.2 2.9 0 1 0 2 0 3 0 0.9-0.1 1.9-0.1 2.9q0 1.7 0.2 3.4 0.1 2 0.4 3.9c0.2 1.6 0.4 3.1 0.8 4.6 0.2 1.2 0.7 2.3 1.2 3.3 0.2 0.7 0.6 1.3 1 1.9 0 0.1 0.2 0.1 0.2 0.2-0.8 1.2-1.7 2.5-2.6 3.7-0.8 1.3-1.5 2.7-1.8 4.3-0.2-0.2-0.4-0.4-0.6-0.6-0.4-0.5-0.8-1-1.2-1.4-0.2-0.3-0.5-0.6-0.7-0.9q-0.8-1.1-1.7-2.2c-0.4-0.6-0.9-1.2-1.3-1.9-0.6-1.2-1.3-2.4-1.8-3.6-0.4-1.2-0.5-2.4-0.5-3.5q-0.1-1.6-0.1-3.2c0.1-0.7 0.1-1.4 0.2-2.1q0.1-1.6 0.2-3.3 0.2-2.4 0.5-4.9c0.1-1 0.3-1.9 0.4-2.9 0.1-0.8 0.1-1.5 0.2-2.3q0.2-1.7 0.4-3.4 0.2-1.5 0.3-3 0.2-1 0.3-2.1 0-1.2 0-2.4c0-0.7-0.1-1.4-0.2-2.1 0-0.1-0.1-0.3-0.2-0.3-1.3-0.4-2.6-0.8-4-1.1q-2-0.3-4-0.4c-1.6 0-3.1 0.2-4.6 0.6q-1.7 0.5-3.4 1.1c-0.6 0.2-1.2 0.5-1.7 0.9-0.2 0.1-0.4 0.4-0.5 0.6-0.2 0.9-0.5 1.8-0.7 2.6q-0.4 1.5-0.9 3c-0.4 0.9-0.7 1.8-1.1 2.6-0.4 1.1-0.8 2.1-1.3 3.2q-0.7 1.5-1.5 3c-0.7 1.1-1.3 2.3-2 3.4-0.6 0.9-1.2 1.7-1.9 2.5-0.5 0.7-1.1 1.4-1.7 2.1q-0.9 1-2 1.9-1.1 1-2.2 1.8-1.1 0.7-2.1 1.3c-0.8 0.4-1.5 0.8-2.3 1.1q-1.4 0.5-2.8 0.9c-0.9 0.2-1.9 0.3-2.8 0.5-0.7 0.1-1.3-0.1-1.8-0.5-0.8-0.5-1.7-1-2.5-1.5q-1.1-0.6-2.1-1.3c-0.1-0.1-0.2-0.1-0.3-0.1q0-0.3-0.1-0.5 0 0-0.1 0c0.6-1.4 1.2-2.8 1.9-4.1 0.8-1.6 1.7-3.1 2.5-4.7q0.8-1.3 1.7-2.6c0.8-1.1 1.7-2.1 2.5-3.2 0.3-0.5 0.7-0.9 1.1-1.4q0.8-0.9 1.7-1.9 1.4-1.4 2.9-2.8 1.2-1.2 2.5-2.2 1.7-1.4 3.5-2.7 1.4-1 2.9-1.9c0.4-0.3 0.7-0.6 0.9-1q0.6-1.8 1.2-3.5 0.6-1.7 1-3.4c0.5-1.7 1-3.4 1.3-5 0.4-1.7 0.7-3.4 1-5.1q0.2-1.2 0.3-2.4 0.2-1.3 0.2-2.5c0.1-1.4 0.2-2.8 0.3-4.2q0-2.1-0.1-4.1c0-1.5-0.1-3-0.3-4.4-0.2-1.3-0.4-2.5-0.7-3.7 0-0.1 0-0.2 0-0.3 0-0.4-0.3-0.6-0.8-0.7-0.9 0-1.8-0.3-2.7-0.2q-2.5 0-4.9 0.2c-1.3 0.1-2.5 0.4-3.7 0.5-0.3 0.1-0.5 0.2-0.8 0.2-0.4 0.1-0.5 0.6-0.7 0.9-0.6 1-1.3 2.1-1.9 3.1q-0.7 1-1.4 2c-0.8 0.9-1.5 1.9-2.2 2.8-1 1-2 2.1-2.9 3.1q-0.8 0.9-1.7 1.7-1.3 1.2-2.7 2.3c-0.9 0.7-1.8 1.5-2.7 2.2-0.9 0.7-1.8 1.2-2.7 1.8-0.6 0.5-1.2 0.9-1.8 1.3-1 0.5-2 1.1-3 1.6-0.7 0.4-1.4 0.8-2 1.1q-1.2 0.5-2.3 1c-0.8 0.4-1.6 0.7-2.4 1q-1.6 0.6-3.3 1.2-1.5 0.4-2.9 0.9c-0.2 0-0.4 0.1-0.6 0.1zm-0.5-1.5c0.1-0.1 0.2-0.1 0.3-0.2q0.4-0.6 0.9-1.1 1.7-2.1 3.5-4.2 1-1.1 2.1-2.2 1.6-1.7 3.3-3.3 1.3-1.2 2.7-2.4c0.6-0.7 1.4-1.2 2.1-1.8 0.5-0.5 1-0.9 1.5-1.3q1.1-0.8 2.2-1.6c0.8-0.6 1.7-1.3 2.6-1.8q1.8-1.2 3.8-2.4 0.9-0.5 1.9-1 1.5-0.8 3-1.5c0.6-0.2 1.2-0.4 1.8-0.7q0.8-0.3 1.7-0.5c0.9-0.3 1.9-0.7 2.8-0.9q1.4-0.3 2.7-0.6 1.7-0.3 3.4-0.5 1.2-0.2 2.4-0.2c1.1 0 2.1-0.1 3.2 0 0.8 0.1 1.6 0.2 2.4 0.4q2 0.3 3.7 1.1c1.3 0.7 2.6 1.6 3.6 2.7 0.1 0.2 0.3 0.3 0.4 0.4q0.1 0 0.1 0c-0.3-0.6-0.5-1.2-0.9-1.7q-0.5-0.8-1.2-1.6c-0.8-0.8-1.5-1.7-2.4-2.5-0.5-0.6-1.1-1-1.7-1.5q-1.8-1.4-3.8-2.2c-0.8-0.4-1.7-0.6-2.5-0.9-1.3-0.3-2.6-0.5-3.9-0.4-0.6 0.1-1.2 0.2-1.9 0.2-0.5 0.1-1.1 0.1-1.6 0.2q-1.3 0.2-2.7 0.5c-0.9 0.3-1.9 0.6-2.8 0.8-0.9 0.3-1.9 0.5-2.8 0.8-1.1 0.4-2.2 1-3.3 1.5q-2 1-3.9 2.1-1.7 1-3.4 2-1.3 0.8-2.5 1.7-1.3 0.9-2.5 1.8-0.7 0.6-1.4 1.1-0.8 0.6-1.5 1.2-0.8 0.6-1.6 1.3c-0.7 0.6-1.4 1.2-2 1.9-0.6 0.5-1.2 1.1-1.7 1.7-0.8 0.7-1.6 1.5-2.3 2.3-0.6 0.6-1.2 1.4-1.8 2-0.8 1-1.6 1.9-2.4 2.9-0.6 0.8-1.2 1.7-1.8 2.6-0.2 0.1-0.3 0.3-0.3 0.5 0.1 0.4 0.2 0.7 0.3 1q0.4 0.9 0.8 1.8c0.4 0.8 0.9 1.7 1.3 2.5zm23.1 40.5c0.7 0.4 1.3 0.7 1.9 1.1 0.7 0.4 1.4 0.8 2.1 1.3 0.5 0.3 0.5 0.3 0.7-0.2 0.6-1.1 1.1-2.3 1.8-3.5q1.3-2.4 2.7-4.7 1.1-1.8 2.4-3.5c0.7-1.1 1.5-2.1 2.3-3.1 0.5-0.7 1.1-1.5 1.7-2.2q1.4-1.5 2.9-3 1.4-1.4 2.9-2.7 0.8-0.8 1.8-1.5 1-0.8 2.1-1.5c0.9-0.6 1.7-1.3 2.6-1.8 0.9-0.5 1.7-0.9 2.6-1.3q1.8-1 3.7-1.8c1.2-0.6 2.5-0.9 3.8-1.1q2-0.4 4-0.3c1.1 0.1 2.1 0.1 3.1 0.3 1.2 0.2 2.3 0.4 3.4 0.7 0.7 0.2 1.3 0.5 2 0.7q0.8 0.4 1.6 0.9 1.6 1 3.2 2.1c0.3 0.2 0.7 0.5 1.1 0.8 0.1-0.7 0.1-1.3 0.3-1.9 0.2-0.8 0.1-1.6-0.3-2.3-0.9-1.5-1.7-2.8-3-3.9-0.9-0.8-1.9-1.4-3-1.8-0.8-0.3-1.6-0.5-2.4-0.7-1.6-0.4-3.2-0.4-4.8-0.3-1.4 0.1-2.8 0.4-4.1 0.7q-2.3 0.6-4.4 1.3c-1.1 0.4-2.2 1-3.3 1.5q-2 0.9-4 1.9-1.3 0.7-2.6 1.4c-1 0.6-1.9 1.3-2.9 1.9-0.9 0.6-1.8 1.1-2.6 1.7-1 0.8-1.9 1.5-2.8 2.3q-1.4 1.1-2.7 2.3-1 0.8-1.8 1.8-1.5 1.5-2.8 3-0.9 1.1-1.8 2.2-0.9 1.3-1.8 2.6-0.7 1-1.3 2-1.1 1.7-2 3.4-0.7 1.3-1.3 2.7c-0.4 0.8-0.7 1.7-1.1 2.5zm50.6-27.3c0 0.6 0.1 1 0.1 1.5q-0.1 1.4-0.2 2.8-0.1 2-0.3 4c-0.1 1-0.3 2-0.4 3q-0.2 2.4-0.5 4.8-0.1 1.4-0.3 2.8-0.1 1.4-0.3 2.7-0.1 1.1-0.2 2.2c-0.1 1.5-0.2 2.9-0.3 4.3 0 1.9-0.1 3.7 0.3 5.5q0.2 1.4 0.9 2.7 0.5 1.1 1.1 2 0.8 1.3 1.6 2.4c0.5 0.7 1 1.3 1.5 1.9 0.5 0.6 1 1.2 1.5 1.8 1-2.5 2.6-4.6 4.2-6.6-0.5-1-0.9-1.9-1.4-2.8-0.2-0.6-0.5-1.2-0.6-1.9q-0.5-1.6-0.8-3.3-0.3-1.5-0.4-3.1-0.2-1.5-0.3-3-0.1-1.2-0.2-2.5 0-1.3 0-2.5 0-1.5 0-3.1 0.1-1.2 0.2-2.4 0-1.5 0.1-3 0.1-1.4 0.3-2.8 0.1-1.3 0.2-2.6c0-0.4 0.2-0.8-0.2-1.1q-0.5-0.4-0.9-0.7c-0.8-0.5-1.5-1-2.2-1.5-0.8-0.5-1.7-1-2.5-1.5zm-22.2-40.3c0 0.2-0.1 0.3 0 0.5 0.2 1 0.4 2.1 0.6 3.2 0.1 1.1 0.2 2.3 0.3 3.5 0.1 1.1 0.2 2.3 0.2 3.5q0 2.2-0.2 4.3-0.1 2.1-0.3 4.1c-0.2 1.9-0.5 3.7-0.8 5.6-0.5 2.2-1 4.3-1.6 6.5-0.3 1.3-0.7 2.5-1.1 3.8-0.3 0.9-0.6 1.8-1 2.6q-0.2 0.6-0.3 1.2c0.3-0.1 0.6-0.3 0.9-0.4q1.3-0.7 2.5-1.4 1-0.5 1.9-0.9c0.7-0.3 1.3-0.6 1.9-0.9 0.3-0.2 0.8-0.2 0.9-0.7 0.2-1 0.5-1.9 0.8-2.9 0.3-1.3 0.7-2.7 1.1-4.1q0.5-2.2 0.9-4.5 0.5-2.7 0.9-5.4 0.2-2.3 0.3-4.5 0-2-0.1-4c-0.1-0.9-0.2-1.8-0.4-2.6-0.2-0.7-0.6-1.4-1.1-2.1-0.4-0.7-0.9-1.4-1.5-1.9-0.9-0.6-1.8-1.2-2.7-1.7-0.7-0.3-1.4-0.5-2.1-0.8zm-14.8 0.8c-0.3 0.1-0.5 0.1-0.7 0.2-1.5 0.5-3.1 0.9-4.6 1.5-1.1 0.4-2.2 0.9-3.2 1.4-0.6 0.3-1.2 0.4-1.6 1q-0.8 1-1.6 1.9-1.2 1.3-2.5 2.6c-0.9 1-1.9 1.9-2.8 2.8-0.9 0.8-1.8 1.5-2.7 2.2q-1.5 1.1-2.9 2.1c-1.7 1.2-3.6 2.2-5.5 2.8-0.3 0.1-0.6 0.2-0.9 0.3-0.3 0.3-0.7 0.7-1 1q-1.1 1.2-2.2 2.4-0.9 1.1-1.8 2.2-0.9 1.1-1.8 2.3c-0.1 0.1-0.1 0.2-0.2 0.3 0.2 0.1 0.3 0.2 0.4 0.1q0.4 0 0.8-0.2c1-0.3 1.9-0.5 2.8-0.9q2.3-0.8 4.6-1.7c0.9-0.4 1.9-0.9 2.8-1.3 1.4-0.8 2.8-1.5 4.2-2.3 1.2-0.7 2.4-1.5 3.5-2.3q1.1-0.7 2-1.4c0.8-0.6 1.4-1.1 2.1-1.7q0.9-0.8 1.8-1.6c0.7-0.6 1.4-1.3 2.1-2q1.2-1.2 2.3-2.4 0.5-0.6 1-1.2c0.8-1.1 1.7-2.2 2.5-3.2 0.7-0.9 1.2-1.8 1.8-2.7 0.4-0.7 0.8-1.4 1.3-2.2zm17.1 40.9c-0.1 0-0.1 0-0.2 0q-1.8 1.1-3.6 2.1-1.1 0.7-2.1 1.5-1.1 0.7-2.1 1.6c-0.4 0.3-0.9 0.5-1 1.1-0.3 1.1-0.4 2.2-0.8 3.3-0.4 1.2-1 2.4-1.4 3.5-0.6 1.4-1.5 2.7-2.3 4q-1.2 1.7-2.6 3.2c-0.4 0.4-0.7 0.8-1.1 1.2q-0.8 0.6-1.5 1.2c-0.5 0.4-1 0.8-1.5 1.2-0.6 0.4-1.3 0.7-1.9 1.1q-0.8 0.4-1.6 0.8c-0.3 0.2-0.6 0.3-0.7 0.7 0 0.2-0.2 0.3-0.2 0.5q-0.5 0.8-0.9 1.7c-0.1 0.2 0.1 0.5 0.3 0.4 0.5 0 1 0 1.5-0.1q1.5-0.3 2.9-0.6c0.6-0.1 1.2-0.4 1.7-0.6q0.9-0.3 1.7-0.8c0.6-0.3 1.3-0.6 1.9-1q1.5-1.1 2.8-2.2 1.1-1 2.1-2.1c0.6-0.6 1.2-1.3 1.7-2.1q1.4-1.8 2.6-3.8c0.6-0.9 1.2-1.9 1.7-3q0.7-1.5 1.4-3.1 0.6-1.2 1-2.5c0.5-1.2 0.9-2.4 1.3-3.6 0.4-1.1 0.6-2.2 0.9-3.3q0-0.2 0-0.3zm-23.1-47.4q0 0 0 0 0 0 0 0zm2.6-0.7q1.1-0.3 2.2-0.6 1.2-0.3 2.3-0.5c0.6-0.1 1.2-0.2 1.8-0.3 0.1 0 0.2-0.2 0.2-0.2q0.4-2 0.7-3.9c0-0.5 0.2-0.9-0.1-1.4q-0.8-1.2-1.6-2.5-0.5-0.7-0.9-1.5-1.5 1.5-2.8 2.9c-0.5 0.6-1.1 1.2-1.6 1.8-0.6 0.6-1.1 1.2-1.4 2-0.2 1.2-0.6 2.3-0.9 3.4-0.2 0.4-0.3 0.9-0.5 1.5 0.9-0.2 1.7-0.5 2.6-0.7zm-3 73.1c0.1 0 0.2 0 0.2 0 0.8-0.4 1.6-0.9 2.4-1.4q1-0.7 2-1.5c1-0.9 2-1.7 2.9-2.7 0.9-1 1.6-2.2 2.4-3.3 1-1.3 1.7-2.8 2.4-4.3q0.5-1.2 0.9-2.4c0.2-0.7 0.4-1.5 0.6-2.3 0 0-0.1-0.1-0.1-0.2-0.1 0-0.2 0-0.3 0.1-0.8 0.8-1.7 1.7-2.6 2.6q-1.2 1.2-2.2 2.5-1.1 1.2-2 2.5-1 1.2-1.9 2.5-0.9 1.4-1.8 2.8-1 1.5-1.9 3.1-0.5 0.9-1 2zm-5.2-61.2c0 0 0 0 0 0q-0.5 0.2-0.9 0.5c-1.4 0.9-2.9 1.8-4.3 2.8-1.2 0.9-2.4 1.8-3.6 2.7q-1.3 1-2.5 2.1-1.2 1-2.4 2.1-1.3 1.3-2.5 2.6c-0.1 0-0.1 0.1-0.1 0.2 0.1 0 0.1 0 0.2 0 0.4-0.2 0.8-0.3 1.2-0.5 0.8-0.4 1.7-0.8 2.5-1.3q1.3-0.8 2.4-1.6c0.6-0.4 1.1-0.8 1.6-1.2 0.6-0.6 1.3-1 1.9-1.6q1.5-1.3 2.9-2.8c0.6-0.5 1.2-1.2 1.7-1.8q0.6-0.6 1.2-1.2 0.4-0.5 0.7-1z" />
				<path id="Layer" class="s5"
					d="m160.4 341.5c-0.5-0.9-0.9-1.7-1.3-2.5q-0.5-0.9-0.8-1.8c-0.2-0.3-0.3-0.7-0.3-1-0.1-0.2 0.1-0.4 0.2-0.6 0.6-0.8 1.2-1.7 1.9-2.5 0.7-1 1.6-1.9 2.4-2.9 0.5-0.7 1.1-1.4 1.7-2 0.8-0.8 1.6-1.6 2.3-2.4 0.6-0.5 1.1-1.1 1.7-1.6 0.7-0.7 1.4-1.3 2-1.9q0.8-0.7 1.6-1.3 0.8-0.6 1.5-1.2 0.7-0.5 1.4-1.1c0.9-0.6 1.7-1.2 2.6-1.9q1.2-0.8 2.5-1.6 1.6-1 3.3-2 2-1.1 4-2.1c1.1-0.5 2.2-1.1 3.3-1.5 0.9-0.3 1.8-0.5 2.7-0.8 1-0.2 1.9-0.5 2.9-0.8q1.3-0.3 2.7-0.6c0.5 0 1 0 1.6-0.1 0.6 0 1.2-0.1 1.9-0.2 1.3-0.1 2.6 0.1 3.8 0.4 0.9 0.3 1.7 0.5 2.5 0.9q2.1 0.8 3.8 2.2c0.6 0.4 1.3 0.9 1.8 1.4 0.8 0.9 1.6 1.8 2.3 2.6q0.7 0.8 1.3 1.6c0.3 0.5 0.6 1.1 0.9 1.7q-0.1 0-0.1 0c-0.2-0.1-0.3-0.2-0.4-0.4-1-1.2-2.3-2-3.7-2.7q-1.7-0.8-3.6-1.2c-0.8-0.1-1.7-0.3-2.5-0.3-1-0.1-2.1 0-3.1 0q-1.3 0-2.5 0.2-1.7 0.2-3.4 0.5-1.3 0.2-2.6 0.6c-1 0.2-1.9 0.5-2.9 0.8q-0.8 0.3-1.6 0.6c-0.6 0.3-1.2 0.5-1.8 0.7q-1.5 0.7-3 1.5-1 0.5-2 1-1.9 1.2-3.8 2.4c-0.9 0.5-1.7 1.1-2.6 1.8q-1.1 0.7-2.1 1.6c-0.6 0.4-1.1 0.8-1.6 1.3q-1 0.8-2.1 1.7-1.3 1.3-2.7 2.5-1.6 1.6-3.3 3.3-1 1.1-2 2.2-1.8 2.1-3.6 4.1-0.4 0.6-0.9 1.2c0 0.1-0.1 0.1-0.3 0.2z" />
				<path id="Layer" class="s5"
					d="m183.4 381.9q0.5-1.2 1.1-2.5 0.6-1.3 1.3-2.6 0.9-1.8 2-3.5 0.6-1 1.3-2 0.9-1.3 1.8-2.5 0.8-1.2 1.8-2.2 1.3-1.6 2.7-3.1 0.9-0.9 1.9-1.8 1.3-1.1 2.7-2.2c0.9-0.8 1.8-1.6 2.8-2.3 0.8-0.6 1.7-1.2 2.6-1.8q1.4-0.9 2.9-1.8 1.3-0.8 2.6-1.4 2-1 4-2c1.1-0.5 2.1-1 3.3-1.4q2.1-0.8 4.4-1.3c1.3-0.4 2.7-0.6 4.1-0.7 1.6-0.2 3.2-0.2 4.8 0.2 0.8 0.2 1.6 0.4 2.4 0.7 1.1 0.4 2.1 1.1 3 1.9 1.2 1 2.1 2.4 3 3.8 0.4 0.7 0.5 1.5 0.3 2.3-0.2 0.6-0.2 1.3-0.3 2-0.4-0.3-0.8-0.6-1.1-0.9-1.1-0.7-2.1-1.4-3.2-2.1q-0.8-0.5-1.6-0.8c-0.7-0.3-1.3-0.5-2-0.7-1.1-0.3-2.2-0.6-3.4-0.8-1-0.1-2.1-0.1-3.1-0.2q-2-0.1-4 0.2c-1.3 0.2-2.6 0.5-3.9 1.1q-1.8 0.9-3.6 1.8c-0.9 0.4-1.7 0.9-2.6 1.4-0.9 0.5-1.7 1.1-2.6 1.7q-1.1 0.8-2.1 1.6-1 0.7-1.9 1.4-1.4 1.3-2.8 2.7-1.5 1.5-2.9 3.1c-0.6 0.7-1.2 1.4-1.7 2.1-0.8 1.1-1.6 2.1-2.4 3.1q-1.2 1.7-2.3 3.6-1.4 2.3-2.7 4.7c-0.7 1.1-1.2 2.3-1.8 3.5-0.2 0.5-0.2 0.5-0.7 0.1-0.7-0.4-1.4-0.8-2.1-1.2-0.6-0.4-1.2-0.8-1.9-1.2z" />
				<path id="Layer" class="s5"
					d="m233.9 354.7c0.9 0.5 1.7 0.9 2.5 1.4 0.8 0.5 1.5 1 2.3 1.6q0.4 0.3 0.8 0.6c0.4 0.3 0.3 0.8 0.3 1.1q-0.1 1.3-0.2 2.6-0.2 1.4-0.3 2.8-0.1 1.5-0.2 3 0 1.2-0.1 2.5 0 1.5 0 3 0 1.3 0 2.6 0.1 1.2 0.2 2.5 0.1 1.5 0.2 3 0.2 1.6 0.5 3.1 0.3 1.7 0.7 3.3 0.3 0.9 0.7 1.8c0.4 1 0.9 1.9 1.3 2.8-1.6 2-3.1 4.2-4.1 6.7-0.5-0.6-1-1.2-1.5-1.8-0.5-0.7-1.1-1.3-1.5-1.9q-0.9-1.2-1.6-2.4-0.6-1-1.1-2-0.7-1.3-1-2.8c-0.3-1.8-0.2-3.6-0.2-5.4 0-1.4 0.2-2.9 0.3-4.3q0.1-1.1 0.2-2.3 0.1-1.3 0.3-2.6 0.1-1.4 0.3-2.8 0.2-2.4 0.5-4.8c0.1-1.1 0.3-2.1 0.4-3.1q0.2-1.9 0.3-3.9 0.1-1.4 0.1-2.9c0-0.4 0-0.9-0.1-1.4z" />
				<path id="Layer" class="s5"
					d="m211.7 314.3c0.8 0.3 1.5 0.5 2.2 0.9 0.9 0.5 1.8 1 2.6 1.7 0.7 0.5 1.2 1.2 1.6 1.9 0.5 0.6 0.9 1.4 1.1 2.1 0.2 0.8 0.3 1.7 0.4 2.5q0.1 2 0.1 4-0.1 2.3-0.3 4.5-0.4 2.7-0.9 5.4-0.4 2.3-0.9 4.6c-0.4 1.4-0.8 2.7-1.1 4.1-0.3 1-0.6 1.9-0.8 2.9-0.1 0.5-0.6 0.5-0.9 0.7-0.6 0.3-1.3 0.5-1.9 0.8q-0.9 0.5-1.9 0.9-1.3 0.7-2.5 1.4c-0.3 0.2-0.6 0.4-1 0.5q0.2-0.6 0.4-1.2c0.3-0.9 0.7-1.8 1-2.6 0.4-1.3 0.8-2.6 1.1-3.9 0.6-2.1 1.1-4.3 1.5-6.5 0.4-1.8 0.6-3.7 0.9-5.5 0.1-1.4 0.2-2.7 0.3-4.1q0.2-2.2 0.2-4.4c0-1.1-0.1-2.3-0.2-3.5-0.1-1.1-0.2-2.3-0.3-3.4-0.2-1.1-0.4-2.2-0.7-3.3 0-0.1 0-0.2 0-0.5z" />
				<path id="Layer" class="s5"
					d="m196.9 315.2c-0.4 0.8-0.8 1.5-1.2 2.2-0.6 0.9-1.2 1.8-1.8 2.6-0.8 1.1-1.7 2.2-2.5 3.2q-0.5 0.7-1.1 1.3-1.1 1.2-2.2 2.4-1 1-2.1 2-0.9 0.8-1.8 1.6c-0.7 0.5-1.4 1.1-2.1 1.7q-1 0.7-2 1.4c-1.2 0.8-2.3 1.6-3.6 2.3-1.3 0.8-2.7 1.5-4.1 2.2-0.9 0.5-1.9 1-2.9 1.4-1.5 0.6-3 1.1-4.5 1.7q-1.4 0.5-2.8 0.9-0.4 0.2-0.8 0.2c-0.1 0-0.3 0-0.4-0.1 0.1-0.1 0.1-0.2 0.1-0.3q1-1.2 1.9-2.3 0.9-1.1 1.8-2.2 1.1-1.2 2.2-2.4c0.3-0.4 0.6-0.7 1-1 0.2-0.2 0.6-0.2 0.8-0.3 2-0.7 3.8-1.6 5.5-2.8q1.5-1 2.9-2.1c1-0.7 1.9-1.4 2.7-2.2 1-0.9 1.9-1.9 2.9-2.8q1.2-1.3 2.4-2.6 0.9-1 1.7-2c0.4-0.5 1-0.6 1.5-0.9 1.1-0.5 2.2-1 3.3-1.4 1.5-0.6 3.1-1.1 4.6-1.6 0.2 0 0.4 0 0.6-0.1z" />
				<path id="Layer" class="s5"
					d="m214.1 356.1c0 0.1 0 0.1 0 0.2-0.3 1.1-0.6 2.2-0.9 3.3-0.4 1.2-0.8 2.4-1.3 3.6q-0.5 1.3-1 2.6-0.7 1.6-1.4 3.1c-0.6 1-1.1 2-1.7 3-0.8 1.3-1.7 2.6-2.6 3.8q-0.8 1.1-1.7 2.1-1 1.1-2.1 2-1.4 1.2-2.8 2.2c-0.6 0.4-1.3 0.7-1.9 1.1q-0.8 0.4-1.7 0.8c-0.6 0.2-1.1 0.4-1.7 0.6q-1.5 0.3-2.9 0.6c-0.5 0-1 0.1-1.5 0.1-0.3 0-0.4-0.2-0.3-0.5q0.4-0.8 0.8-1.6c0.1-0.2 0.2-0.4 0.3-0.6 0.1-0.4 0.4-0.5 0.7-0.6q0.8-0.4 1.6-0.8c0.6-0.4 1.3-0.8 1.9-1.2 0.5-0.3 1-0.7 1.5-1.1q0.7-0.6 1.4-1.2c0.4-0.4 0.8-0.8 1.2-1.2q1.4-1.5 2.6-3.2c0.8-1.3 1.6-2.6 2.2-4 0.5-1.2 1.1-2.3 1.5-3.5 0.3-1.1 0.5-2.2 0.8-3.3 0.1-0.6 0.6-0.8 1-1.2q1-0.8 2-1.6 1.1-0.7 2.2-1.4c1.2-0.7 2.4-1.4 3.6-2.1 0 0 0.1 0 0.2-0.1z" />
				<path id="Layer" class="s5"
					d="m191 308.7c0.2-0.6 0.3-1.1 0.4-1.6 0.4-1.1 0.7-2.2 1-3.3 0.3-0.8 0.8-1.5 1.3-2.1 0.6-0.5 1.2-1.2 1.7-1.8q1.3-1.3 2.7-2.8 0.5 0.7 0.9 1.4c0.6 0.9 1.1 1.7 1.7 2.6 0.3 0.5 0.1 0.9 0 1.4q-0.3 1.9-0.6 3.8c0 0.1-0.1 0.3-0.2 0.3-0.6 0.1-1.2 0.2-1.8 0.3q-1.1 0.2-2.3 0.5-1.1 0.3-2.2 0.6c-0.9 0.2-1.7 0.4-2.6 0.7z" />
				<path id="Layer" class="s5"
					d="m190.6 381c0.3-0.7 0.6-1.3 1-1.9q0.9-1.6 1.9-3.2 0.9-1.4 1.8-2.7 0.9-1.3 1.9-2.5 0.9-1.3 2-2.5 1-1.3 2.2-2.6c0.9-0.8 1.8-1.7 2.6-2.6 0.1 0 0.2 0 0.3-0.1 0 0.1 0.1 0.2 0.1 0.3-0.2 0.8-0.4 1.5-0.6 2.3q-0.4 1.2-0.9 2.4c-0.7 1.5-1.4 3-2.4 4.3-0.8 1.1-1.5 2.3-2.4 3.3-0.9 1-1.9 1.8-2.9 2.7q-1 0.8-2 1.5c-0.8 0.5-1.6 0.9-2.4 1.4 0 0-0.1 0-0.2-0.1z" />
				<path id="Layer" class="s5"
					d="m185.4 319.9c-0.2 0.3-0.4 0.7-0.7 0.9q-0.6 0.7-1.2 1.3c-0.6 0.6-1.1 1.2-1.7 1.8q-1.4 1.4-2.9 2.8c-0.6 0.5-1.3 1-1.9 1.5-0.6 0.4-1.1 0.9-1.6 1.3q-1.2 0.8-2.4 1.5-1.2 0.8-2.6 1.4c-0.3 0.2-0.7 0.3-1.1 0.5q-0.1 0-0.2-0.1c0 0 0-0.1 0-0.2q1.3-1.2 2.6-2.5 1.2-1.1 2.4-2.1 1.2-1.1 2.5-2.1c1.2-0.9 2.4-1.9 3.6-2.7 1.4-1 2.8-1.9 4.3-2.8q0.4-0.3 0.9-0.6 0 0.1 0 0.1z" />
			</g>
			<g id="Layer">
				<path id="Layer" class="s7"
					d="m245.6 206.2c-3.5 25.6 7.5 46 11.4 52.4 3 5.1 18.3 30.6 49.4 38.1 35.3 8.4 68.3-11.6 85-32.8 11.8-15.1 15.2-30.5 16.2-36.6 1-5.6 5.4-35.2-14.8-62.3-2-2.6-25.9-33.6-65.1-33.4-42.7 0.2-76.9 37.4-82.1 74.5z" />
				<path id="Layer" class="s8" d="m245.3 209.3c16.6-4.4 34.1 5 39.3 20.9 5.4 16.2-3.5 34.1-20 40" />
				<path id="Layer" class="s8" d="m404.7 239.9c-13.5-10.6-33.2-9-44.6 3.5-11.6 12.7-10.8 32.6 1.9 44.5" />
				<path id="Layer" class="s8" d="m273.7 208.2c2.2-8 9.4-13.7 17.8-14.1 8.7-0.3 16.7 5.3 19.2 13.7" />
				<path id="Layer" class="s8" d="m345 216.6c4.6-7.1 13.2-10.5 21.2-8.4 8.5 2.2 14.5 9.8 14.4 18.6" />
				<path id="Layer" class="s8"
					d="m350.1 141.6c-1 0.7-11.3 7.8-17.7 4.2-7.2-4.1-6.6-20.4 1.6-28.5 8-7.9 22.8-8 24.9-3.9 1.9 3.7-5.7 13.7-15 15.1-10.2 1.5-20.3-7.7-22.6-17.4-2.6-11.2 4.8-24.2 18.5-29.4" />
				<path id="Layer" class="s8"
					d="m252.3 181.8c-6.3-3.6-13.4-4.1-17.3-0.9-5.9 4.8-2.9 16.3 2.4 22.5 2.6 3 5.6 4.6 7.7 5.5" />
				<path id="Layer" class="s8"
					d="m341.2 265.7c-2.3 12-14.1 19.9-26.4 17.7-12.3-2.3-20.3-13.9-18-26 2.3-12 13.3-14.1 25.6-11.8 12.2 2.2 21.1 8 18.8 20.1z" />
				<path id="Layer" class="s9" d="m310.6 245.3l-1.8 6.9 21.8 3.9 1.2-7.8" />
				<path id="Layer" class="s8"
					d="m409.5 211.6c7.3-0.5 13.9 2.1 15.9 6.7 3.1 6.8-4.7 15.8-12.3 19.1-3.6 1.5-7.1 1.7-9.3 1.6" />
			</g>
			<g id="Layer">
				<path id="Layer" class="s10"
					d="m72.7 112.5c0.2 0 0.4 0 0.5 0q1-0.2 2.1-0.4 1.2-0.2 2.4-0.5c0.6-0.1 1.2-0.3 1.8-0.5q0.8-0.2 1.6-0.5 0.8-0.2 1.6-0.5 1.1-0.5 2.2-0.9 0.7-0.3 1.4-0.7c0.7-0.4 1.4-0.7 2-1q1.1-0.7 2.2-1.4 1-0.6 2.1-1.3c0.4-0.3 0.8-0.7 1.3-1.1 0.7-0.6 1.5-1.2 2.3-1.9 0.6-0.5 1.2-1.1 1.8-1.7q0.6-0.6 1.1-1.3 0.9-1 1.7-1.9c0.2-0.2 0.3-0.6 0.6-0.6 0.2 0 0.4 0 0.5 0 0.9 0 1.8-0.1 2.6 0q1.8 0 3.5 0.2c0.7 0.1 1.3 0.3 1.9 0.5 0.3 0 0.5 0.2 0.5 0.5q0 0.1 0 0.2c0 0.9 0.1 1.8 0.1 2.6q0 1.6-0.2 3.1-0.1 1.5-0.4 2.9c-0.1 1-0.3 1.9-0.5 2.9q-0.2 0.9-0.4 1.7-0.2 0.8-0.5 1.7c-0.4 1.1-0.7 2.3-1.1 3.4q-0.7 1.7-1.4 3.4-0.5 1.2-1.1 2.3-0.5 1.1-1.1 2.3c-0.2 0.3-0.4 0.5-0.7 0.6q-1.2 0.5-2.2 1.1-1.4 0.7-2.8 1.6-1 0.6-1.9 1.3-1.2 0.8-2.3 1.7-0.7 0.5-1.4 1.2-0.4 0.4-0.8 0.8c-0.7 0.7-1.4 1.3-2.1 2q-0.7 0.8-1.4 1.7c-0.8 1-1.5 2-2.2 3-0.6 0.9-1.2 1.8-1.7 2.7q0 0 0.1 0 0 0.2 0 0.4 0 0 0.2 0.1 0.6 0.5 1.3 1.1c0.5 0.4 1.1 0.8 1.6 1.2 0.4 0.4 0.7 0.6 1.2 0.5 0.7 0 1.4 0 2 0q1.1-0.1 2.1-0.4c0.6-0.1 1.1-0.3 1.7-0.5q0.8-0.4 1.5-0.8 0.9-0.4 1.8-1 0.8-0.5 1.6-1.2 0.7-0.6 1.3-1.3c0.6-0.5 1.1-1 1.6-1.5q0.9-1.1 1.7-2.2 0.7-1 1.4-2c0.4-0.7 0.8-1.4 1.2-2.1q0.5-0.8 0.9-1.7 0.5-1 1-2 0.3-0.9 0.7-1.7c0.1-0.2 0.2-0.4 0.4-0.4 0.4-0.2 0.8-0.4 1.3-0.5q1.2-0.3 2.4-0.5c1.1-0.1 2.2-0.1 3.3 0.1q1.4 0.2 2.8 0.6c0.9 0.3 1.8 0.7 2.7 1.1 0 0 0.1 0.1 0.1 0.2q0 0.8-0.1 1.5-0.1 0.9-0.2 1.7c-0.1 0.5-0.3 1-0.4 1.4q-0.2 1.1-0.5 2.1-0.3 1.1-0.6 2.3c-0.1 0.6-0.2 1.1-0.4 1.6-0.1 0.7-0.3 1.3-0.5 2q-0.4 1.7-0.8 3.4-0.3 1.1-0.5 2.3-0.2 0.7-0.3 1.4-0.2 1.1-0.3 2.2c-0.1 0.9-0.1 1.7 0.1 2.5 0.2 0.9 0.5 1.8 0.9 2.7 0.2 0.5 0.4 1 0.7 1.5q0.5 0.8 1 1.7c0.1 0.2 0.3 0.4 0.4 0.6q0.3 0.6 0.7 1.1c0.1 0.2 0.2 0.3 0.3 0.5 0.4-1.1 1-2 1.7-2.8 0.7-0.8 1.5-1.6 2.2-2.4-0.1 0-0.1-0.1-0.2-0.1-0.2-0.5-0.4-0.9-0.5-1.4-0.2-0.8-0.4-1.6-0.5-2.4-0.1-1.1-0.2-2.2-0.2-3.3q0-1.4 0.1-2.8 0.1-1.2 0.2-2.4c0.1-0.7 0.3-1.3 0.4-2q0.1-1.1 0.3-2.1 0.2-1 0.4-2c0.2-0.9 0.4-1.9 0.6-2.8q0.3-1.4 0.6-2.7c0.2-0.6 0.3-1.1 0.5-1.6 0.1-0.5 0.3-0.9 0.1-1.4-0.4-0.8-0.7-1.6-1.1-2.4-0.4-0.9-1.1-1.5-1.9-2.1q-1.1-1-2.6-1.4-0.8-0.3-1.6-0.4c-0.6-0.1-1.2-0.3-1.8-0.3-1 0-2 0.1-3 0.1q-1 0.1-2 0.3c-0.9 0.1-1.7 0.3-2.6 0.5q0.1-0.3 0.3-0.5 0.3-0.8 0.6-1.6 0.4-0.9 0.8-1.9c0.3-0.6 0.5-1.2 0.7-1.8q0.8-2.1 1.4-4.2 0.3-1.2 0.6-2.4 0.2-0.6 0.2-1.2c0.2-0.8 0.3-1.6 0.4-2.4q0.1-1.2 0.1-2.5 0-1.1-0.1-2.3-0.2-1.1-0.7-2.1c-0.3-0.5-0.6-1-0.9-1.5q-0.6-0.9-1.2-1.7-0.7-0.8-1.4-1.5-0.5-0.5-1.1-0.9-0.7-0.5-1.5-1-0.8-0.5-1.6-0.8c-0.7-0.2-1.4-0.3-2-0.5-0.5-0.1-0.9-0.1-1.3-0.2q0 0 0-0.1 0.5-1.5 1-3.1c0-0.1 0-0.3 0-0.4q-0.3-0.6-0.6-1.2-0.5-1.1-1-2.2c-0.1-0.3-0.5-0.4-0.8-0.2q-0.7 0.6-1.5 1.2-1.1 0.9-2.1 1.8c-0.3 0.2-0.7 0.4-0.8 0.7q-0.1 0.4-0.3 0.8-0.6 1.4-1.2 2.8c-0.1 0.3-0.3 0.6-0.8 0.8q-1.5 0.4-2.9 0.9c-1.1 0.3-2.1 0.8-3.2 1.2q-0.8 0.3-1.5 0.7-0.7 0.3-1.4 0.7-0.8 0.4-1.6 0.8-0.6 0.3-1.2 0.7-1 0.5-2 1.1-0.8 0.6-1.6 1.1-0.9 0.6-1.8 1.3-0.6 0.5-1.3 1-0.8 0.7-1.7 1.4-0.8 0.6-1.5 1.3-0.7 0.6-1.3 1.3-0.8 0.7-1.6 1.6c-0.2 0.2-0.5 0.4-0.4 0.8 0 0.1 0.1 0.2 0.1 0.4 0.2 0.6 0.3 1.3 0.5 2 0.3 0.8 0.8 1.7 1.1 2.5z" />
				<path id="Layer" fill-rule="evenodd" class="s11"
					d="m72.7 112.5c-0.3-0.8-0.8-1.7-1.1-2.5-0.2-0.7-0.4-1.4-0.5-2q-0.1-0.2-0.1-0.4c-0.1-0.4 0.2-0.6 0.4-0.8q0.8-0.8 1.6-1.6 0.6-0.7 1.3-1.3 0.7-0.7 1.5-1.3 0.8-0.7 1.7-1.4 0.7-0.5 1.3-1 0.9-0.6 1.8-1.3 0.8-0.5 1.6-1.1 1-0.6 2-1.1 0.6-0.4 1.2-0.7 0.8-0.4 1.6-0.8 0.7-0.4 1.4-0.7 0.7-0.4 1.5-0.7c1-0.4 2.1-0.9 3.1-1.2q1.5-0.5 3-0.9c0.5-0.2 0.6-0.5 0.8-0.8q0.6-1.4 1.2-2.8 0.2-0.4 0.3-0.8c0.1-0.4 0.5-0.5 0.7-0.7q1.1-0.9 2.2-1.8 0.7-0.6 1.5-1.2c0.3-0.2 0.6-0.1 0.8 0.2q0.5 1.1 1 2.2 0.3 0.6 0.5 1.2c0.1 0.1 0.1 0.3 0 0.4q-0.4 1.6-0.9 3.1 0 0.1 0 0.1c0.4 0.1 0.8 0.1 1.2 0.2 0.7 0.2 1.4 0.3 2 0.5q0.9 0.3 1.6 0.8 0.9 0.5 1.6 1 0.6 0.4 1.1 0.9 0.7 0.7 1.3 1.5 0.7 0.8 1.3 1.7c0.3 0.5 0.5 1 0.8 1.5q0.6 1 0.8 2.1 0.1 1.2 0.1 2.3 0 1.3-0.1 2.5c-0.1 0.8-0.2 1.6-0.4 2.4q-0.1 0.6-0.2 1.2c-0.2 0.8-0.4 1.6-0.6 2.4q-0.7 2.1-1.4 4.2c-0.2 0.6-0.4 1.2-0.7 1.8q-0.4 1-0.8 1.9-0.3 0.8-0.7 1.6-0.1 0.2-0.2 0.5c0.9-0.2 1.7-0.4 2.6-0.5q1-0.2 2-0.3 1.5-0.1 3-0.1c0.6 0.1 1.2 0.2 1.8 0.3q0.8 0.2 1.6 0.4 1.5 0.5 2.6 1.4c0.8 0.6 1.5 1.3 1.9 2.1 0.4 0.8 0.7 1.6 1.1 2.4 0.2 0.5 0 0.9-0.1 1.4-0.2 0.5-0.3 1-0.5 1.6q-0.3 1.3-0.6 2.7-0.3 1.4-0.6 2.8c-0.2 0.7-0.3 1.3-0.4 2q-0.2 1-0.3 2.1c-0.1 0.7-0.3 1.4-0.4 2q-0.1 1.2-0.2 2.4-0.1 1.4-0.1 2.8c0 1.1 0 2.2 0.2 3.3 0 0.8 0.3 1.6 0.5 2.4 0.1 0.5 0.3 0.9 0.5 1.4 0 0 0.1 0.1 0.2 0.1-0.7 0.8-1.5 1.6-2.2 2.4-0.7 0.8-1.3 1.7-1.7 2.8q-0.2-0.2-0.3-0.5-0.4-0.5-0.7-1.1c-0.1-0.2-0.3-0.4-0.4-0.6q-0.5-0.9-1-1.7c-0.3-0.5-0.6-1-0.7-1.5-0.4-0.9-0.7-1.8-0.9-2.7-0.2-0.8-0.2-1.6-0.1-2.5q0.1-1.1 0.3-2.2 0.1-0.7 0.3-1.4 0.2-1.2 0.5-2.3 0.3-1.7 0.8-3.4 0.2-1 0.5-2c0.2-0.5 0.3-1 0.4-1.6q0.3-1.1 0.6-2.3 0.2-1 0.5-2 0.2-0.8 0.3-1.5 0.2-0.8 0.3-1.7c0.1-0.5 0.1-1 0.1-1.5 0-0.1-0.1-0.2-0.2-0.2-0.8-0.4-1.7-0.8-2.6-1.1q-1.4-0.4-2.8-0.6c-1.1-0.2-2.2-0.2-3.3-0.1q-1.2 0.2-2.4 0.5c-0.5 0.1-0.9 0.3-1.3 0.5-0.2 0-0.3 0.2-0.4 0.4-0.3 0.6-0.5 1.2-0.8 1.7q-0.4 1-0.9 2-0.4 0.9-1 1.8c-0.3 0.6-0.7 1.4-1.2 2q-0.6 1-1.3 2-0.8 1.1-1.8 2.2c-0.4 0.5-0.9 1-1.5 1.6q-0.6 0.6-1.3 1.2-0.8 0.7-1.6 1.2-0.9 0.6-1.8 1.1-0.7 0.4-1.6 0.7c-0.5 0.2-1.1 0.4-1.6 0.5q-1 0.3-2.1 0.4c-0.6 0.1-1.3 0-2 0.1-0.5 0-0.9-0.2-1.2-0.5-0.5-0.5-1.1-0.9-1.6-1.3q-0.7-0.6-1.3-1.1-0.2-0.1-0.2-0.1 0-0.2 0-0.4-0.1 0-0.1 0c0.5-0.9 1.1-1.8 1.6-2.7q1.1-1.5 2.3-3 0.7-0.9 1.4-1.7c0.7-0.6 1.4-1.3 2-2q0.5-0.4 0.9-0.8 0.7-0.6 1.4-1.2 1.1-0.9 2.3-1.7 0.9-0.7 1.9-1.3 1.4-0.8 2.7-1.6 1.1-0.6 2.3-1.1c0.3-0.1 0.5-0.3 0.6-0.6q0.7-1.1 1.2-2.3 0.6-1.1 1.1-2.3c0.5-1.1 0.9-2.2 1.4-3.4 0.4-1.1 0.7-2.3 1.1-3.4q0.3-0.8 0.5-1.7 0.2-0.8 0.4-1.7c0.2-0.9 0.4-1.9 0.5-2.9q0.3-1.4 0.4-2.9 0.1-1.5 0.2-3.1c0-0.8-0.1-1.7-0.2-2.6q0.1-0.1 0.1-0.2c0-0.3-0.2-0.5-0.5-0.5-0.6-0.2-1.3-0.4-1.9-0.5q-1.7-0.2-3.5-0.2c-0.8-0.1-1.7 0-2.6 0-0.2 0-0.3 0-0.5 0-0.4 0-0.4 0.4-0.6 0.6q-0.8 1-1.7 1.9-0.5 0.7-1.2 1.3c-0.5 0.6-1.1 1.2-1.7 1.8-0.8 0.6-1.6 1.2-2.4 1.9q-0.6 0.5-1.3 1-1 0.7-2 1.4-1.1 0.6-2.2 1.3c-0.6 0.3-1.3 0.7-2 1q-0.7 0.4-1.4 0.7-1.1 0.4-2.3 0.9-0.7 0.3-1.5 0.5c-0.5 0.2-1.1 0.4-1.7 0.5-0.5 0.2-1.1 0.4-1.7 0.5q-1.2 0.3-2.4 0.5-1.1 0.2-2.1 0.4c-0.1 0-0.3 0-0.5 0zm-0.2-1.1c0.1 0 0.2-0.1 0.2-0.1q0.4-0.4 0.8-0.7 1.4-1.3 2.8-2.6 0.8-0.7 1.7-1.4 1.3-1 2.6-1.9 1-0.8 2.1-1.5c0.5-0.4 1.1-0.7 1.6-1.1q0.6-0.3 1.2-0.7 0.9-0.5 1.7-0.9 1-0.6 2-1.1 1.4-0.6 2.8-1.2 0.8-0.3 1.5-0.6 1.1-0.4 2.2-0.7 0.7-0.2 1.3-0.3 0.7-0.2 1.3-0.3 1-0.2 2-0.3 1-0.2 1.9-0.2 1.2-0.1 2.4-0.1 0.9 0 1.8 0.1 1.1 0.1 2.2 0.3c0.6 0.1 1.1 0.3 1.7 0.5q1.3 0.4 2.4 1.2c0.9 0.5 1.7 1.2 2.3 2.2 0 0.1 0.2 0.2 0.2 0.3q0.1 0 0.1-0.1c-0.2-0.4-0.3-0.8-0.5-1.2q-0.3-0.6-0.7-1.2c-0.4-0.7-0.9-1.4-1.4-2-0.3-0.5-0.7-0.8-1.1-1.2q-1.1-1.1-2.4-1.9-0.8-0.5-1.7-0.8c-0.8-0.4-1.7-0.6-2.6-0.7-0.5 0-0.9 0-1.3 0-0.4 0-0.8-0.1-1.2 0q-0.9 0-1.9 0.1c-0.7 0.1-1.4 0.2-2.1 0.3-0.6 0.1-1.3 0.2-2 0.3q-1.2 0.3-2.4 0.8-1.5 0.5-3 1.1-1.3 0.5-2.5 1.1-1 0.4-1.9 0.9-1 0.5-2 1.1-0.5 0.3-1.1 0.6c-0.3 0.2-0.7 0.4-1.1 0.7q-0.6 0.4-1.2 0.8-0.8 0.5-1.6 1-0.7 0.6-1.4 1.1c-0.6 0.4-1.2 0.9-1.8 1.4-0.5 0.4-0.9 0.8-1.4 1.3-0.7 0.5-1.3 1.1-1.9 1.7-0.6 0.5-1.1 1.1-1.6 1.7-0.1 0.1-0.2 0.2-0.2 0.3q0 0.4 0.1 0.8 0.2 0.6 0.4 1.3c0.2 0.6 0.4 1.2 0.7 1.8zm12.2 30.4c0.5 0.3 0.9 0.6 1.3 0.9 0.4 0.4 0.9 0.7 1.3 1.1 0.3 0.3 0.3 0.3 0.5 0 0.5-0.8 1-1.5 1.6-2.3q1.1-1.5 2.3-3 1-1.2 2-2.3 0.9-1 1.9-1.9c0.5-0.5 0.9-1 1.4-1.4q1.2-0.9 2.4-1.9 1.1-0.8 2.2-1.6 0.7-0.4 1.4-0.8 0.8-0.5 1.6-0.9c0.7-0.3 1.4-0.7 2.1-1 0.6-0.3 1.2-0.5 1.9-0.7q1.3-0.5 2.7-0.9c0.9-0.3 1.8-0.4 2.8-0.4 0.9-0.1 1.9 0 2.8 0.2 0.7 0.1 1.5 0.2 2.2 0.4q1.1 0.4 2.2 0.9c0.5 0.1 0.9 0.4 1.3 0.6q0.6 0.4 1.1 0.8 1 0.8 2 1.7 0.4 0.3 0.7 0.7c0.2-0.5 0.2-0.9 0.4-1.3q0.4-0.8 0-1.7c-0.4-1-0.9-2-1.7-2.9q-0.8-1-1.9-1.6c-0.5-0.3-1.1-0.5-1.6-0.7-1.1-0.4-2.2-0.5-3.4-0.6q-1.4 0-2.9 0.1-1.6 0.2-3.2 0.5c-0.8 0.2-1.6 0.5-2.4 0.7q-1.5 0.5-3 1-1 0.4-1.9 0.8-1.1 0.5-2.2 1-1 0.5-2 1-1.1 0.6-2.2 1.3-1 0.7-2.1 1.4-0.7 0.5-1.5 1-1.1 0.9-2.2 1.9-0.7 0.7-1.4 1.4-0.8 0.8-1.5 1.6-0.6 0.6-1.1 1.2-0.9 1.1-1.7 2.3-0.7 0.8-1.2 1.7-0.5 0.8-1 1.7zm37.8-14.4c0 0.3 0 0.7 0 1q-0.2 1-0.4 2-0.3 1.3-0.6 2.7c-0.2 0.7-0.4 1.4-0.5 2.1q-0.4 1.6-0.9 3.3-0.2 1-0.4 1.9-0.2 0.9-0.5 1.8-0.1 0.8-0.3 1.6c-0.2 1-0.5 2-0.6 3-0.2 1.2-0.5 2.5-0.4 3.8q0.1 1 0.4 2 0.3 0.8 0.6 1.5 0.4 0.9 0.9 1.8 0.4 0.7 0.8 1.5 0.5 0.6 0.9 1.4c1-1.7 2.2-3.1 3.5-4.3q-0.3-1.1-0.6-2.1-0.2-0.6-0.3-1.3-0.2-1.2-0.2-2.4-0.1-1.1 0-2.2 0-1.1 0.1-2.1 0-0.9 0.1-1.8 0.1-0.9 0.2-1.8 0.2-1 0.3-2.1 0.2-0.8 0.4-1.7 0.2-1 0.4-2.1 0.2-0.9 0.4-1.9 0.2-0.9 0.4-1.8c0-0.2 0.2-0.5-0.1-0.8q-0.2-0.2-0.5-0.5-0.7-0.7-1.4-1.3c-0.5-0.4-1.1-0.8-1.6-1.2zm-11.7-30.2c0 0.2 0 0.3 0 0.3 0 0.8 0.1 1.6 0.1 2.4q0 1.2-0.1 2.4c-0.1 0.8-0.1 1.7-0.2 2.5q-0.2 1.5-0.5 3-0.3 1.4-0.7 2.8c-0.3 1.3-0.6 2.6-1.1 3.8-0.5 1.5-1.1 3-1.6 4.4-0.4 0.9-0.8 1.7-1.2 2.6-0.3 0.6-0.6 1.1-0.9 1.7q-0.2 0.4-0.4 0.8c0.3 0 0.5-0.1 0.7-0.2q1-0.4 1.9-0.7 0.7-0.3 1.4-0.5c0.5-0.2 1-0.3 1.4-0.4 0.3-0.1 0.6-0.1 0.7-0.4 0.3-0.7 0.6-1.3 0.8-2 0.4-0.9 0.8-1.8 1.2-2.7q0.6-1.6 1.1-3.1 0.6-1.9 1.1-3.7 0.4-1.6 0.6-3.1 0.2-1.4 0.3-2.8c0.1-0.6 0.1-1.2 0-1.8-0.1-0.6-0.3-1.1-0.5-1.6-0.3-0.5-0.6-1-1-1.5-0.5-0.5-1.1-1-1.7-1.4-0.4-0.3-0.9-0.5-1.4-0.8zm-10.4-0.7q-0.2 0-0.4 0c-1.1 0.2-2.3 0.4-3.4 0.7q-1.2 0.3-2.4 0.7c-0.4 0.1-0.8 0.1-1.2 0.5q-0.6 0.6-1.3 1.2-1 0.8-2 1.6c-0.7 0.5-1.4 1.1-2.2 1.7q-1 0.7-2.1 1.3-1.1 0.6-2.2 1.2c-1.3 0.6-2.7 1.1-4.1 1.4-0.2 0-0.5 0-0.6 0.1q-0.4 0.3-0.8 0.6-0.9 0.8-1.8 1.5-0.7 0.7-1.5 1.4-0.7 0.7-1.5 1.4c0 0.1-0.1 0.2-0.1 0.2 0.1 0.1 0.2 0.1 0.3 0.1q0.3 0 0.5 0 1.1-0.2 2.1-0.4 1.7-0.4 3.3-0.8 1.1-0.3 2.1-0.7c1.1-0.3 2.1-0.7 3.1-1.2 1-0.3 1.8-0.8 2.7-1.2q0.8-0.4 1.6-0.8 0.8-0.5 1.6-1 0.7-0.5 1.4-1 0.8-0.5 1.6-1.1 1-0.8 1.9-1.5 0.4-0.4 0.8-0.8c0.7-0.7 1.4-1.3 2.1-2q0.7-0.8 1.4-1.7c0.4-0.5 0.8-0.9 1.1-1.4zm8.1 30q0 0.1 0 0.1 0 0 0 0zm-0.1 0q-1.4 0.5-2.7 1.1-0.9 0.4-1.7 0.8-0.8 0.4-1.5 0.9c-0.3 0.2-0.7 0.3-0.9 0.7-0.2 0.8-0.5 1.6-0.8 2.3-0.4 0.8-0.9 1.5-1.4 2.3-0.5 0.9-1.2 1.8-1.9 2.6q-1 1-2.1 2-0.5 0.4-0.9 0.7-0.6 0.4-1.2 0.7c-0.4 0.3-0.7 0.5-1.1 0.7q-0.7 0.3-1.5 0.6-0.5 0.2-1.1 0.4c-0.3 0.1-0.5 0.1-0.6 0.4 0 0.1-0.1 0.3-0.2 0.4q-0.4 0.5-0.8 1c-0.1 0.2 0 0.4 0.2 0.4q0.5 0.1 1.1 0 1 0 2-0.1 0.7-0.1 1.3-0.3 0.6-0.1 1.2-0.4c0.5-0.1 1-0.3 1.4-0.5q1.2-0.6 2.2-1.3 0.9-0.6 1.7-1.2 0.7-0.6 1.3-1.3 1.2-1.2 2.2-2.4 0.8-1 1.5-2 0.7-1 1.3-2 0.5-0.9 0.9-1.7 0.7-1.2 1.3-2.4c0.3-0.7 0.6-1.5 0.9-2.2q0-0.1 0-0.2 0 0-0.1 0zm-11.5-35.2q1-0.1 1.9-0.2 0.8-0.1 1.6-0.2 0.8-0.1 1.7-0.2c0.4 0 0.8 0 1.2 0 0.1 0 0.2-0.1 0.2-0.2q0.4-1.3 0.8-2.6c0.1-0.3 0.2-0.7 0.1-1q-0.5-1-0.9-1.9-0.2-0.6-0.5-1.1-1.1 0.9-2.2 1.7c-0.4 0.4-0.9 0.8-1.3 1.1-0.5 0.4-0.9 0.8-1.1 1.3-0.3 0.8-0.7 1.5-1 2.3q-0.2 0.4-0.5 1zm-7.1 50.4c0 0 0.1 0.1 0.1 0.1 0.6-0.3 1.2-0.5 1.8-0.8q0.8-0.4 1.6-0.9c0.7-0.5 1.5-1 2.2-1.6 0.7-0.6 1.4-1.3 2.1-2 0.8-0.9 1.4-1.8 2-2.8q0.5-0.8 0.9-1.6c0.2-0.5 0.4-1 0.6-1.6 0 0 0-0.1 0-0.1-0.1 0-0.2 0-0.2 0q-1.1 0.8-2.1 1.6-0.9 0.7-1.8 1.5-0.8 0.8-1.6 1.6-0.8 0.8-1.6 1.6-0.8 0.8-1.5 1.7-0.8 1-1.6 2-0.5 0.6-0.9 1.3zm2.2-43.1c0 0-0.1 0-0.1 0q-0.3 0.1-0.7 0.3c-1 0.5-2.1 1-3.2 1.5-0.9 0.5-1.8 1-2.8 1.6q-0.9 0.6-1.9 1.2-0.9 0.6-1.9 1.3-1 0.7-2 1.5c0 0 0 0.1 0 0.1 0 0 0 0.1 0.1 0.1 0.3-0.1 0.6-0.2 0.8-0.3q1-0.3 2-0.7 0.9-0.4 1.8-0.8c0.4-0.2 0.8-0.5 1.2-0.8 0.5-0.3 1-0.5 1.5-0.9q1.1-0.8 2.3-1.6c0.4-0.4 0.9-0.8 1.3-1.1q0.5-0.4 1-0.8 0.3-0.3 0.6-0.6z" />
				<path id="Layer" class="s10"
					d="m72.5 111.4q-0.3-0.9-0.7-1.8-0.2-0.7-0.3-1.3c-0.1-0.3-0.2-0.5-0.2-0.8 0-0.1 0.2-0.2 0.3-0.3q0.7-0.9 1.5-1.7c0.6-0.6 1.3-1.2 1.9-1.7 0.5-0.5 1-0.9 1.5-1.3 0.6-0.5 1.2-1 1.8-1.4q0.6-0.6 1.3-1.1c0.5-0.3 1.1-0.7 1.6-1q0.6-0.5 1.2-0.9 0.6-0.3 1.2-0.6 0.5-0.4 1.1-0.7c0.6-0.3 1.3-0.7 1.9-1q1-0.5 1.9-0.9 1.3-0.6 2.6-1.1 1.4-0.6 2.9-1.1 1.2-0.5 2.5-0.8c0.6-0.2 1.3-0.2 2-0.3q1-0.2 2-0.3 1-0.1 2-0.2c0.3 0 0.7 0.1 1.1 0.1 0.4 0 0.9 0 1.3 0q1.4 0.1 2.7 0.7c0.5 0.2 1.1 0.5 1.6 0.8q1.4 0.8 2.5 1.9c0.4 0.4 0.8 0.7 1.1 1.2 0.5 0.6 0.9 1.3 1.4 2q0.4 0.6 0.7 1.2c0.2 0.4 0.3 0.8 0.5 1.2q-0.1 0-0.1 0.1c-0.1-0.1-0.2-0.2-0.3-0.4-0.6-0.9-1.4-1.6-2.2-2.2q-1.2-0.7-2.5-1.1c-0.5-0.2-1.1-0.4-1.7-0.5q-1.1-0.2-2.2-0.3-0.8-0.1-1.7-0.1-1.2 0-2.4 0.1-1 0-1.9 0.1-1 0.2-2.1 0.4-0.6 0.1-1.2 0.2-0.7 0.2-1.3 0.4-1.1 0.3-2.3 0.7-0.7 0.3-1.4 0.6-1.5 0.6-2.9 1.2c-0.7 0.3-1.3 0.7-2 1q-0.8 0.5-1.6 1-0.6 0.3-1.2 0.7-0.8 0.5-1.7 1.1-1 0.7-2.1 1.5-1.3 0.9-2.6 1.9-0.8 0.7-1.6 1.4-1.5 1.3-2.9 2.6-0.3 0.3-0.7 0.7c-0.1 0-0.1 0-0.2 0.1z" />
				<path id="Layer" class="s10"
					d="m84.8 141.8q0.4-0.9 0.9-1.7 0.6-0.9 1.2-1.8 0.8-1.1 1.7-2.2 0.5-0.6 1.1-1.2 0.7-0.9 1.5-1.7 0.7-0.7 1.5-1.3 1-1 2.2-1.9 0.7-0.6 1.4-1.1 1.1-0.7 2.1-1.3c0.8-0.5 1.5-0.9 2.2-1.3 0.6-0.4 1.3-0.7 2-1q1.1-0.6 2.2-1.1 1-0.4 1.9-0.7 1.5-0.5 3-1c0.8-0.2 1.6-0.5 2.4-0.7q1.6-0.3 3.2-0.5 1.5-0.2 3-0.1c1.1 0 2.2 0.2 3.3 0.6 0.5 0.2 1.1 0.4 1.6 0.7q1.1 0.6 1.9 1.6c0.8 0.8 1.3 1.9 1.7 2.9q0.4 0.8 0 1.7c-0.1 0.4-0.2 0.8-0.4 1.3-0.2-0.3-0.4-0.5-0.6-0.7q-1-0.9-2.1-1.7-0.5-0.5-1-0.8-0.7-0.4-1.3-0.7-1.1-0.4-2.3-0.8c-0.7-0.2-1.4-0.3-2.2-0.4q-1.4-0.3-2.8-0.2c-0.9 0-1.9 0.1-2.8 0.4q-1.3 0.4-2.7 0.9c-0.6 0.2-1.3 0.4-1.9 0.7q-1 0.5-2 1-0.9 0.4-1.7 0.9-0.7 0.4-1.4 0.8-1.1 0.8-2.2 1.6-1.2 0.9-2.4 1.9c-0.4 0.4-0.9 0.9-1.4 1.3-0.6 0.7-1.2 1.3-1.9 2q-1 1.1-1.9 2.2-1.3 1.5-2.4 3.1c-0.5 0.7-1 1.5-1.5 2.3-0.2 0.3-0.2 0.3-0.5 0-0.5-0.4-0.9-0.7-1.4-1.1-0.4-0.3-0.8-0.6-1.3-0.9z" />
				<path id="Layer" class="s10"
					d="m122.6 127.3c0.5 0.5 1.1 0.9 1.6 1.3q0.7 0.6 1.4 1.3 0.3 0.2 0.5 0.5c0.3 0.3 0.2 0.5 0.1 0.8q-0.2 0.9-0.4 1.8-0.2 0.9-0.4 1.9-0.2 1-0.4 2.1-0.2 0.8-0.4 1.7-0.1 1-0.3 2.1-0.1 0.9-0.2 1.8-0.1 0.9-0.1 1.7-0.1 1.1-0.1 2.2-0.1 1.1 0 2.2 0 1.2 0.2 2.3 0.1 0.7 0.3 1.4 0.3 1 0.6 2.1c-1.3 1.2-2.5 2.6-3.5 4.2-0.3-0.5-0.6-0.9-0.9-1.4q-0.4-0.7-0.8-1.4-0.5-0.9-0.9-1.8-0.3-0.8-0.6-1.5-0.3-1-0.4-2c-0.1-1.3 0.2-2.6 0.4-3.9 0.1-1 0.4-1.9 0.6-2.9q0.2-0.8 0.3-1.6 0.3-0.9 0.5-1.8 0.2-1 0.4-1.9 0.5-1.7 0.9-3.4c0.1-0.7 0.3-1.3 0.5-2q0.3-1.4 0.6-2.8 0.2-1 0.4-2c0-0.3 0-0.6 0-1z" />
				<path id="Layer" class="s10"
					d="m110.9 97.2c0.5 0.3 1 0.5 1.4 0.8 0.6 0.4 1.2 0.9 1.7 1.4 0.4 0.4 0.7 1 0.9 1.5 0.3 0.5 0.5 1 0.6 1.5 0.1 0.6 0.1 1.2 0 1.8q-0.1 1.4-0.3 2.8-0.2 1.6-0.6 3.1-0.5 1.9-1.1 3.7-0.5 1.6-1.1 3.1c-0.4 1-0.8 1.9-1.2 2.8q-0.4 0.9-0.8 1.9c-0.1 0.4-0.5 0.3-0.7 0.4-0.5 0.2-0.9 0.3-1.4 0.4q-0.7 0.3-1.4 0.5-1 0.4-1.9 0.8c-0.2 0-0.4 0.1-0.7 0.2q0.2-0.4 0.4-0.8c0.3-0.6 0.6-1.2 0.9-1.8q0.6-1.2 1.1-2.5c0.6-1.5 1.2-2.9 1.7-4.4 0.4-1.3 0.8-2.5 1.1-3.8q0.4-1.4 0.6-2.8 0.3-1.5 0.6-3.1c0.1-0.8 0.1-1.6 0.2-2.4 0-0.8 0.1-1.7 0.1-2.5 0-0.7-0.1-1.5-0.2-2.3 0-0.1 0.1-0.2 0.1-0.3z" />
				<path id="Layer" class="s10"
					d="m100.5 96.4c-0.4 0.5-0.7 1-1.1 1.4q-0.7 0.9-1.5 1.7c-0.6 0.7-1.3 1.4-2 2q-0.4 0.4-0.9 0.8-0.9 0.8-1.8 1.5-0.8 0.6-1.6 1.2-0.7 0.5-1.4 0.9-0.8 0.5-1.6 1-0.8 0.4-1.6 0.8c-0.9 0.4-1.8 0.9-2.7 1.3q-1.5 0.6-3.1 1.2-1 0.4-2.1 0.7-1.7 0.4-3.3 0.7-1.1 0.2-2.1 0.4-0.3 0.1-0.6 0.1c0 0-0.1-0.1-0.2-0.1 0-0.1 0-0.2 0.1-0.2q0.7-0.8 1.5-1.5 0.7-0.7 1.5-1.3 0.9-0.8 1.8-1.5 0.3-0.4 0.7-0.6c0.2-0.1 0.4-0.1 0.7-0.2 1.4-0.2 2.8-0.7 4.1-1.4q1.1-0.6 2.2-1.2 1.1-0.6 2.1-1.3c0.7-0.5 1.5-1.1 2.2-1.7q1-0.8 2-1.6 0.7-0.6 1.3-1.2c0.3-0.3 0.8-0.4 1.2-0.5q1.2-0.4 2.4-0.7c1.1-0.3 2.2-0.4 3.4-0.7 0.1 0 0.2 0 0.4 0z" />
				<path id="Layer" class="s10"
					d="m108.6 126.5q0 0.1 0 0.2c-0.3 0.7-0.6 1.5-1 2.2q-0.6 1.2-1.2 2.4-0.5 0.9-1 1.7-0.6 1-1.3 2c-0.4 0.7-0.9 1.4-1.4 2q-1 1.2-2.2 2.4-0.6 0.7-1.4 1.3-0.7 0.7-1.6 1.2-1.1 0.7-2.2 1.3c-0.4 0.2-0.9 0.4-1.4 0.6q-0.6 0.2-1.2 0.3-0.7 0.2-1.3 0.3-1 0.1-2.1 0.2-0.5 0-1-0.1c-0.2 0-0.3-0.2-0.2-0.3q0.4-0.6 0.8-1.1c0-0.1 0.1-0.2 0.2-0.4 0.1-0.2 0.3-0.3 0.5-0.3q0.6-0.2 1.2-0.5 0.7-0.2 1.5-0.6c0.3-0.2 0.7-0.4 1.1-0.6q0.6-0.4 1.1-0.8c0.4-0.2 0.7-0.5 1-0.7q1.1-0.9 2.1-2c0.7-0.8 1.4-1.6 1.9-2.6 0.5-0.7 1-1.5 1.4-2.3 0.3-0.7 0.5-1.5 0.8-2.2 0.2-0.4 0.5-0.5 0.8-0.7q0.8-0.5 1.6-1 0.8-0.4 1.6-0.8 1.4-0.6 2.8-1.1 0 0 0.1 0z" />
				<path id="Layer" class="s10"
					d="m97 91.3c0.1-0.4 0.3-0.7 0.4-1q0.6-1.1 1-2.2c0.3-0.6 0.7-1 1.2-1.3 0.4-0.4 0.8-0.8 1.3-1.1q1-0.9 2.2-1.8 0.2 0.6 0.5 1.1 0.4 1 0.8 1.9c0.2 0.4 0.1 0.7 0 1q-0.4 1.3-0.8 2.7c0 0-0.1 0.1-0.2 0.1-0.4 0-0.9 0-1.3 0.1q-0.8 0-1.6 0.1-0.8 0.1-1.7 0.2c-0.6 0.1-1.2 0.2-1.8 0.3z" />
				<path id="Layer" class="s10"
					d="m89.8 141.8q0.5-0.7 0.9-1.3 0.8-1 1.6-2 0.8-0.9 1.6-1.8 0.7-0.8 1.5-1.6 0.8-0.8 1.6-1.5 0.9-0.8 1.8-1.6 1.1-0.8 2.1-1.6c0.1 0 0.1 0 0.2 0 0 0.1 0.1 0.1 0 0.2q-0.3 0.8-0.6 1.5-0.4 0.8-0.9 1.6c-0.6 1-1.2 2-2 2.8-0.7 0.7-1.3 1.5-2 2.1-0.7 0.6-1.5 1.1-2.3 1.6q-0.7 0.5-1.6 0.9c-0.5 0.3-1.1 0.5-1.7 0.7-0.1 0-0.1 0-0.2 0z" />
				<path id="Layer" class="s10"
					d="m92 98.7q-0.3 0.3-0.6 0.5-0.4 0.4-0.9 0.8-0.7 0.6-1.4 1.1-1.1 0.9-2.3 1.7c-0.4 0.3-1 0.6-1.5 0.9-0.4 0.2-0.8 0.5-1.2 0.7q-0.9 0.5-1.8 0.9-0.9 0.4-1.9 0.7c-0.3 0.1-0.6 0.1-0.9 0.2q0 0-0.1 0c0-0.1 0-0.1 0.1-0.2q1-0.7 2-1.5 0.9-0.6 1.9-1.3 0.9-0.6 1.9-1.2 1.4-0.8 2.8-1.6c1-0.5 2.1-1 3.2-1.5q0.3-0.1 0.7-0.3 0 0 0 0.1z" />
				<g id="Layer">
					<path id="Layer" class="s12"
						d="m14.4 236.7c0.2 0 0.3 0 0.5-0.1q1.1-0.1 2.2-0.3 1.3-0.3 2.6-0.6c0.7-0.1 1.2-0.3 1.9-0.5q0.9-0.2 1.8-0.5c0.5-0.2 1.1-0.4 1.6-0.6 0.8-0.4 1.6-0.7 2.4-1 0.5-0.2 1-0.5 1.5-0.7 0.7-0.4 1.5-0.7 2.2-1.1q1.1-0.7 2.2-1.4 1.2-0.7 2.3-1.5c0.5-0.3 0.9-0.7 1.4-1.1 0.8-0.6 1.6-1.3 2.4-2 0.7-0.6 1.3-1.2 2-1.9q0.6-0.6 1.2-1.3c0.6-0.7 1.2-1.4 1.8-2.1 0.2-0.3 0.3-0.6 0.6-0.6q0.3 0 0.6-0.1c0.9 0 1.9 0 2.8 0q1.9 0.1 3.7 0.3c0.7 0.1 1.3 0.3 2 0.5 0.3 0 0.5 0.2 0.5 0.5q0 0.2 0 0.3c0 0.9 0.1 1.8 0.1 2.7q0 1.7-0.2 3.3-0.1 1.6-0.4 3.1c-0.1 1.1-0.4 2.1-0.6 3.1q-0.1 0.9-0.4 1.9-0.2 0.8-0.5 1.7c-0.4 1.3-0.8 2.5-1.2 3.7q-0.7 1.8-1.5 3.6-0.5 1.3-1.1 2.4-0.6 1.3-1.2 2.5c-0.2 0.3-0.4 0.5-0.8 0.7q-1.2 0.5-2.3 1.1-1.5 0.8-2.9 1.7-1.1 0.7-2.1 1.4-1.2 0.9-2.4 1.8-0.8 0.6-1.5 1.3-0.5 0.4-1 0.9c-0.7 0.7-1.4 1.4-2.1 2.2q-0.8 0.8-1.5 1.7c-0.9 1.1-1.7 2.2-2.4 3.3-0.7 0.9-1.2 1.9-1.8 2.8q0 0 0.1 0 0 0.2 0 0.4c0 0 0.1 0.1 0.2 0.1q0.7 0.6 1.4 1.2c0.6 0.5 1.1 0.9 1.7 1.3 0.4 0.4 0.8 0.6 1.3 0.6 0.7-0.1 1.4 0 2.1-0.1q1.1-0.1 2.2-0.4c0.6-0.1 1.2-0.4 1.8-0.6q0.9-0.3 1.7-0.7 1-0.5 1.9-1.1 0.8-0.6 1.6-1.3 0.8-0.7 1.5-1.4c0.6-0.5 1.1-1.1 1.6-1.7q1-1.1 1.9-2.3 0.8-1 1.4-2.1c0.5-0.7 0.9-1.5 1.3-2.2q0.6-0.9 1-1.9 0.6-1 1-2.1c0.3-0.6 0.6-1.2 0.9-1.9 0-0.1 0.2-0.3 0.4-0.4 0.4-0.2 0.9-0.4 1.3-0.5q1.3-0.3 2.7-0.5c1.1-0.2 2.3-0.1 3.4 0.1q1.6 0.2 3 0.6c1 0.4 1.9 0.8 2.9 1.2 0 0 0.1 0.2 0.1 0.2q0 0.8 0 1.6-0.2 1-0.3 1.9-0.2 0.7-0.4 1.5-0.3 1.1-0.6 2.2-0.3 1.2-0.6 2.5-0.2 0.8-0.4 1.7c-0.2 0.7-0.4 1.4-0.6 2.1q-0.4 1.8-0.8 3.6-0.3 1.3-0.6 2.5-0.1 0.7-0.3 1.5-0.1 1.2-0.3 2.4c-0.1 0.8-0.1 1.7 0.1 2.6 0.2 1 0.6 2 1 2.9 0.2 0.5 0.5 1 0.7 1.6q0.5 0.9 1.1 1.8c0.1 0.2 0.3 0.4 0.4 0.7q0.4 0.6 0.7 1.2c0.1 0.1 0.3 0.3 0.4 0.5 0.4-1.2 1.1-2.1 1.8-3 0.8-0.9 1.6-1.8 2.3-2.6 0 0-0.1-0.1-0.1-0.1-0.2-0.5-0.5-1-0.6-1.5-0.2-0.9-0.5-1.7-0.6-2.6-0.1-1.2-0.1-2.3-0.1-3.5q0-1.5 0.1-3 0.1-1.2 0.2-2.5c0.1-0.7 0.3-1.5 0.4-2.2 0.1-0.8 0.1-1.5 0.3-2.2q0.2-1.1 0.4-2.2 0.3-1.5 0.7-3 0.3-1.4 0.7-2.9c0.1-0.5 0.3-1.1 0.4-1.7 0.1-0.5 0.4-0.9 0.1-1.4-0.3-0.9-0.6-1.8-1.1-2.6-0.5-0.9-1.2-1.6-2-2.3q-1.3-0.9-2.8-1.5-0.9-0.2-1.8-0.4c-0.6-0.1-1.2-0.2-1.9-0.3q-1.6 0-3.2 0.1-1 0.1-2.1 0.3c-0.9 0.2-1.8 0.4-2.7 0.6q0.1-0.3 0.2-0.6 0.4-0.8 0.7-1.7 0.5-1 0.9-2c0.2-0.6 0.5-1.3 0.7-1.9q0.8-2.2 1.5-4.5c0.2-0.8 0.4-1.7 0.7-2.6q0.1-0.6 0.2-1.2c0.1-0.9 0.3-1.8 0.4-2.6q0.1-1.3 0.1-2.6 0-1.3-0.1-2.5-0.2-1.2-0.8-2.2c-0.3-0.6-0.6-1.2-0.9-1.7q-0.6-0.9-1.4-1.8-0.6-0.8-1.4-1.5-0.5-0.6-1.2-1-0.8-0.6-1.6-1.1-0.8-0.5-1.7-0.8c-0.7-0.3-1.5-0.4-2.2-0.6-0.4-0.1-0.9-0.1-1.3-0.2q0 0 0-0.1 0.5-1.7 1-3.3c0-0.2 0.1-0.3 0-0.4q-0.3-0.7-0.6-1.3-0.5-1.2-1-2.3c-0.2-0.4-0.6-0.5-0.9-0.3q-0.8 0.7-1.6 1.3-1.2 0.9-2.3 1.9c-0.3 0.2-0.7 0.4-0.8 0.8q-0.2 0.4-0.3 0.8-0.7 1.5-1.3 3c-0.2 0.4-0.3 0.7-0.8 0.9q-1.6 0.4-3.2 0.9c-1.1 0.4-2.2 0.9-3.4 1.3q-0.8 0.4-1.6 0.8-0.8 0.3-1.5 0.7-0.8 0.4-1.7 0.9-0.6 0.3-1.2 0.7c-0.7 0.4-1.5 0.8-2.2 1.3q-0.9 0.5-1.7 1.1-1 0.7-1.9 1.3-0.7 0.6-1.4 1.1-0.9 0.7-1.8 1.5-0.8 0.7-1.6 1.4-0.8 0.7-1.5 1.4-0.8 0.8-1.6 1.7c-0.2 0.3-0.6 0.5-0.5 0.9q0.1 0.2 0.1 0.4c0.2 0.7 0.3 1.4 0.6 2.1 0.3 1 0.8 1.8 1.2 2.7z" />
					<path id="Layer" fill-rule="evenodd" class="s13"
						d="m14.4 236.7c-0.4-0.9-0.9-1.8-1.2-2.7-0.3-0.7-0.4-1.5-0.6-2.2 0-0.1-0.1-0.2-0.1-0.4-0.1-0.4 0.3-0.6 0.5-0.8q0.8-0.9 1.6-1.8 0.7-0.6 1.5-1.3 0.7-0.7 1.6-1.4 0.9-0.8 1.8-1.5 0.7-0.6 1.4-1.1 0.9-0.7 1.9-1.3 0.8-0.6 1.7-1.2c0.7-0.4 1.4-0.8 2.2-1.2q0.6-0.4 1.2-0.8 0.8-0.4 1.7-0.8 0.7-0.4 1.5-0.8 0.8-0.4 1.6-0.7c1.2-0.4 2.3-0.9 3.4-1.3q1.6-0.6 3.2-1c0.4-0.1 0.6-0.4 0.8-0.8q0.6-1.5 1.3-3 0.1-0.4 0.3-0.8c0.1-0.4 0.5-0.6 0.8-0.9q1.1-0.9 2.3-1.9 0.8-0.6 1.6-1.2c0.3-0.3 0.7-0.1 0.8 0.2q0.6 1.2 1.1 2.3 0.3 0.7 0.6 1.4c0.1 0.1 0 0.2 0 0.3q-0.5 1.7-1 3.4 0 0 0 0.1c0.4 0.1 0.9 0.1 1.3 0.2 0.7 0.1 1.5 0.3 2.2 0.5 0.6 0.2 1.1 0.5 1.7 0.8q0.8 0.5 1.6 1.1 0.6 0.5 1.2 1 0.8 0.8 1.4 1.6 0.8 0.9 1.4 1.8c0.3 0.5 0.6 1.1 0.9 1.6q0.6 1.1 0.8 2.3 0.1 1.2 0.1 2.4 0 1.3-0.1 2.6c-0.1 0.9-0.3 1.8-0.4 2.6q-0.1 0.7-0.2 1.3c-0.3 0.9-0.5 1.7-0.7 2.6q-0.7 2.2-1.5 4.4c-0.2 0.7-0.5 1.3-0.7 2q-0.4 1-0.9 2-0.3 0.8-0.7 1.7-0.1 0.2-0.2 0.6c0.9-0.2 1.8-0.5 2.7-0.6q1-0.2 2.1-0.3 1.6-0.1 3.2-0.1c0.7 0 1.3 0.2 1.9 0.3q0.9 0.1 1.8 0.4 1.5 0.5 2.8 1.5c0.8 0.6 1.5 1.4 2 2.2 0.4 0.9 0.8 1.8 1.1 2.6 0.3 0.5 0 1-0.1 1.5-0.1 0.6-0.3 1.1-0.5 1.7q-0.3 1.4-0.7 2.9-0.3 1.5-0.6 3c-0.1 0.7-0.3 1.4-0.4 2.1-0.2 0.8-0.2 1.5-0.3 2.3-0.2 0.7-0.3 1.4-0.4 2.1q-0.1 1.3-0.2 2.6-0.1 1.5-0.1 3c0 1.1 0 2.3 0.1 3.4 0.1 0.9 0.4 1.8 0.6 2.6 0.1 0.5 0.4 1 0.6 1.5 0 0.1 0.1 0.1 0.1 0.2-0.7 0.8-1.5 1.6-2.3 2.5-0.7 0.9-1.4 1.9-1.8 3-0.1-0.2-0.3-0.3-0.4-0.5q-0.3-0.6-0.7-1.2c-0.1-0.2-0.3-0.4-0.4-0.6q-0.6-1-1.1-1.9c-0.2-0.5-0.5-1-0.7-1.5-0.4-1-0.8-1.9-1-2.9-0.2-0.9-0.2-1.8-0.1-2.7q0.2-1.2 0.3-2.4 0.2-0.7 0.3-1.5 0.3-1.2 0.6-2.4 0.4-1.8 0.8-3.6c0.2-0.8 0.4-1.4 0.6-2.2 0.1-0.5 0.2-1.1 0.4-1.7q0.3-1.2 0.6-2.5 0.3-1.1 0.6-2.1 0.2-0.8 0.4-1.6 0.1-0.9 0.3-1.8c0-0.5 0-1.1 0-1.6 0-0.1-0.1-0.2-0.1-0.2-1-0.4-1.9-0.9-2.9-1.2q-1.4-0.5-3-0.7c-1.1-0.1-2.3-0.2-3.4 0q-1.4 0.2-2.7 0.5c-0.4 0.1-0.9 0.3-1.3 0.5-0.2 0-0.3 0.2-0.4 0.4-0.3 0.6-0.6 1.3-0.9 1.9q-0.4 1-1 2.1-0.5 0.9-1 1.8c-0.4 0.8-0.8 1.5-1.3 2.2q-0.7 1.1-1.4 2.1-0.9 1.3-1.9 2.4c-0.5 0.6-1 1.1-1.6 1.7q-0.7 0.7-1.5 1.3-0.8 0.7-1.6 1.3-1 0.6-1.9 1.1-0.8 0.4-1.7 0.8-0.9 0.3-1.8 0.6-1.1 0.2-2.2 0.4c-0.7 0-1.4 0-2.1 0-0.5 0.1-0.9-0.2-1.3-0.5-0.6-0.5-1.2-0.9-1.7-1.3q-0.7-0.6-1.5-1.2c0-0.1-0.1-0.1-0.1-0.1q0-0.2 0-0.4-0.1 0-0.1 0c0.6-1 1.1-2 1.7-2.9 0.8-1.1 1.6-2.2 2.5-3.2q0.7-0.9 1.5-1.8c0.7-0.7 1.4-1.4 2.1-2.1 0.3-0.3 0.6-0.7 1-0.9q0.7-0.7 1.5-1.3 1.2-1 2.4-1.8 1-0.8 2.1-1.4 1.4-0.9 2.9-1.7 1.1-0.6 2.3-1.2c0.4-0.1 0.6-0.3 0.8-0.6q0.6-1.2 1.2-2.5 0.6-1.2 1.1-2.4 0.8-1.8 1.5-3.6c0.5-1.3 0.8-2.5 1.2-3.7q0.3-0.9 0.5-1.8 0.3-0.9 0.4-1.8c0.3-1.1 0.5-2.1 0.6-3.1q0.3-1.6 0.4-3.1 0.2-1.6 0.2-3.3c0-0.9-0.1-1.8-0.1-2.8q0-0.1 0-0.2 0-0.5-0.5-0.6c-0.7-0.1-1.3-0.4-2-0.5q-1.9-0.2-3.7-0.2c-0.9-0.1-1.9 0-2.8 0-0.2 0-0.4 0-0.6 0-0.4 0.1-0.4 0.4-0.6 0.6-0.6 0.7-1.2 1.4-1.8 2.1q-0.6 0.7-1.2 1.4c-0.7 0.6-1.3 1.3-2 1.9-0.8 0.7-1.6 1.3-2.4 2-0.5 0.4-0.9 0.7-1.4 1.1q-1.1 0.7-2.3 1.4-1.1 0.8-2.3 1.4c-0.7 0.4-1.4 0.8-2.1 1.1-0.5 0.3-1 0.6-1.5 0.8q-1.2 0.4-2.4 0.9-0.8 0.3-1.6 0.6-0.9 0.3-1.8 0.6c-0.7 0.1-1.3 0.3-1.9 0.5q-1.3 0.3-2.6 0.5-1.1 0.2-2.2 0.4c-0.2 0-0.3 0-0.5 0zm-0.2-1.1c0.1-0.1 0.2-0.1 0.2-0.2q0.4-0.4 0.8-0.7 1.5-1.4 3-2.7 0.9-0.8 1.8-1.5 1.4-1.1 2.8-2.1 1.1-0.9 2.2-1.6 0.9-0.6 1.8-1.1 0.6-0.5 1.3-0.8 0.8-0.6 1.7-1c0.7-0.4 1.4-0.8 2.1-1.1q1.6-0.7 3.1-1.4 0.8-0.3 1.6-0.6 1.2-0.4 2.4-0.8c0.4-0.1 0.9-0.2 1.4-0.3q0.6-0.2 1.3-0.3 1.1-0.2 2.2-0.3 1-0.2 2-0.2 1.3-0.1 2.6-0.1 0.9 0 1.8 0.1c0.8 0.1 1.6 0.2 2.4 0.3 0.6 0.2 1.2 0.4 1.8 0.5q1.4 0.5 2.6 1.3c0.9 0.6 1.8 1.4 2.4 2.3q0.2 0.2 0.3 0.4 0 0 0.1-0.1c-0.2-0.4-0.3-0.9-0.5-1.3q-0.4-0.7-0.8-1.3-0.7-1.1-1.5-2.1c-0.3-0.5-0.7-0.9-1.2-1.3q-1.1-1.2-2.6-2c-0.5-0.4-1.1-0.6-1.7-0.9q-1.4-0.6-2.9-0.7c-0.4 0-0.9 0-1.4 0-0.4 0-0.8-0.1-1.2-0.1q-1 0.1-2 0.2-1.1 0.2-2.3 0.3c-0.7 0.1-1.4 0.2-2.1 0.3-0.9 0.2-1.7 0.5-2.6 0.8q-1.6 0.6-3.2 1.2-1.3 0.6-2.7 1.2-1 0.4-2 1-1 0.5-2.1 1.1-0.6 0.3-1.1 0.7-0.7 0.3-1.3 0.7-0.6 0.4-1.3 0.9-0.8 0.5-1.7 1.1-0.7 0.5-1.4 1.1c-0.6 0.5-1.3 1-1.9 1.5-0.6 0.4-1.1 0.9-1.6 1.4-0.7 0.6-1.4 1.2-2 1.9-0.6 0.5-1.1 1.1-1.7 1.7-0.1 0.1-0.2 0.3-0.2 0.4 0 0.3 0 0.5 0.1 0.8q0.2 0.7 0.4 1.4 0.4 1 0.8 2zm13 32.4q0 0 0 0 0 0 0 0zm1.4 1q0.7 0.5 1.4 1.1c0.3 0.3 0.3 0.3 0.6 0 0.5-0.8 1-1.7 1.6-2.5q1.2-1.6 2.5-3.2 1-1.2 2.1-2.4c0.7-0.7 1.4-1.4 2.1-2.1 0.5-0.5 0.9-1 1.5-1.4q1.2-1 2.5-2 1.1-0.9 2.4-1.7c0.4-0.4 1-0.6 1.5-0.9q0.8-0.5 1.7-1c0.7-0.4 1.4-0.7 2.2-1 0.6-0.3 1.3-0.6 2-0.8q1.4-0.5 2.9-1c1-0.3 2-0.4 3-0.4 1 0 2 0 3 0.2 0.8 0.2 1.6 0.3 2.3 0.5q1.2 0.4 2.4 0.9 0.7 0.3 1.4 0.7 0.6 0.4 1.2 0.8 1 0.9 2.1 1.9c0.2 0.2 0.5 0.4 0.7 0.7 0.2-0.5 0.3-1 0.5-1.4q0.3-0.9 0-1.8c-0.5-1.1-1-2.2-1.9-3.1q-0.9-1-2-1.7c-0.6-0.3-1.2-0.5-1.7-0.7-1.2-0.5-2.4-0.6-3.6-0.7q-1.6-0.1-3.1 0.1-1.7 0.2-3.4 0.6c-0.9 0.2-1.8 0.4-2.6 0.7q-1.6 0.5-3.2 1.1-1 0.3-2.1 0.8-1.2 0.5-2.3 1.1c-0.7 0.3-1.4 0.6-2.1 1-0.8 0.5-1.6 1-2.4 1.4q-1.1 0.7-2.2 1.5-0.8 0.5-1.6 1.1-1.2 1-2.3 2-0.8 0.7-1.6 1.5-0.8 0.8-1.6 1.7-0.6 0.7-1.2 1.4-0.9 1.1-1.8 2.3-0.7 0.9-1.2 1.9c-0.4 0.6-0.7 1.2-1.1 1.7 0.5 0.4 0.9 0.7 1.4 1.1zm39-16.4q0 0 0 0 0 0 0-0.1zm0 1.1q-0.2 1.1-0.4 2.1-0.3 1.5-0.7 2.9c-0.1 0.8-0.4 1.5-0.6 2.2q-0.4 1.8-0.8 3.6-0.3 1-0.5 2-0.3 1-0.5 2-0.2 0.8-0.4 1.7c-0.2 1-0.5 2.1-0.7 3.1-0.2 1.4-0.4 2.7-0.3 4.1q0 1.1 0.4 2.2 0.3 0.8 0.6 1.6 0.4 0.9 1 1.9 0.4 0.8 0.9 1.6 0.4 0.7 0.9 1.5c1-1.8 2.4-3.3 3.8-4.6-0.3-0.8-0.5-1.5-0.7-2.2q-0.2-0.7-0.3-1.5-0.2-1.2-0.3-2.5 0-1.2 0-2.3 0-1.2 0.1-2.3 0.1-1 0.2-1.9 0.1-0.9 0.2-1.9 0.2-1.1 0.3-2.2 0.2-1 0.4-1.9 0.2-1.1 0.4-2.2 0.2-1 0.5-2 0.2-1 0.4-1.9c0-0.3 0.2-0.6-0.1-0.9q-0.3-0.3-0.6-0.6-0.7-0.7-1.5-1.3c-0.5-0.5-1.1-0.9-1.7-1.3 0 0.4 0 0.7 0 1zm-12.4-33.3c-0.1 0.2-0.1 0.3-0.1 0.4 0.1 0.8 0.1 1.6 0.1 2.5 0 0.8 0 1.7-0.1 2.6q0 1.3-0.2 2.6-0.2 1.6-0.5 3.2c-0.2 1-0.4 2-0.7 3-0.4 1.4-0.7 2.8-1.2 4.1-0.5 1.6-1.1 3.1-1.8 4.7-0.3 0.9-0.8 1.8-1.2 2.7-0.3 0.7-0.7 1.3-1 1.9q-0.2 0.4-0.4 0.8c0.3 0 0.5-0.1 0.8-0.2q1-0.4 2-0.8 0.7-0.3 1.5-0.5c0.5-0.2 1-0.3 1.5-0.5 0.3-0.1 0.6 0 0.7-0.4q0.4-1 0.9-2c0.4-1 0.8-2 1.2-3q0.7-1.7 1.2-3.3 0.6-2 1.2-4 0.4-1.6 0.7-3.3 0.2-1.5 0.3-3c0-0.6 0-1.3-0.1-1.9 0-0.6-0.3-1.1-0.5-1.7-0.3-0.5-0.6-1.1-1-1.5-0.5-0.6-1.2-1.1-1.8-1.6-0.5-0.3-1-0.5-1.5-0.8zm-11.2-0.8q0 0 0 0 0.1 0 0.1 0zm-0.5 0c-1.2 0.3-2.4 0.5-3.6 0.8q-1.3 0.3-2.6 0.7c-0.4 0.1-0.9 0.2-1.2 0.5q-0.7 0.7-1.4 1.3-1.1 0.9-2.2 1.7c-0.7 0.6-1.5 1.3-2.3 1.8q-1.1 0.8-2.3 1.4-1.1 0.7-2.3 1.3c-1.4 0.7-2.9 1.2-4.4 1.5-0.2 0.1-0.5 0.1-0.7 0.2-0.3 0.2-0.5 0.4-0.8 0.6q-1 0.8-1.9 1.6-0.8 0.7-1.6 1.4-0.8 0.8-1.6 1.6c0 0-0.1 0.1-0.1 0.2 0.1 0.1 0.2 0.1 0.3 0.1q0.3 0 0.6 0 1.1-0.2 2.2-0.5 1.8-0.3 3.5-0.8 1.2-0.3 2.3-0.7 1.7-0.6 3.3-1.3c1-0.4 1.9-0.9 2.9-1.3q0.8-0.4 1.6-0.9 0.9-0.5 1.7-1.1 0.8-0.5 1.5-1 0.9-0.6 1.8-1.2 1-0.8 1.9-1.6 0.5-0.4 0.9-0.9c0.7-0.7 1.5-1.4 2.2-2.1q0.9-0.9 1.6-1.8c0.4-0.5 0.8-1 1.2-1.5q-0.3 0-0.5 0zm9.1 32.1q-0.1 0-0.1 0-1.5 0.6-2.9 1.2-0.9 0.4-1.8 0.9-0.8 0.5-1.7 1c-0.3 0.2-0.7 0.3-0.8 0.7-0.3 0.9-0.6 1.7-1 2.5-0.4 0.8-0.9 1.6-1.4 2.4-0.6 1-1.3 1.9-2.1 2.8q-1 1.1-2.2 2.1-0.5 0.4-1 0.8-0.6 0.4-1.2 0.8c-0.4 0.2-0.8 0.5-1.2 0.7q-0.8 0.3-1.6 0.6-0.6 0.3-1.2 0.5c-0.3 0.1-0.5 0.1-0.6 0.4-0.1 0.1-0.2 0.2-0.3 0.4q-0.4 0.5-0.8 1.1c-0.1 0.2 0 0.4 0.2 0.4q0.6 0 1.1 0 1.1 0 2.2-0.1c0.5-0.1 0.9-0.2 1.4-0.3q0.7-0.2 1.3-0.4c0.5-0.2 1.1-0.4 1.5-0.6q1.2-0.7 2.4-1.4 0.9-0.6 1.7-1.3 0.8-0.7 1.5-1.4 1.2-1.2 2.3-2.6 0.9-1 1.6-2 0.7-1.1 1.4-2.2 0.5-0.9 1-1.8c0.4-0.9 0.9-1.7 1.3-2.6 0.4-0.8 0.7-1.6 1-2.4q0 0 0-0.2zm-12.4-37.5c0.7-0.1 1.3-0.2 2-0.3q0.9-0.1 1.7-0.2 0.9-0.1 1.8-0.2c0.4 0 0.9 0 1.4 0 0 0 0.1-0.1 0.1-0.2q0.5-1.4 0.9-2.8c0.1-0.3 0.3-0.6 0.1-1q-0.5-1-1-2.1-0.2-0.5-0.5-1.1c-0.8 0.6-1.6 1.2-2.3 1.8q-0.7 0.6-1.4 1.2c-0.5 0.4-1 0.8-1.2 1.4-0.4 0.8-0.7 1.6-1.1 2.4-0.2 0.3-0.3 0.7-0.5 1.1zm-7.6 53.9q0-0.1 0-0.1 0.1 0.1 0.2 0.1c0.6-0.3 1.2-0.5 1.8-0.8q0.9-0.4 1.7-0.9c0.8-0.6 1.7-1.1 2.4-1.8 0.8-0.6 1.5-1.4 2.2-2.2 0.9-0.9 1.5-1.9 2.2-2.9q0.5-0.9 0.9-1.7c0.3-0.6 0.5-1.1 0.7-1.7 0 0 0-0.1 0-0.2-0.1 0-0.2 0-0.3 0.1-0.7 0.5-1.5 1.1-2.2 1.6q-1 0.9-1.9 1.7-0.9 0.8-1.7 1.7-0.9 0.8-1.7 1.7-0.8 0.9-1.6 1.8-0.9 1.1-1.7 2.2c-0.4 0.4-0.7 0.9-1 1.3q0 0 0 0 0 0 0 0zm2.3-46c0 0 0 0 0-0.1q-0.4 0.2-0.7 0.4c-1.2 0.5-2.4 1-3.5 1.6-1 0.5-2 1.1-3 1.7q-1 0.6-2 1.3-1 0.6-2 1.3-1.1 0.9-2.2 1.7c0 0 0 0.1 0 0.1 0 0 0 0.1 0.1 0.1q0.5-0.1 0.9-0.3 1.1-0.3 2.1-0.7 1-0.5 1.9-0.9c0.4-0.3 0.8-0.6 1.3-0.8 0.5-0.4 1.1-0.6 1.6-1q1.2-0.9 2.4-1.8 0.8-0.5 1.5-1.1 0.5-0.4 1-0.9c0.2-0.2 0.4-0.4 0.6-0.6z" />
					<path id="Layer" class="s12"
						d="m14.2 235.5q-0.4-1-0.8-2-0.2-0.7-0.4-1.4-0.1-0.4-0.1-0.8c0-0.1 0.1-0.2 0.2-0.3 0.6-0.6 1.1-1.2 1.7-1.8 0.6-0.6 1.3-1.2 2-1.9 0.5-0.4 1-0.9 1.6-1.3 0.6-0.6 1.3-1 1.9-1.5 0.5-0.4 0.9-0.8 1.4-1.1q0.9-0.6 1.7-1.2 0.7-0.4 1.3-0.9 0.6-0.3 1.3-0.7 0.6-0.3 1.1-0.6 1.1-0.6 2.1-1.2 1-0.5 2-1 1.4-0.6 2.8-1.1 1.5-0.6 3.1-1.2c0.9-0.3 1.7-0.6 2.6-0.8 0.7-0.2 1.4-0.2 2.2-0.3q1.1-0.2 2.2-0.3 1-0.2 2-0.2c0.4 0 0.8 0 1.2 0.1 0.5 0 1 0 1.4 0q1.5 0.1 2.9 0.7c0.6 0.2 1.2 0.5 1.8 0.8q1.4 0.9 2.6 2c0.4 0.4 0.8 0.9 1.1 1.3q0.8 1.1 1.5 2.2 0.4 0.6 0.8 1.3c0.2 0.4 0.3 0.8 0.5 1.3q-0.1 0-0.1 0-0.1-0.1-0.3-0.3c-0.6-1-1.4-1.7-2.4-2.4q-1.2-0.8-2.6-1.2c-0.6-0.2-1.2-0.4-1.8-0.5-0.8-0.2-1.6-0.2-2.3-0.3q-1-0.1-1.9-0.1-1.3 0-2.6 0-1 0.1-2 0.2-1.1 0.2-2.2 0.4-0.7 0.1-1.3 0.3c-0.5 0.1-1 0.1-1.4 0.3q-1.2 0.4-2.4 0.8-0.8 0.2-1.6 0.6-1.5 0.6-3 1.3c-0.8 0.4-1.5 0.7-2.2 1.1q-0.9 0.5-1.7 1c-0.5 0.3-0.9 0.6-1.3 0.8q-0.9 0.6-1.8 1.1-1.1 0.8-2.2 1.6-1.4 1.1-2.8 2.1-0.9 0.7-1.7 1.5-1.6 1.4-3.1 2.7-0.4 0.4-0.8 0.8c0 0-0.1 0.1-0.2 0.1z" />
					<path id="Layer" class="s12"
						d="m27.2 267.9c0.4-0.6 0.7-1.2 1.1-1.8q0.5-0.9 1.2-1.8 0.9-1.2 1.8-2.4 0.6-0.7 1.2-1.3 0.8-0.9 1.6-1.8 0.8-0.7 1.6-1.4 1.1-1.1 2.3-2 0.8-0.6 1.6-1.2 1.1-0.7 2.2-1.4c0.8-0.5 1.6-1 2.4-1.4 0.6-0.4 1.4-0.7 2.1-1.1q1.1-0.6 2.3-1.1 1.1-0.4 2.1-0.8 1.6-0.5 3.2-1c0.8-0.3 1.7-0.6 2.6-0.8q1.7-0.4 3.4-0.5 1.5-0.2 3.1-0.1c1.2 0 2.4 0.2 3.6 0.6 0.5 0.2 1.1 0.4 1.7 0.7q1.1 0.7 2 1.7c0.8 1 1.4 2 1.8 3.2 0.3 0.6 0.3 1.1 0 1.7-0.1 0.5-0.2 0.9-0.4 1.4-0.2-0.2-0.5-0.5-0.7-0.7q-1.1-0.9-2.2-1.9-0.5-0.4-1.1-0.7-0.7-0.5-1.4-0.8-1.2-0.5-2.4-0.8c-0.8-0.3-1.5-0.4-2.3-0.5q-1.5-0.3-3-0.3c-1 0.1-2 0.2-3 0.5q-1.5 0.5-2.9 1c-0.7 0.2-1.4 0.4-2.1 0.7q-1 0.5-2.1 1.1-0.9 0.4-1.7 0.9-0.8 0.4-1.6 0.9-1.2 0.8-2.3 1.7-1.3 1-2.6 2c-0.5 0.5-1 1-1.4 1.5-0.7 0.6-1.4 1.3-2.1 2q-1.1 1.2-2.1 2.4-1.3 1.6-2.5 3.3c-0.6 0.8-1.1 1.6-1.6 2.4-0.3 0.4-0.3 0.3-0.6 0.1-0.5-0.4-1-0.8-1.4-1.2q-0.7-0.5-1.4-1z" />
					<path id="Layer" class="s12"
						d="m67.6 252.5c0.6 0.5 1.2 0.9 1.7 1.4 0.5 0.4 1 0.9 1.5 1.3q0.3 0.3 0.6 0.6c0.3 0.3 0.1 0.6 0.1 0.9q-0.2 0.9-0.4 1.8-0.3 1.1-0.5 2.1-0.2 1.1-0.4 2.2-0.2 0.9-0.4 1.8-0.1 1.2-0.3 2.3-0.1 0.9-0.2 1.9-0.1 0.9-0.2 1.9-0.1 1.1-0.1 2.2 0 1.2 0 2.4 0.1 1.3 0.3 2.5c0 0.5 0.1 1 0.3 1.5 0.2 0.7 0.4 1.4 0.7 2.2-1.4 1.3-2.8 2.7-3.8 4.6q-0.5-0.8-0.9-1.6-0.5-0.7-0.9-1.5-0.6-1-1-2-0.4-0.7-0.6-1.6-0.4-1-0.4-2.1c-0.1-1.4 0.1-2.7 0.3-4.1 0.2-1 0.5-2.1 0.7-3.2q0.2-0.8 0.4-1.6 0.2-1 0.5-2 0.2-1 0.5-2 0.4-1.8 0.8-3.6c0.2-0.7 0.5-1.5 0.6-2.2q0.4-1.4 0.7-2.9 0.2-1.1 0.4-2.1c0-0.3 0-0.7 0-1.1z" />
					<path id="Layer" class="s12"
						d="m55.1 220.3c0.6 0.3 1.1 0.5 1.6 0.8 0.6 0.5 1.2 1 1.8 1.6 0.4 0.4 0.7 1 1 1.6 0.2 0.5 0.4 1 0.5 1.6 0.1 0.6 0.1 1.3 0.1 2q-0.1 1.5-0.4 2.9-0.2 1.7-0.7 3.3-0.5 2-1.1 4-0.6 1.7-1.2 3.3c-0.4 1-0.8 2-1.2 3q-0.5 1-0.9 2c-0.1 0.4-0.5 0.3-0.7 0.4-0.5 0.2-1 0.3-1.5 0.5q-0.8 0.2-1.5 0.5-1 0.4-2.1 0.8c-0.2 0.1-0.4 0.2-0.7 0.2q0.2-0.4 0.4-0.8c0.3-0.6 0.7-1.2 1-1.9 0.4-0.9 0.8-1.8 1.2-2.7 0.6-1.5 1.3-3.1 1.8-4.7 0.5-1.3 0.8-2.7 1.2-4.1q0.4-1.5 0.7-3 0.3-1.6 0.5-3.2c0.1-0.9 0.2-1.8 0.2-2.6 0.1-0.9 0.1-1.8 0.1-2.6 0-0.9-0.1-1.7-0.1-2.5 0-0.1 0-0.2 0-0.4z" />
					<path id="Layer" class="s12"
						d="m44 219.5q-0.5 0.8-1.1 1.5c-0.5 0.6-1 1.2-1.6 1.8-0.7 0.7-1.5 1.4-2.2 2.1q-0.4 0.5-0.9 0.9-1 0.8-1.9 1.6-0.9 0.6-1.8 1.2-0.7 0.5-1.5 1-0.8 0.6-1.7 1.1-0.8 0.4-1.6 0.8c-1 0.5-1.9 1-2.9 1.4q-1.7 0.7-3.3 1.3-1.1 0.4-2.3 0.7-1.8 0.5-3.6 0.8-1 0.3-2.1 0.5-0.3 0-0.7 0c0 0-0.1 0-0.2-0.1 0-0.1 0-0.2 0.1-0.2q0.8-0.8 1.6-1.6 0.8-0.7 1.6-1.4 0.9-0.8 1.9-1.6c0.2-0.2 0.5-0.4 0.8-0.6 0.2-0.1 0.4-0.1 0.7-0.2 1.5-0.3 3-0.8 4.3-1.5q1.2-0.6 2.4-1.3 1.2-0.6 2.3-1.4 1.2-0.8 2.3-1.8 1.1-0.8 2.1-1.7 0.8-0.6 1.4-1.3c0.4-0.3 0.9-0.4 1.3-0.5q1.3-0.4 2.6-0.8c1.2-0.2 2.4-0.4 3.6-0.7 0.1 0 0.3 0 0.5 0z" />
					<path id="Layer" class="s12"
						d="m52.7 251.6q0 0.1 0 0.2c-0.4 0.8-0.7 1.6-1.1 2.4q-0.6 1.3-1.3 2.6-0.5 0.9-1 1.8-0.6 1.1-1.4 2.1-0.7 1.1-1.5 2.1c-0.8 0.9-1.5 1.7-2.3 2.6q-0.7 0.7-1.5 1.4-0.9 0.7-1.8 1.3-1.1 0.7-2.3 1.3c-0.5 0.3-1 0.5-1.5 0.7q-0.7 0.2-1.4 0.4-0.6 0.2-1.3 0.3-1.1 0.1-2.2 0.1-0.6 0-1.1 0c-0.2 0-0.3-0.2-0.2-0.4q0.4-0.6 0.8-1.2c0.1-0.1 0.2-0.2 0.2-0.4 0.1-0.2 0.4-0.3 0.6-0.3q0.7-0.3 1.3-0.5 0.8-0.3 1.5-0.7c0.4-0.2 0.8-0.4 1.2-0.7q0.7-0.3 1.3-0.7 0.5-0.4 0.9-0.8 1.2-1 2.3-2.2c0.7-0.8 1.5-1.7 2.1-2.7 0.4-0.8 1-1.6 1.4-2.5 0.4-0.7 0.6-1.6 0.9-2.4 0.2-0.4 0.6-0.5 0.9-0.7q0.8-0.5 1.7-1 0.8-0.5 1.7-0.9 1.5-0.6 2.9-1.2 0.1 0 0.2 0z" />
					<path id="Layer" class="s12"
						d="m40.2 214.1c0.2-0.4 0.4-0.8 0.5-1.1 0.4-0.8 0.8-1.6 1.1-2.4 0.3-0.6 0.7-1 1.2-1.4 0.5-0.4 1-0.8 1.4-1.2q1.2-0.9 2.3-1.8 0.3 0.5 0.6 1.1 0.4 1 0.9 2.1c0.2 0.3 0 0.7-0.1 1q-0.4 1.4-0.8 2.8c0 0.1-0.1 0.2-0.2 0.2-0.5 0-0.9 0-1.4 0q-0.8 0.1-1.7 0.2-0.9 0.1-1.8 0.2c-0.6 0.1-1.3 0.2-2 0.3z" />
					<path id="Layer" class="s12"
						d="m32.6 267.9c0.4-0.5 0.7-0.9 1-1.3q0.8-1.1 1.7-2.2 0.8-0.9 1.7-1.9 0.8-0.8 1.6-1.7 0.9-0.8 1.7-1.6 1-0.9 2-1.7c0.7-0.6 1.5-1.1 2.2-1.7 0 0 0.1 0 0.2 0 0 0.1 0.1 0.1 0 0.2-0.2 0.5-0.4 1.1-0.6 1.6q-0.5 0.9-1 1.7c-0.6 1.1-1.3 2.1-2.1 3-0.8 0.8-1.4 1.6-2.2 2.2-0.8 0.7-1.6 1.2-2.4 1.7q-0.8 0.6-1.7 1c-0.6 0.3-1.2 0.5-1.9 0.8 0 0-0.1 0-0.2-0.1z" />
					<path id="Layer" class="s12"
						d="m35 221.9q-0.3 0.3-0.6 0.6-0.6 0.4-1.1 0.9c-0.5 0.3-0.9 0.8-1.4 1.1q-1.2 0.9-2.5 1.8c-0.5 0.3-1 0.6-1.6 1-0.4 0.2-0.8 0.5-1.3 0.7q-0.9 0.5-1.9 1-1 0.4-2 0.7-0.5 0.1-1 0.2 0 0-0.1 0c0 0 0-0.1 0.1-0.1q1-0.9 2.1-1.7 1-0.7 2-1.3 1.1-0.7 2.1-1.3c1-0.6 1.9-1.2 3-1.7 1.1-0.6 2.3-1.1 3.4-1.6q0.4-0.2 0.7-0.4 0.1 0.1 0.1 0.1z" />
				</g>
			</g>
			<path id="Layer" class="s2"
				d="m115 322.3c-0.5-0.3-1.8-0.5-3.4-0.2-3 0.5-4.4 1.8-4.8 2.4-0.5 0.8-2.2 3.5-0.9 5.9 1.3 2.4 4.7 2.6 6.5 2.3 3.9-0.5 5.9-3.9 6.1-4.4l-4.2-24.4 10.1-5.1-1.7-6.6-11.8 5.1 4.1 25z" />
		</g>
	</g>
</svg>