<?xml version="1.0" encoding="UTF-8"?><svg id="Warstwa_2" xmlns="http://www.w3.org/2000/svg" viewBox="0 0 436.05 428.3"><defs><style>.cls-1,.cls-2,.cls-3{fill:none;}.cls-4{fill:#1d1d1b;stroke-width:2.87px;}.cls-4,.cls-5,.cls-6,.cls-7,.cls-8,.cls-9,.cls-10,.cls-11,.cls-2,.cls-12,.cls-3,.cls-13,.cls-14{stroke:#eb691f;stroke-miterlimit:10;}.cls-5,.cls-6,.cls-8,.cls-9,.cls-10{fill:#fff;}.cls-5,.cls-7{stroke-width:1.22px;}.cls-6,.cls-12{stroke-width:.99px;}.cls-8,.cls-11{stroke-width:.93px;}.cls-9,.cls-3{stroke-width:1.74px;}.cls-10,.cls-13{stroke-width:.84px;}.cls-2{stroke-width:1.22px;}.cls-14{fill:#eb691f;stroke-width:1.44px;}</style></defs><g id="Warstwa_1-2"><g><ellipse class="cls-1" cx="218.03" cy="214.15" rx="218.03" ry="214.15"/><g><path class="cls-4" d="M92.78,215.18c-.64-.08-.89-.27-.89-.9,0-1.67,.14-5.32,.14-8.19,0-3.19-.03-4.7-.03-7.7,0-.63,.17-1.04,.95-1.12,1.95-.22,3.53-.33,4.89-.33,5.95,0,8.42,1.72,8.42,4.78,0,2.32-1.86,3.96-4.37,4.37,3.36,.49,5.06,2.32,5.06,4.48,0,3.66-3.98,5.08-8.26,5.08-1.86,0-3.75-.16-5.92-.47Zm12.79-13.52c0-2.49-1.92-4.15-7.53-4.15-1.92,0-3.47,.19-5.2,.44-.14,2.4-.22,4.86-.22,7.84,1.78,.05,4.78,.05,6.59,.05,4.23,0,6.37-1.58,6.37-4.18Zm.72,9.06c0-2.57-2-4.34-7.51-4.34-1.7,0-4.48,0-6.17,.05,0,2.81,0,5.73,.06,8.08,1.22,.3,3.84,.54,5.87,.54,4.84,0,7.76-1.72,7.76-4.34Z"/><path class="cls-4" d="M141.38,206.22c0,6.06-4.42,9.42-8.95,9.42s-8.65-3.52-8.65-9.31c0-5.16,3.59-9.5,8.9-9.5s8.7,4.12,8.7,9.39Zm-8.81,8.88c3.84,0,8.15-3.06,8.15-8.66,0-5.98-3.7-9.07-8.06-9.07-5.06,0-8.2,4.37-8.2,8.77,0,5.9,3.75,8.96,8.12,8.96Z"/><path class="cls-4" d="M160.75,215.18c-.64-.08-.89-.27-.89-.9,0-1.67,.14-5.32,.14-8.19,0-3.19-.03-4.7-.03-7.7,0-.63,.17-1.04,.95-1.12,1.95-.22,3.53-.33,4.89-.33,5.95,0,8.42,1.72,8.42,4.78,0,2.32-1.86,3.96-4.37,4.37,3.36,.49,5.06,2.32,5.06,4.48,0,3.66-3.98,5.08-8.26,5.08-1.86,0-3.75-.16-5.92-.47Zm12.79-13.52c0-2.49-1.92-4.15-7.53-4.15-1.92,0-3.47,.19-5.2,.44-.14,2.4-.22,4.86-.22,7.84,1.78,.05,4.78,.05,6.59,.05,4.23,0,6.37-1.58,6.37-4.18Zm.72,9.06c0-2.57-2-4.34-7.51-4.34-1.7,0-4.48,0-6.17,.05,0,2.81,0,5.73,.06,8.08,1.22,.3,3.84,.54,5.87,.54,4.84,0,7.76-1.72,7.76-4.34Z"/><path class="cls-4" d="M209.34,206.22c0,6.06-4.42,9.42-8.95,9.42s-8.65-3.52-8.65-9.31c0-5.16,3.59-9.5,8.9-9.5s8.7,4.12,8.7,9.39Zm-8.81,8.88c3.84,0,8.15-3.06,8.15-8.66,0-5.98-3.7-9.07-8.06-9.07-5.06,0-8.2,4.37-8.2,8.77,0,5.9,3.75,8.96,8.12,8.96Z"/><path class="cls-4" d="M93.74,260.15c-.25,0-.39-.19-.39-.79,0-3.17,.11-4.86,.11-7.89s-.06-6.72-.06-8.93c-2.36,0-4.59,.08-6.95,.08-.61,0-.83-.11-.83-.35s.17-.36,.86-.36c2.53,0,5.06,.05,7.45,.05,2.89,0,4.39-.05,7.26-.05,.53,0,.72,.11,.72,.38,0,.22-.25,.33-.78,.33-2.67,0-4.17-.08-6.95-.08,0,2.29-.14,5.49-.14,8.47,0,3.44,.06,5.9,.06,8.33,0,.65-.14,.82-.36,.82Z"/><path class="cls-4" d="M133.88,259.66c-2.67-1.34-5.53-4.2-7.51-7.48-2.86,0-4.56-.05-6.26-.22,0,2.73,.06,4.67,.06,7.16,0,.71-.14,.85-.36,.85s-.39-.22-.39-.68c0-3.17,.11-5.68,.11-8.66,0-3.14-.08-4.94-.08-7.73,0-.52,.19-.82,.86-.9,1.7-.19,3.61-.3,5.23-.3,5.67,0,8.26,2.13,8.26,5.08,0,3.33-2.72,5-6.78,5.32,1.67,2.87,4.31,5.54,7.2,6.93,.95,.47,1.03,.57,1.03,.74s-.17,.27-.33,.27-.39-.06-1.03-.38Zm-.75-12.72c0-2.89-2.42-4.7-7.53-4.7-1.64,0-3.36,.11-5.37,.41-.06,3.19-.11,5.65-.11,8.74,1.75,.16,3.61,.24,5.39,.24,4.37,0,7.62-1.53,7.62-4.7Z"/><path class="cls-4" d="M165.24,260.01c-2.06,0-3.81-.08-5.98-.08-1.86,0-4.62,.08-5.7,.08-.47,0-.75-.16-.75-.66,0-2.57,.08-5.52,.08-8.68,0-2.79-.06-5.08-.06-7.84,0-.68,.31-.96,1-.96,1.42,0,2.22,.08,5.78,.08,2.47,0,3.95-.05,5.59-.05,.61,0,.81,.14,.81,.36s-.22,.35-.83,.35c-1.17,0-3.39-.08-5.64-.08-2.64,0-4.2,.03-5.92,.05-.11,3.19-.14,6.01-.14,8.68,1.47,.05,3.06,.05,4.86,.05,2.42,0,3.92-.14,5.23-.14,.44,0,.58,.16,.58,.35,0,.22-.19,.41-.58,.41-1.86,0-3.31-.11-4.98-.11-1.81,0-3.25,.03-5.11,.14,0,2.62,.03,4.91,.08,7.29,1.45,.06,3.14,.08,5.56,.08,2.95,0,4.09-.08,6.23-.08,.64,0,.78,.19,.78,.38,0,.22-.22,.36-.89,.36Z"/><path class="cls-4" d="M190.92,259.77c-3.11,0-4.34,.08-5.7,.08-.56,0-.75-.19-.75-.68,0-1.83,.11-4.78,.11-8.22,0-2.68-.06-5.73-.06-8.44,0-.49,.11-.76,.42-.76,.25,0,.36,.16,.36,.68,0,2.62-.14,5.82-.14,8.38,0,3.22,.03,5.65,.06,8.36,1.95,.06,3.81,.03,5.75,.03,3.09,0,4.42-.08,5.81-.08,.45,0,.7,.16,.7,.41,0,.19-.28,.33-.75,.33-1.25,0-2.78-.08-5.81-.08Z"/><path class="cls-4" d="M228.28,260.01c-2.06,0-3.81-.08-5.98-.08-1.86,0-4.62,.08-5.7,.08-.47,0-.75-.16-.75-.66,0-2.57,.08-5.52,.08-8.68,0-2.79-.06-5.08-.06-7.84,0-.68,.31-.96,1-.96,1.42,0,2.22,.08,5.78,.08,2.47,0,3.95-.05,5.59-.05,.61,0,.81,.14,.81,.36s-.22,.35-.83,.35c-1.17,0-3.39-.08-5.64-.08-2.64,0-4.2,.03-5.92,.05-.11,3.19-.14,6.01-.14,8.68,1.47,.05,3.06,.05,4.86,.05,2.42,0,3.92-.14,5.23-.14,.44,0,.58,.16,.58,.35,0,.22-.2,.41-.58,.41-1.86,0-3.31-.11-4.98-.11-1.81,0-3.25,.03-5.11,.14,0,2.62,.03,4.91,.08,7.29,1.45,.06,3.14,.08,5.56,.08,2.95,0,4.09-.08,6.23-.08,.64,0,.78,.19,.78,.38,0,.22-.22,.36-.89,.36Z"/></g><path class="cls-14" d="M187.17,152.5c-.3-.56-1.44-1.22-2.99-1.64-2.86-.78-4.7-.23-5.39,.2-.8,.51-3.5,2.22-3.36,4.93,.15,2.69,3.12,4.31,4.85,4.84,3.78,1.17,7.06-1.13,7.47-1.43l6.79-23.86,11.32-.44,1.29-6.65-12.87-.35-7.13,24.4Z"/><g><path class="cls-5" d="M238.2,27.24c.2,.19,.32,.31,.45,.42,.69,.6,1.37,1.21,2.08,1.8,.85,.7,1.7,1.39,2.58,2.06,.62,.47,1.27,.9,1.91,1.34,.63,.44,1.26,.89,1.92,1.3,.6,.38,1.23,.7,1.86,1.05,.93,.52,1.85,1.05,2.79,1.54,.6,.32,1.24,.58,1.87,.85,.91,.4,1.81,.82,2.74,1.18,1.03,.39,2.09,.73,3.14,1.07,1.05,.34,2.11,.67,3.17,.97,.7,.19,1.42,.32,2.13,.47,1.3,.26,2.59,.55,3.89,.76,1.09,.17,2.2,.27,3.3,.37,.76,.07,1.53,.11,2.3,.13,1.16,.03,2.32,.02,3.47,.05,.34,0,.72-.2,1.03,.13,.16,.17,.35,.32,.5,.5,.74,.87,1.5,1.71,2.19,2.62,.91,1.21,1.8,2.44,2.61,3.71,.45,.7,.72,1.51,1.08,2.26,.17,.36,.15,.67-.18,.93-.08,.06-.17,.11-.24,.17-.87,.75-1.7,1.56-2.61,2.26-1.09,.84-2.23,1.62-3.38,2.38-1.08,.71-2.19,1.39-3.32,2.03-1.14,.65-2.31,1.23-3.48,1.83-.7,.36-1.4,.72-2.12,1.04-.7,.31-1.41,.59-2.12,.87-1.52,.58-3.02,1.2-4.56,1.72-1.54,.52-3.11,.97-4.68,1.41-1.07,.3-2.16,.56-3.24,.82-1.13,.26-2.27,.49-3.41,.74-.42,.09-.8,.02-1.2-.18-.98-.48-1.97-.94-2.98-1.35-1.28-.52-2.57-1-3.87-1.45-.97-.34-1.96-.62-2.96-.88-1.22-.31-2.45-.59-3.67-.86-.79-.17-1.59-.31-2.39-.44-.53-.08-1.07-.12-1.6-.18-1.27-.13-2.53-.3-3.8-.39-.96-.07-1.92-.08-2.88-.05-1.68,.05-3.37,.11-5.05,.25-1.4,.12-2.78,.35-4.17,.54,.02,.03,.03,.07,.05,.1-.1,.09-.21,.17-.34,.28,0,.05,.04,.16,.04,.27-.02,.77-.05,1.54-.06,2.31,0,.87,.04,1.74,0,2.6-.02,.62,.07,1.17,.5,1.65,.59,.65,1.12,1.35,1.74,1.96,.64,.63,1.34,1.23,2.06,1.77,.62,.46,1.3,.85,1.97,1.22,.66,.37,1.35,.72,2.05,1.01,.82,.34,1.67,.65,2.52,.9,.84,.25,1.7,.45,2.56,.61,.82,.15,1.65,.24,2.48,.33,.96,.1,1.92,.21,2.88,.23,1.25,.02,2.5-.02,3.75-.08,1.06-.05,2.12-.13,3.17-.26,1.06-.13,2.11-.32,3.16-.5,.87-.15,1.75-.28,2.62-.47,.95-.2,1.89-.45,2.84-.7,.82-.21,1.64-.47,2.46-.67,.24-.06,.54-.07,.75,.04,.54,.26,1.08,.54,1.55,.91,.86,.66,1.69,1.37,2.5,2.1,1.07,.95,1.92,2.09,2.65,3.3,.64,1.06,1.2,2.2,1.65,3.36,.45,1.16,.73,2.38,1.07,3.59,.03,.09-.04,.26-.12,.32-.53,.4-1.05,.81-1.61,1.16-.66,.41-1.34,.78-2.03,1.14-.58,.3-1.18,.56-1.77,.83-.85,.39-1.7,.79-2.56,1.17-.98,.45-1.97,.88-2.95,1.33-.66,.31-1.31,.65-1.97,.95-.83,.38-1.68,.71-2.51,1.09-1.42,.65-2.83,1.32-4.23,2-.93,.45-1.85,.92-2.77,1.39-.58,.29-1.16,.57-1.72,.89-.86,.5-1.71,1.01-2.56,1.54-.95,.59-1.86,1.26-2.54,2.13-.77,.99-1.44,2.07-2.09,3.14-.37,.6-.62,1.27-.9,1.92-.35,.8-.67,1.6-.99,2.41-.12,.31-.2,.64-.31,.95-.19,.54-.41,1.06-.6,1.6-.08,.23-.13,.46-.22,.77,1.45-.55,2.9-.65,4.35-.64,1.44,.02,2.88,.13,4.29,.2,0-.08-.03-.2,.01-.28,.33-.57,.63-1.16,1.02-1.69,.66-.88,1.31-1.77,2.09-2.54,1.03-1.01,2.17-1.93,3.3-2.83,.96-.77,1.96-1.48,2.96-2.19,.88-.61,1.77-1.2,2.68-1.77,.79-.49,1.61-.91,2.41-1.38,.82-.47,1.61-.98,2.44-1.43,.8-.43,1.62-.81,2.43-1.22,1.14-.58,2.26-1.18,3.41-1.74,1.11-.54,2.24-1.06,3.37-1.58,.67-.31,1.36-.57,2.03-.88,.55-.26,1.2-.42,1.52-1.01,.56-1.02,1.19-2.02,1.64-3.09,.49-1.14,.64-2.38,.63-3.62,0-1.3-.23-2.59-.71-3.81-.26-.68-.58-1.34-.93-1.98-.37-.69-.74-1.41-1.22-2.02-.8-1.01-1.68-1.98-2.56-2.92-.61-.65-1.25-1.27-1.93-1.85-.85-.72-1.76-1.38-2.7-2.1,.27-.08,.53-.17,.79-.24,.73-.2,1.46-.37,2.18-.58,.88-.25,1.75-.53,2.63-.8,.83-.25,1.67-.46,2.49-.76,1.84-.67,3.67-1.37,5.49-2.1,1.04-.42,2.04-.9,3.05-1.38,.49-.23,.95-.49,1.42-.75,.96-.54,1.94-1.04,2.86-1.64,.91-.59,1.8-1.22,2.64-1.9,.8-.64,1.56-1.33,2.28-2.07,.69-.71,1.25-1.52,1.6-2.45,.27-.72,.66-1.4,.9-2.13,.29-.87,.52-1.76,.71-2.65,.18-.85,.32-1.71,.42-2.57,.07-.62,.07-1.25,.05-1.87-.03-.8-.08-1.61-.2-2.41-.12-.75-.28-1.51-.54-2.23-.3-.84-.71-1.65-1.11-2.46-.25-.49-.57-.94-.86-1.41,.04-.03,.07-.07,.12-.08,1.36-.55,2.73-1.09,4.09-1.64,.14-.06,.29-.15,.36-.27,.3-.53,.57-1.07,.85-1.61,.47-.92,.94-1.85,1.41-2.77,.23-.45,.04-.91-.44-1.01-.81-.18-1.62-.34-2.43-.51-1.22-.25-2.44-.49-3.66-.72-.47-.09-.93-.3-1.43-.12-.33,.12-.67,.21-1.01,.31-1.31,.38-2.63,.76-3.94,1.13-.5,.14-.96,.23-1.45-.13-1.11-.79-2.25-1.55-3.42-2.26-1.26-.76-2.58-1.44-3.88-2.14-.65-.35-1.33-.67-2-.99-.62-.29-1.24-.57-1.87-.85-.71-.31-1.42-.63-2.15-.93-.55-.22-1.11-.41-1.67-.61-.97-.35-1.93-.71-2.9-1.03-.82-.27-1.66-.5-2.5-.74-.91-.26-1.82-.52-2.74-.76-.7-.18-1.41-.35-2.12-.5-.97-.21-1.94-.41-2.91-.58-.87-.16-1.75-.28-2.63-.4-.8-.11-1.59-.22-2.39-.3-.98-.09-1.97-.17-2.96-.21-.41-.02-.88-.19-1.23,.2-.12,.13-.2,.29-.31,.43-.56,.72-1.2,1.4-1.67,2.17-.64,1.05-1.15,2.17-1.71,3.25Z"/><path class="cls-7" d="M238.2,27.24c.56-1.08,1.07-2.21,1.71-3.25,.47-.77,1.11-1.45,1.67-2.17,.11-.14,.19-.29,.31-.43,.35-.4,.82-.22,1.23-.2,.99,.04,1.98,.12,2.96,.21,.8,.08,1.59,.19,2.39,.3,.88,.12,1.76,.24,2.63,.4,.97,.17,1.94,.38,2.91,.58,.71,.15,1.42,.32,2.12,.5,.92,.24,1.83,.5,2.74,.76,.84,.24,1.68,.46,2.5,.74,.97,.32,1.93,.69,2.9,1.03,.56,.2,1.12,.39,1.67,.61,.72,.29,1.43,.61,2.15,.93,.63,.28,1.25,.55,1.87,.85,.67,.32,1.34,.64,2,.99,1.3,.7,2.61,1.38,3.88,2.14,1.17,.7,2.31,1.46,3.42,2.26,.5,.36,.95,.27,1.45,.13,1.31-.38,2.63-.75,3.94-1.13,.34-.1,.68-.19,1.01-.31,.5-.18,.96,.03,1.43,.12,1.22,.23,2.44,.48,3.66,.72,.81,.16,1.62,.33,2.43,.51,.48,.11,.67,.57,.44,1.01-.47,.92-.94,1.84-1.41,2.77-.28,.54-.55,1.08-.85,1.61-.07,.12-.22,.21-.36,.27-1.36,.55-2.73,1.09-4.09,1.64-.05,.02-.08,.06-.12,.08,.29,.47,.62,.92,.86,1.41,.4,.8,.81,1.61,1.11,2.46,.26,.72,.42,1.47,.54,2.23,.12,.79,.17,1.6,.2,2.41,.03,.62,.02,1.25-.05,1.87-.1,.86-.23,1.72-.42,2.57-.19,.89-.42,1.79-.71,2.65-.24,.73-.63,1.41-.9,2.13-.35,.94-.91,1.75-1.6,2.45-.71,.73-1.48,1.42-2.28,2.07-.84,.68-1.73,1.32-2.64,1.9-.92,.59-1.9,1.1-2.86,1.64-.47,.26-.94,.53-1.42,.75-1.01,.47-2.02,.96-3.05,1.38-1.82,.73-3.65,1.42-5.49,2.1-.81,.3-1.66,.51-2.49,.76-.88,.27-1.75,.55-2.63,.8-.72,.21-1.45,.39-2.18,.58-.26,.07-.52,.16-.79,.24,.93,.72,1.84,1.38,2.7,2.1,.68,.57,1.32,1.2,1.93,1.85,.88,.95,1.76,1.91,2.56,2.92,.49,.61,.85,1.33,1.22,2.02,.34,.64,.66,1.3,.93,1.98,.48,1.22,.7,2.51,.71,3.81,0,1.23-.14,2.48-.63,3.62-.46,1.07-1.08,2.07-1.64,3.09-.33,.59-.97,.75-1.52,1.01-.67,.32-1.36,.58-2.03,.88-1.13,.51-2.26,1.03-3.37,1.58-1.15,.56-2.27,1.16-3.41,1.74-.81,.41-1.64,.79-2.43,1.22-.83,.45-1.63,.96-2.44,1.43-.8,.46-1.62,.89-2.41,1.38-.91,.56-1.8,1.15-2.68,1.77-1.01,.71-2.01,1.42-2.96,2.19-1.13,.91-2.27,1.82-3.3,2.83-.78,.76-1.43,1.66-2.09,2.54-.39,.52-.69,1.12-1.02,1.69-.04,.08-.01,.2-.01,.28-1.41-.07-2.85-.18-4.29-.2-1.45-.02-2.89,.09-4.35,.64,.08-.31,.13-.54,.22-.77,.19-.54,.4-1.06,.6-1.6,.11-.31,.19-.64,.31-.95,.32-.81,.65-1.61,.99-2.41,.28-.65,.54-1.32,.9-1.92,.65-1.07,1.32-2.15,2.09-3.14,.68-.87,1.6-1.54,2.54-2.13,.84-.53,1.69-1.05,2.56-1.54,.56-.32,1.14-.6,1.72-.89,.92-.47,1.84-.94,2.77-1.39,1.41-.68,2.82-1.34,4.23-2,.83-.38,1.68-.72,2.51-1.09,.66-.3,1.31-.64,1.97-.95,.98-.45,1.97-.89,2.95-1.33,.85-.39,1.71-.78,2.56-1.17,.59-.27,1.19-.53,1.77-.83,.69-.36,1.37-.73,2.03-1.14,.56-.35,1.08-.76,1.61-1.16,.08-.06,.14-.23,.12-.32-.34-1.2-.62-2.43-1.07-3.59-.45-1.16-1-2.29-1.65-3.36-.73-1.21-1.58-2.35-2.65-3.3-.81-.72-1.64-1.43-2.5-2.1-.47-.36-1.01-.65-1.55-.91-.21-.1-.52-.09-.75-.04-.83,.2-1.64,.45-2.46,.67-.94,.25-1.88,.49-2.84,.7-.87,.19-1.74,.32-2.62,.47-1.05,.18-2.1,.37-3.16,.5-1.05,.13-2.11,.21-3.17,.26-1.25,.06-2.5,.1-3.75,.08-.96-.02-1.92-.13-2.88-.23-.83-.09-1.66-.18-2.48-.33-.86-.16-1.72-.36-2.56-.61-.85-.25-1.7-.56-2.52-.9-.7-.29-1.38-.64-2.05-1.01-.68-.37-1.36-.76-1.97-1.22-.73-.54-1.42-1.13-2.06-1.77-.62-.61-1.15-1.31-1.74-1.96-.43-.48-.53-1.03-.5-1.65,.03-.87,0-1.74,0-2.6,0-.77,.04-1.54,.06-2.31,0-.11-.03-.22-.04-.27,.13-.11,.24-.2,.34-.28-.02-.03-.03-.07-.05-.1,1.39-.18,2.78-.42,4.17-.54,1.68-.14,3.36-.2,5.05-.25,.96-.03,1.93-.02,2.88,.05,1.27,.09,2.54,.25,3.8,.39,.54,.06,1.07,.1,1.6,.18,.8,.13,1.6,.27,2.39,.44,1.23,.27,2.46,.54,3.67,.86,1,.26,1.99,.54,2.96,.88,1.3,.45,2.59,.94,3.87,1.45,1.01,.41,2.01,.86,2.98,1.35,.4,.2,.78,.27,1.2,.18,1.14-.24,2.28-.47,3.41-.74,1.09-.25,2.17-.51,3.24-.82,1.57-.45,3.14-.89,4.68-1.41,1.54-.52,3.04-1.14,4.56-1.72,.71-.27,1.42-.55,2.12-.87,.72-.32,1.42-.68,2.12-1.04,1.16-.6,2.34-1.18,3.48-1.83,1.13-.64,2.24-1.32,3.32-2.03,1.15-.76,2.29-1.54,3.38-2.38,.91-.7,1.74-1.5,2.61-2.26,.07-.06,.16-.11,.24-.17,.33-.26,.35-.56,.18-.93-.36-.75-.64-1.56-1.08-2.26-.81-1.27-1.7-2.5-2.61-3.71-.68-.91-1.45-1.75-2.19-2.62-.15-.18-.34-.33-.5-.5-.31-.33-.69-.12-1.03-.13-1.16-.03-2.32-.02-3.47-.05-.77-.02-1.53-.06-2.3-.13-1.1-.1-2.21-.19-3.3-.37-1.31-.21-2.6-.49-3.89-.76-.71-.14-1.43-.27-2.13-.47-1.07-.3-2.12-.63-3.17-.97-1.05-.34-2.11-.68-3.14-1.07-.93-.35-1.83-.78-2.74-1.18-.63-.28-1.26-.54-1.87-.85-.94-.49-1.86-1.02-2.79-1.54-.62-.35-1.25-.67-1.86-1.05-.65-.41-1.28-.86-1.92-1.3-.64-.44-1.29-.87-1.91-1.34-.87-.67-1.73-1.36-2.58-2.06-.71-.58-1.39-1.2-2.08-1.8-.13-.11-.25-.24-.45-.42Zm.98-1.1c.17,.06,.24,.1,.33,.11,.46,.06,.92,.11,1.38,.17,1.67,.25,3.34,.49,5.01,.76,.94,.15,1.89,.33,2.82,.53,1.41,.31,2.81,.63,4.21,.98,1.1,.27,2.2,.58,3.29,.9,.83,.24,1.64,.53,2.46,.79,.59,.19,1.18,.36,1.76,.57,.79,.28,1.58,.58,2.35,.9,.91,.37,1.81,.73,2.7,1.15,1.25,.59,2.49,1.22,3.72,1.85,.6,.31,1.2,.65,1.78,1,.89,.54,1.77,1.09,2.63,1.66,.49,.32,.94,.69,1.41,1.05,.44,.34,.87,.67,1.29,1.03,.7,.59,1.4,1.18,2.06,1.8,.6,.57,1.17,1.18,1.72,1.79,.7,.77,1.4,1.56,2.06,2.36,.48,.58,.92,1.2,1.33,1.82,.53,.8,1.06,1.61,1.52,2.46,.36,.67,.62,1.4,.91,2.1,.45,1.09,.7,2.24,.8,3.4,.12,1.39,.04,2.78-.43,4.12-.06,.17-.08,.35-.11,.53,.03,.01,.07,.02,.1,.04,.3-.5,.64-.99,.9-1.51,.27-.55,.48-1.12,.67-1.7,.34-1.02,.69-2.04,.96-3.08,.18-.68,.24-1.4,.34-2.1,.17-1.34,.15-2.68-.04-4.01-.11-.79-.32-1.56-.54-2.33-.32-1.16-.81-2.25-1.53-3.22-.34-.46-.72-.89-1.07-1.34-.3-.39-.54-.84-.87-1.2-.56-.62-1.15-1.22-1.75-1.79-.66-.63-1.36-1.23-2.04-1.84-.65-.59-1.24-1.24-1.94-1.76-.89-.67-1.84-1.26-2.8-1.84-1.19-.72-2.41-1.4-3.63-2.06-1.06-.58-2.14-1.13-3.22-1.67-.83-.41-1.67-.8-2.52-1.16-.9-.38-1.82-.72-2.74-1.07-.51-.2-1.04-.38-1.55-.57-.55-.2-1.09-.42-1.65-.61-.62-.2-1.24-.38-1.86-.56-.82-.24-1.63-.5-2.45-.71-.72-.19-1.45-.32-2.17-.48-.99-.23-1.98-.48-2.98-.68-.84-.16-1.68-.26-2.53-.39-1.14-.17-2.28-.36-3.43-.48-.99-.11-1.99-.14-2.98-.2-.19-.01-.43-.03-.56,.07-.26,.2-.47,.46-.67,.72-.37,.48-.73,.97-1.06,1.48-.47,.72-.9,1.47-1.37,2.24Zm-21.55,37.42c0,.74,.01,1.4,.02,2.06,0,.75,.03,1.51,0,2.26-.02,.53-.03,.54,.47,.49,1.22-.13,2.43-.28,3.65-.34,1.71-.09,3.42-.14,5.13-.15,1.33,0,2.67,.04,4.01,.12,1.2,.07,2.4,.2,3.59,.32,.85,.08,1.71,.16,2.55,.31,1.31,.23,2.61,.5,3.91,.8,1.18,.27,2.36,.59,3.53,.93,.7,.2,1.38,.46,2.06,.71,.76,.29,1.52,.59,2.27,.91,.91,.39,1.82,.76,2.69,1.21,.8,.41,1.56,.89,2.33,1.36,1.07,.65,2.14,1.3,3.2,1.97,1.06,.67,1.92,1.56,2.74,2.48,.82,.91,1.55,1.9,2.12,2.99,.45,.85,.93,1.69,1.3,2.57,.4,.96,.72,1.95,1.02,2.95,.18,.61,.29,1.25,.38,1.88,.08,.56,.12,1.13,.11,1.69-.02,1.15-.09,2.31-.15,3.46-.02,.41-.09,.81-.15,1.27,.61-.25,1.14-.52,1.69-.69,.77-.24,1.35-.68,1.74-1.37,.74-1.32,1.39-2.66,1.65-4.17,.19-1.09,.23-2.16,.05-3.24-.12-.73-.38-1.45-.59-2.16-.42-1.44-1.22-2.69-2.11-3.87-.76-1.02-1.63-1.97-2.54-2.87-1-.99-2.07-1.92-3.17-2.79-.87-.69-1.83-1.28-2.77-1.88-1.15-.73-2.31-1.45-3.47-2.15-.78-.47-1.57-.93-2.39-1.34-.95-.48-1.93-.92-2.9-1.36-.89-.41-1.77-.83-2.68-1.18-1.04-.4-2.12-.74-3.18-1.09-1.04-.34-2.08-.68-3.13-.99-.77-.23-1.55-.43-2.34-.59-1.25-.26-2.5-.49-3.76-.69-.87-.14-1.76-.24-2.64-.32-.98-.09-1.96-.15-2.95-.2-.74-.04-1.48-.05-2.23-.04-1.25,.02-2.5,.04-3.75,.11-.92,.05-1.85,.16-2.77,.28-.85,.11-1.7,.26-2.54,.4Zm46.33,26.17c-.42,.3-.74,.57-1.1,.78-.78,.45-1.57,.88-2.37,1.29-1.11,.56-2.23,1.11-3.35,1.64-.86,.4-1.75,.76-2.62,1.15-1.39,.64-2.78,1.29-4.16,1.93-.79,.37-1.58,.75-2.37,1.12-.76,.35-1.53,.69-2.29,1.04-.64,.3-1.28,.63-1.91,.95-1.21,.61-2.45,1.17-3.62,1.83-1.49,.84-2.98,1.67-4.28,2.81-.69,.61-1.29,1.29-1.79,2.04-.39,.59-.75,1.2-1.08,1.82-.41,.79-.79,1.59-1.15,2.4-.3,.68-.55,1.38-.81,2.08-.25,.67-.48,1.35-.74,2.07,2.54-.46,4.99-.29,7.37,0,.56-.81,1.08-1.6,1.63-2.37,.36-.49,.73-.99,1.15-1.42,.74-.75,1.5-1.47,2.29-2.16,.74-.65,1.51-1.25,2.29-1.85,.76-.57,1.53-1.12,2.31-1.66,.64-.45,1.29-.89,1.94-1.31,.67-.43,1.36-.83,2.04-1.24,.82-.49,1.63-.98,2.46-1.45,.67-.38,1.36-.73,2.05-1.09,.83-.44,1.66-.89,2.5-1.32,.79-.4,1.59-.78,2.38-1.17,.72-.35,1.46-.69,2.17-1.05,.32-.16,.72-.26,.77-.72,.04-.34,.1-.68,.13-1.03,.07-.82,.15-1.64,.17-2.47,.02-.86-.02-1.72-.03-2.64Zm21.86-36.73c-.21,.13-.32,.17-.4,.24-.77,.68-1.51,1.4-2.32,2.04-.85,.68-1.74,1.29-2.63,1.91-.9,.63-1.8,1.28-2.75,1.84-1.17,.7-2.38,1.35-3.6,1.99-1.13,.59-2.28,1.17-3.44,1.69-1.62,.72-3.24,1.43-4.9,2.04-1.97,.72-3.97,1.34-5.98,1.95-1.2,.37-2.42,.66-3.64,.95-.85,.2-1.71,.35-2.57,.52-.38,.08-.76,.18-1.14,.27,.27,.24,.55,.38,.82,.53,.78,.43,1.56,.86,2.34,1.31,.57,.33,1.12,.68,1.67,1.03,.54,.34,1.04,.73,1.6,1.05,.3,.17,.53,.54,1,.38,.88-.29,1.77-.53,2.66-.79,1.29-.37,2.59-.72,3.87-1.13,1.39-.45,2.77-.93,4.13-1.45,1.6-.62,3.2-1.25,4.77-1.96,1.28-.58,2.54-1.22,3.77-1.91,1.09-.61,2.15-1.29,3.19-2,.66-.45,1.31-.96,1.84-1.54,.49-.53,.87-1.18,1.19-1.82,.34-.69,.67-1.42,.78-2.16,.15-.95,.13-1.93,.08-2.89-.03-.67-.22-1.34-.35-2.08Zm-7.83-11.08c-.16-.18-.26-.33-.4-.44-1.15-.96-2.29-1.93-3.48-2.85-.87-.67-1.8-1.26-2.73-1.85-.47-.3-.88-.71-1.5-.77-.78-.08-1.56-.2-2.33-.33-1.11-.2-2.22-.42-3.33-.66-1.2-.26-2.41-.52-3.59-.85-1.05-.29-2.07-.66-3.09-1.03-1.05-.39-2.08-.8-3.11-1.24-1.76-.76-3.41-1.72-4.88-2.96-.21-.18-.42-.39-.67-.49-.4-.15-.84-.23-1.26-.31-1.01-.19-2.03-.37-3.04-.53-.86-.14-1.73-.27-2.59-.39-.92-.12-1.85-.22-2.77-.32-.11-.01-.22,.04-.33,.06,.03,.12,.03,.26,.1,.35,.16,.19,.35,.36,.54,.52,.69,.58,1.38,1.18,2.1,1.74,1.18,.92,2.36,1.85,3.57,2.72,.79,.57,1.62,1.07,2.46,1.57,1.26,.74,2.52,1.47,3.81,2.14,1.17,.6,2.38,1.12,3.58,1.67,.7,.31,1.4,.62,2.11,.89,.78,.29,1.57,.54,2.36,.79,.72,.23,1.43,.45,2.16,.65,.86,.24,1.72,.47,2.59,.67,1.02,.22,2.04,.41,3.07,.59,.49,.09,.99,.14,1.49,.2,1.27,.15,2.53,.33,3.8,.43,1,.08,2,.09,3,.1,.77,0,1.54-.03,2.35-.05Zm-24.69,33.03c-.06-.06-.09-.13-.14-.16-1.14-.61-2.28-1.23-3.44-1.81-.71-.36-1.45-.67-2.2-.97-.75-.3-1.51-.57-2.28-.82-.45-.14-.88-.42-1.4-.25-1.02,.34-2.02,.75-3.07,.99-1.16,.27-2.35,.38-3.53,.56-1.43,.22-2.86,.2-4.3,.15-1.29-.05-2.57-.21-3.83-.46-.5-.1-1.01-.18-1.51-.32-.58-.16-1.14-.36-1.71-.56-.55-.19-1.1-.37-1.63-.6-.62-.28-1.23-.62-1.83-.95-.48-.26-.96-.54-1.43-.82-.27-.16-.5-.38-.86-.25-.17,.06-.37,.05-.56,.06-.58,.05-1.16,.1-1.73,.16-.26,.03-.39,.25-.25,.44,.27,.37,.53,.76,.84,1.1,.6,.66,1.21,1.32,1.86,1.95,.41,.39,.87,.74,1.34,1.07,.45,.33,.93,.63,1.41,.91,.58,.35,1.16,.72,1.79,.98,1.02,.42,2.07,.79,3.13,1.12,.87,.27,1.76,.5,2.65,.67,.82,.16,1.66,.25,2.49,.31,1.44,.1,2.89,.19,4.33,.21,1.07,.01,2.15-.06,3.22-.15,1.07-.09,2.14-.23,3.2-.38,.86-.12,1.71-.28,2.56-.45,1.18-.23,2.36-.45,3.52-.73,1.05-.25,2.08-.58,3.11-.88,.08-.02,.15-.08,.23-.13Zm27.05-40.83c.65,.6,1.23,1.15,1.82,1.69,.52,.49,1.06,.96,1.57,1.45,.52,.5,1.03,1.02,1.52,1.55,.38,.4,.72,.84,1.09,1.25,.06,.06,.22,.08,.31,.05,1.14-.45,2.28-.91,3.42-1.38,.4-.17,.84-.28,1.06-.73,.41-.84,.86-1.65,1.29-2.48,.24-.46,.47-.92,.71-1.39-1.24-.26-2.42-.52-3.61-.76-.75-.15-1.5-.27-2.25-.44-.77-.18-1.52-.26-2.3-.03-1.04,.31-2.11,.56-3.16,.83-.46,.12-.92,.24-1.48,.38Zm-58.56,34.53c.05,.11,.06,.2,.11,.22,.73,.4,1.46,.82,2.21,1.17,.72,.33,1.46,.61,2.22,.84,1.17,.35,2.35,.73,3.55,.93,1.27,.21,2.57,.25,3.85,.34,1.54,.12,3.07-.05,4.59-.26,.8-.11,1.59-.26,2.38-.44,.72-.17,1.42-.41,2.13-.63,.07-.02,.12-.12,.17-.19-.07-.06-.13-.14-.2-.16-1.12-.27-2.24-.56-3.37-.79-1.04-.21-2.09-.38-3.14-.54-.98-.14-1.96-.25-2.95-.35-.97-.09-1.94-.17-2.91-.22-1.05-.06-2.1-.11-3.14-.12-1.13-.01-2.26,.02-3.39,.05-.69,.02-1.37,.09-2.11,.14Zm46.85-33.43s.02-.06,.02-.08c-.3-.15-.6-.29-.9-.44-1.42-.67-2.83-1.37-4.27-1.99-1.29-.55-2.61-1.02-3.93-1.49-.95-.34-1.91-.64-2.87-.93-.96-.29-1.93-.58-2.9-.83-1.08-.28-2.17-.53-3.26-.79-.06-.01-.13,.04-.2,.06,.02,.05,.03,.11,.07,.14,.31,.23,.61,.49,.94,.69,.77,.47,1.54,.94,2.34,1.36,.78,.41,1.58,.77,2.38,1.11,.58,.24,1.19,.4,1.78,.61,.73,.25,1.44,.55,2.18,.76,1.19,.34,2.4,.63,3.61,.92,.75,.18,1.52,.31,2.28,.47,.53,.11,1.06,.23,1.6,.32,.36,.06,.74,.08,1.11,.12Z"/><path class="cls-5" d="M239.18,26.14c.47-.77,.9-1.52,1.37-2.24,.33-.51,.69-.99,1.06-1.48,.2-.26,.42-.52,.67-.72,.13-.1,.37-.08,.56-.07,1,.06,1.99,.09,2.98,.2,1.15,.12,2.28,.31,3.43,.48,.84,.12,1.69,.22,2.53,.39,1,.2,1.99,.45,2.98,.68,.72,.16,1.45,.3,2.17,.48,.82,.21,1.64,.47,2.45,.71,.62,.18,1.25,.36,1.86,.56,.56,.18,1.1,.41,1.65,.61,.52,.19,1.04,.37,1.55,.57,.91,.35,1.83,.69,2.74,1.07,.85,.36,1.69,.75,2.52,1.16,1.08,.54,2.16,1.09,3.22,1.67,1.22,.67,2.44,1.35,3.63,2.06,.96,.58,1.91,1.17,2.8,1.84,.7,.52,1.29,1.18,1.94,1.76,.68,.62,1.38,1.21,2.04,1.84,.61,.58,1.2,1.17,1.75,1.79,.33,.37,.57,.81,.87,1.2,.35,.45,.73,.88,1.07,1.34,.72,.98,1.21,2.07,1.53,3.22,.22,.77,.42,1.54,.54,2.33,.19,1.33,.21,2.68,.04,4.01-.09,.7-.16,1.42-.34,2.1-.27,1.04-.62,2.06-.96,3.08-.19,.58-.41,1.15-.67,1.7-.26,.52-.6,1.01-.9,1.51-.03-.01-.07-.02-.1-.04,.04-.18,.05-.36,.11-.53,.48-1.34,.55-2.73,.43-4.12-.1-1.16-.36-2.31-.8-3.4-.29-.71-.55-1.43-.91-2.1-.46-.84-.98-1.65-1.52-2.46-.42-.63-.86-1.24-1.33-1.82-.66-.81-1.35-1.59-2.06-2.36-.56-.61-1.12-1.22-1.72-1.79-.66-.63-1.37-1.21-2.06-1.8-.42-.36-.86-.69-1.29-1.03-.46-.36-.92-.73-1.41-1.05-.87-.57-1.75-1.12-2.63-1.66-.58-.35-1.17-.69-1.78-1-1.23-.63-2.47-1.26-3.72-1.85-.88-.42-1.79-.78-2.7-1.15-.78-.32-1.56-.62-2.35-.9-.58-.21-1.18-.38-1.76-.57-.82-.26-1.63-.55-2.46-.79-1.09-.32-2.19-.62-3.29-.9-1.4-.35-2.8-.67-4.21-.98-.93-.2-1.87-.38-2.82-.53-1.67-.27-3.34-.51-5.01-.76-.46-.07-.92-.11-1.38-.17-.08-.01-.16-.05-.33-.11Z"/><path class="cls-5" d="M217.63,63.56c.85-.13,1.69-.29,2.54-.4,.92-.12,1.84-.23,2.77-.28,1.25-.07,2.5-.09,3.75-.11,.74-.01,1.48,0,2.23,.04,.98,.05,1.97,.11,2.95,.2,.88,.08,1.77,.18,2.64,.32,1.26,.2,2.51,.44,3.76,.69,.79,.16,1.57,.36,2.34,.59,1.05,.31,2.09,.64,3.13,.99,1.07,.35,2.14,.69,3.18,1.09,.91,.35,1.79,.78,2.68,1.18,.97,.44,1.95,.88,2.9,1.36,.81,.41,1.6,.87,2.39,1.34,1.17,.7,2.33,1.42,3.47,2.15,.94,.6,1.9,1.19,2.77,1.88,1.1,.87,2.17,1.8,3.17,2.79,.91,.9,1.78,1.85,2.54,2.87,.89,1.18,1.69,2.44,2.11,3.87,.21,.72,.47,1.43,.59,2.16,.18,1.07,.13,2.15-.05,3.24-.26,1.51-.92,2.85-1.65,4.17-.39,.69-.97,1.13-1.74,1.37-.56,.18-1.08,.44-1.69,.69,.06-.46,.13-.86,.15-1.27,.07-1.15,.13-2.31,.15-3.46,.01-.56-.03-1.13-.11-1.69-.09-.63-.2-1.27-.38-1.88-.3-.99-.62-1.99-1.02-2.95-.37-.88-.85-1.72-1.3-2.57-.57-1.09-1.3-2.08-2.12-2.99-.82-.92-1.68-1.81-2.74-2.48-1.06-.67-2.13-1.32-3.2-1.97-.77-.47-1.53-.95-2.33-1.36-.88-.45-1.79-.82-2.69-1.21-.75-.32-1.51-.62-2.27-.91-.68-.26-1.36-.51-2.06-.71-1.17-.33-2.34-.65-3.53-.93-1.3-.3-2.6-.57-3.91-.8-.84-.15-1.7-.22-2.55-.31-1.2-.12-2.39-.25-3.59-.32-1.33-.08-2.67-.12-4.01-.12-1.71,0-3.42,.06-5.13,.15-1.22,.06-2.43,.22-3.65,.34-.5,.05-.49,.04-.47-.49,.03-.75,0-1.5,0-2.26,0-.66-.01-1.32-.02-2.06Z"/><path class="cls-5" d="M263.96,89.73c.01,.93,.05,1.78,.03,2.64-.02,.82-.1,1.64-.17,2.47-.03,.34-.09,.68-.13,1.03-.05,.45-.45,.56-.77,.72-.72,.36-1.45,.7-2.17,1.05-.8,.39-1.6,.77-2.38,1.17-.84,.43-1.67,.88-2.5,1.32-.68,.36-1.38,.71-2.05,1.09-.83,.47-1.64,.96-2.46,1.45-.68,.41-1.37,.81-2.04,1.24-.66,.42-1.3,.86-1.94,1.31-.78,.54-1.56,1.09-2.31,1.66-.78,.59-1.56,1.2-2.29,1.85-.79,.69-1.55,1.42-2.29,2.16-.43,.43-.8,.93-1.15,1.42-.56,.77-1.08,1.56-1.63,2.37-2.38-.29-4.83-.45-7.37,0,.26-.73,.49-1.4,.74-2.07,.26-.7,.51-1.4,.81-2.08,.36-.81,.74-1.62,1.15-2.4,.33-.62,.69-1.23,1.08-1.82,.5-.76,1.1-1.43,1.79-2.04,1.29-1.14,2.79-1.97,4.28-2.81,1.18-.66,2.41-1.23,3.62-1.83,.64-.32,1.27-.64,1.91-.95,.76-.36,1.53-.69,2.29-1.04,.79-.37,1.58-.75,2.37-1.12,1.39-.65,2.77-1.3,4.16-1.93,.87-.4,1.75-.75,2.62-1.15,1.13-.53,2.24-1.08,3.35-1.64,.8-.41,1.59-.84,2.37-1.29,.36-.21,.68-.48,1.1-.78Z"/><path class="cls-5" d="M285.82,53.01c.13,.74,.32,1.4,.35,2.08,.04,.96,.06,1.95-.08,2.89-.12,.74-.44,1.48-.78,2.16-.32,.65-.71,1.29-1.19,1.82-.54,.59-1.18,1.09-1.84,1.54-1.03,.71-2.09,1.39-3.19,2-1.23,.69-2.48,1.33-3.77,1.91-1.57,.7-3.17,1.34-4.77,1.96-1.36,.52-2.74,1-4.13,1.45-1.28,.41-2.58,.76-3.87,1.13-.89,.26-1.79,.5-2.66,.79-.47,.16-.7-.21-1-.38-.55-.32-1.06-.7-1.6-1.05-.55-.35-1.1-.7-1.67-1.03-.77-.45-1.56-.87-2.34-1.31-.27-.15-.55-.29-.82-.53,.38-.09,.76-.19,1.14-.27,.86-.18,1.72-.32,2.57-.52,1.22-.29,2.44-.58,3.64-.95,2-.61,4.01-1.24,5.98-1.95,1.66-.6,3.28-1.32,4.9-2.04,1.17-.52,2.31-1.1,3.44-1.69,1.21-.64,2.42-1.29,3.6-1.99,.95-.57,1.84-1.21,2.75-1.84,.89-.62,1.79-1.24,2.63-1.91,.8-.64,1.55-1.36,2.32-2.04,.08-.07,.19-.12,.4-.24Z"/><path class="cls-5" d="M277.99,41.93c-.82,.02-1.59,.06-2.35,.05-1,0-2.01-.02-3-.1-1.27-.1-2.53-.28-3.8-.43-.5-.06-1-.12-1.49-.2-1.03-.18-2.05-.37-3.07-.59-.87-.19-1.73-.43-2.59-.67-.72-.2-1.44-.42-2.16-.65-.79-.25-1.58-.5-2.36-.79-.72-.27-1.42-.57-2.11-.89-1.2-.54-2.41-1.06-3.58-1.67-1.3-.67-2.56-1.41-3.81-2.14-.84-.49-1.67-1-2.46-1.57-1.21-.88-2.39-1.8-3.57-2.72-.71-.56-1.4-1.15-2.1-1.74-.19-.16-.38-.33-.54-.52-.07-.09-.07-.23-.1-.35,.11-.02,.22-.07,.33-.06,.92,.1,1.85,.2,2.77,.32,.87,.11,1.73,.25,2.59,.39,1.02,.17,2.03,.34,3.04,.53,.43,.08,.86,.16,1.26,.31,.25,.09,.46,.31,.67,.49,1.47,1.24,3.11,2.2,4.88,2.96,1.02,.44,2.06,.86,3.11,1.24,1.02,.38,2.05,.74,3.09,1.03,1.18,.33,2.39,.59,3.59,.85,1.11,.24,2.22,.46,3.33,.66,.77,.14,1.55,.25,2.33,.33,.61,.06,1.03,.48,1.5,.77,.93,.59,1.86,1.18,2.73,1.85,1.19,.91,2.33,1.89,3.48,2.85,.13,.11,.24,.26,.4,.44Z"/><path class="cls-5" d="M253.3,74.96c-.08,.05-.15,.11-.23,.13-1.04,.3-2.07,.63-3.11,.88-1.16,.28-2.34,.5-3.52,.73-.85,.17-1.7,.33-2.56,.45-1.06,.15-2.13,.29-3.2,.38-1.07,.09-2.15,.17-3.22,.15-1.44-.02-2.89-.11-4.33-.21-.83-.06-1.67-.15-2.49-.31-.9-.17-1.78-.4-2.65-.67-1.06-.33-2.1-.7-3.13-1.12-.63-.26-1.2-.63-1.79-.98-.48-.29-.96-.59-1.41-.91-.46-.33-.93-.68-1.34-1.07-.65-.62-1.26-1.28-1.86-1.95-.31-.34-.57-.72-.84-1.1-.14-.19-.01-.41,.25-.44,.58-.06,1.16-.11,1.73-.16,.19-.02,.39,0,.56-.06,.36-.13,.59,.09,.86,.25,.47,.28,.94,.56,1.43,.82,.6,.33,1.2,.66,1.83,.95,.53,.24,1.08,.41,1.63,.6,.57,.2,1.13,.4,1.71,.56,.49,.14,1,.22,1.51,.32,1.26,.25,2.54,.41,3.83,.46,1.44,.05,2.87,.07,4.3-.15,1.18-.18,2.37-.29,3.53-.56,1.04-.24,2.05-.65,3.07-.99,.52-.17,.95,.11,1.4,.25,.77,.24,1.53,.52,2.28,.82,.74,.3,1.48,.61,2.2,.97,1.16,.58,2.29,1.2,3.44,1.81,.05,.03,.08,.09,.14,.16Z"/><path class="cls-5" d="M280.35,34.13c.56-.14,1.02-.26,1.48-.38,1.05-.27,2.12-.52,3.16-.83,.78-.23,1.53-.15,2.3,.03,.74,.17,1.5,.29,2.25,.44,1.19,.24,2.37,.5,3.61,.76-.24,.47-.47,.93-.71,1.39-.43,.83-.88,1.65-1.29,2.48-.22,.45-.66,.57-1.06,.73-1.14,.47-2.28,.93-3.42,1.38-.09,.03-.25,.01-.31-.05-.37-.41-.71-.85-1.09-1.25-.49-.53-1-1.04-1.52-1.55-.51-.5-1.05-.97-1.57-1.45-.59-.54-1.17-1.09-1.82-1.69Z"/><path class="cls-5" d="M221.79,68.66c.74-.05,1.43-.11,2.11-.14,1.13-.04,2.26-.06,3.39-.05,1.05,0,2.1,.06,3.14,.12,.97,.05,1.94,.13,2.91,.22,.98,.1,1.97,.2,2.95,.35,1.05,.15,2.1,.32,3.14,.54,1.13,.23,2.25,.52,3.37,.79,.08,.02,.14,.11,.2,.16-.06,.06-.1,.17-.17,.19-.71,.22-1.41,.46-2.13,.63-.78,.18-1.58,.33-2.38,.44-1.52,.21-3.05,.38-4.59,.26-1.29-.1-2.59-.13-3.85-.34-1.2-.2-2.38-.58-3.55-.93-.76-.23-1.5-.51-2.22-.84-.76-.35-1.48-.77-2.21-1.17-.04-.02-.05-.11-.11-.22Z"/><path class="cls-5" d="M268.64,35.23c-.37-.04-.74-.06-1.11-.12-.54-.09-1.07-.21-1.6-.32-.76-.15-1.52-.29-2.28-.47-1.21-.29-2.42-.58-3.61-.92-.74-.21-1.45-.51-2.18-.76-.59-.21-1.2-.37-1.78-.61-.81-.34-1.61-.7-2.38-1.11-.8-.42-1.57-.89-2.34-1.36-.33-.2-.63-.45-.94-.69-.04-.03-.05-.1-.07-.14,.07-.02,.14-.07,.2-.06,1.09,.26,2.18,.51,3.26,.79,.97,.26,1.94,.54,2.9,.83,.96,.29,1.92,.59,2.87,.93,1.32,.47,2.64,.94,3.93,1.49,1.44,.62,2.85,1.32,4.27,1.99,.3,.14,.6,.29,.9,.44,0,.03-.02,.06-.02,.08Z"/></g><path class="cls-14" d="M305.1,348.57c-.35-.53-1.54-1.1-3.12-1.39-2.92-.54-4.71,.16-5.35,.65-.76,.58-3.3,2.5-2.92,5.19,.38,2.66,3.48,4.03,5.25,4.43,3.87,.85,6.93-1.71,7.32-2.05l4.72-24.33,11.24-1.38,.72-6.73-12.86,.72-5,24.9Z"/><g><path class="cls-10" d="M160.89,342.99c.29-.08,.47-.12,.65-.17,.95-.29,1.91-.56,2.85-.88,1.13-.37,2.26-.76,3.38-1.18,.79-.29,1.55-.65,2.33-.98,.77-.33,1.54-.64,2.29-1.01,.69-.33,1.35-.72,2.02-1.09,1.01-.55,2.02-1.09,3.01-1.67,.64-.37,1.24-.8,1.85-1.21,.88-.6,1.79-1.18,2.64-1.82,.95-.71,1.86-1.48,2.77-2.24,.91-.76,1.81-1.53,2.69-2.33,.57-.53,1.1-1.1,1.63-1.67,.97-1.03,1.96-2.04,2.89-3.1,.78-.89,1.48-1.84,2.2-2.78,.49-.65,.96-1.33,1.4-2.01,.68-1.03,1.32-2.08,1.99-3.11,.2-.31,.22-.77,.7-.86,.25-.05,.5-.14,.75-.18,1.22-.18,2.45-.4,3.68-.51,1.64-.15,3.29-.26,4.94-.28,.91-.01,1.82,.19,2.73,.29,.44,.04,.71,.24,.77,.68,.01,.1,0,.21,.02,.31,.22,1.21,.51,2.41,.66,3.62,.18,1.46,.27,2.93,.34,4.4,.06,1.38,.08,2.77,.04,4.15-.03,1.39-.14,2.78-.23,4.17-.05,.83-.11,1.67-.21,2.5-.1,.8-.23,1.61-.37,2.4-.3,1.7-.57,3.41-.94,5.09-.37,1.69-.83,3.36-1.29,5.02-.31,1.14-.68,2.27-1.05,3.39-.39,1.17-.81,2.33-1.22,3.5-.15,.43-.43,.73-.84,.98-1,.61-1.98,1.26-2.93,1.94-1.2,.87-2.38,1.76-3.53,2.69-.86,.69-1.68,1.43-2.48,2.19-.98,.93-1.92,1.88-2.86,2.85-.61,.62-1.19,1.27-1.76,1.92-.38,.43-.72,.9-1.07,1.35-.83,1.07-1.7,2.13-2.49,3.23-.6,.83-1.15,1.7-1.66,2.58-.89,1.55-1.79,3.11-2.59,4.71-.67,1.33-1.23,2.72-1.83,4.08,.04,0,.08,0,.12,0,.02,.14,.05,.29,.07,.47,.05,.02,.17,.05,.27,.12,.71,.45,1.41,.91,2.13,1.34,.81,.49,1.65,.94,2.44,1.46,.57,.37,1.14,.59,1.83,.47,.94-.17,1.89-.25,2.81-.47,.96-.23,1.9-.52,2.82-.88,.78-.3,1.52-.7,2.25-1.1,.72-.4,1.43-.82,2.09-1.29,.78-.55,1.54-1.15,2.26-1.78,.7-.62,1.37-1.28,2.01-1.97,.6-.66,1.15-1.36,1.7-2.06,.63-.81,1.27-1.62,1.83-2.48,.72-1.12,1.38-2.28,2.03-3.44,.55-.99,1.07-1.99,1.54-3.02,.47-1.03,.88-2.09,1.3-3.14,.35-.87,.72-1.74,1.03-2.63,.34-.98,.64-1.97,.93-2.96,.26-.86,.48-1.74,.75-2.6,.08-.25,.24-.53,.46-.66,.54-.34,1.11-.67,1.72-.89,1.1-.41,2.23-.76,3.36-1.09,1.49-.43,3.04-.57,4.58-.55,1.36,.01,2.73,.15,4.07,.39,1.34,.24,2.65,.67,3.97,1.04,.1,.03,.23,.18,.24,.29,.08,.7,.17,1.4,.19,2.11,.02,.82-.02,1.65-.07,2.47-.04,.69-.14,1.38-.21,2.06-.11,.99-.22,1.98-.33,2.97-.13,1.14-.28,2.28-.4,3.42-.08,.77-.13,1.54-.22,2.31-.11,.96-.27,1.92-.38,2.88-.18,1.65-.35,3.3-.5,4.95-.1,1.09-.17,2.19-.25,3.29-.05,.68-.11,1.37-.12,2.05-.02,1.06,0,2.12,.01,3.18,.03,1.19,.14,2.39,.58,3.5,.5,1.25,1.13,2.46,1.77,3.65,.36,.67,.84,1.28,1.3,1.89,.55,.76,1.13,1.51,1.71,2.25,.22,.29,.49,.54,.72,.82,.39,.48,.77,.96,1.17,1.44,.17,.2,.36,.38,.6,.63,.3-1.62,1.01-2.99,1.84-4.29,.82-1.29,1.73-2.53,2.59-3.77-.07-.04-.2-.08-.25-.17-.35-.62-.74-1.22-1.01-1.87-.45-1.09-.93-2.18-1.21-3.31-.37-1.5-.59-3.04-.81-4.58-.18-1.3-.29-2.6-.39-3.91-.09-1.14-.14-2.28-.16-3.42-.02-.98,.04-1.97,.06-2.95,.01-1-.01-2.01,.03-3.01,.04-.96,.15-1.92,.21-2.89,.1-1.35,.17-2.71,.28-4.06,.11-1.31,.26-2.63,.41-3.94,.09-.78,.23-1.55,.31-2.33,.06-.65,.28-1.32-.09-1.94-.65-1.08-1.23-2.21-1.98-3.22-.79-1.08-1.88-1.91-3.04-2.6-1.23-.72-2.56-1.24-3.98-1.49-.78-.14-1.58-.22-2.37-.27-.86-.05-1.73-.12-2.58-.02-1.4,.16-2.79,.41-4.18,.68-.95,.18-1.89,.42-2.81,.71-1.15,.37-2.28,.82-3.48,1.26,.07-.29,.14-.57,.22-.85,.22-.77,.47-1.53,.68-2.3,.25-.94,.48-1.88,.72-2.83,.23-.89,.5-1.77,.68-2.68,.4-2.04,.77-4.09,1.11-6.14,.19-1.17,.3-2.35,.42-3.53,.06-.57,.07-1.14,.09-1.71,.03-1.17,.11-2.34,.07-3.51-.04-1.15-.14-2.31-.31-3.46-.16-1.08-.38-2.16-.66-3.22-.28-1.02-.72-1.98-1.41-2.82-.52-.65-.95-1.38-1.49-2.01-.65-.75-1.36-1.46-2.09-2.13-.69-.64-1.42-1.25-2.18-1.82-.54-.41-1.13-.77-1.73-1.09-.77-.42-1.56-.83-2.37-1.17-.77-.32-1.58-.59-2.39-.76-.96-.2-1.95-.28-2.93-.37-.59-.05-1.2,0-1.81,0,0-.05-.02-.1-.01-.15,.25-1.54,.51-3.08,.75-4.62,.02-.15,.03-.35-.05-.48-.33-.57-.68-1.12-1.04-1.67-.6-.94-1.21-1.88-1.8-2.82-.29-.46-.83-.55-1.2-.17-.62,.63-1.23,1.27-1.84,1.92-.91,.97-1.83,1.93-2.73,2.91-.35,.38-.8,.68-.91,1.23-.07,.37-.18,.73-.27,1.09-.38,1.4-.76,2.8-1.14,4.2-.15,.54-.32,.99-.94,1.24-1.37,.56-2.72,1.16-4.03,1.83-1.42,.72-2.79,1.53-4.18,2.31-.7,.4-1.37,.82-2.05,1.25-.62,.4-1.23,.81-1.84,1.22-.69,.47-1.39,.93-2.07,1.42-.52,.37-1.01,.78-1.51,1.17-.87,.68-1.75,1.34-2.59,2.04-.72,.59-1.4,1.23-2.09,1.85-.75,.68-1.51,1.36-2.25,2.05-.56,.53-1.12,1.08-1.65,1.64-.74,.76-1.47,1.52-2.18,2.31-.64,.7-1.24,1.43-1.85,2.16-.55,.66-1.1,1.31-1.62,2-.64,.84-1.26,1.69-1.86,2.56-.25,.36-.68,.69-.5,1.23,.06,.18,.16,.34,.23,.52,.36,.91,.64,1.87,1.1,2.73,.63,1.16,1.39,2.25,2.09,3.37Z"/><path class="cls-13" d="M160.89,342.99c-.7-1.12-1.47-2.21-2.09-3.37-.46-.86-.74-1.82-1.1-2.73-.07-.17-.17-.34-.23-.52-.18-.54,.25-.86,.5-1.23,.59-.87,1.22-1.72,1.86-2.56,.52-.68,1.07-1.34,1.62-2,.61-.73,1.21-1.46,1.85-2.16,.71-.78,1.44-1.55,2.18-2.31,.54-.56,1.09-1.1,1.65-1.64,.74-.7,1.49-1.37,2.25-2.05,.69-.62,1.37-1.26,2.09-1.85,.85-.7,1.73-1.37,2.59-2.04,.5-.39,.99-.8,1.51-1.17,.68-.49,1.38-.95,2.07-1.42,.61-.41,1.22-.82,1.84-1.22,.67-.43,1.35-.86,2.05-1.25,1.38-.79,2.76-1.59,4.18-2.31,1.31-.67,2.67-1.27,4.03-1.83,.61-.25,.79-.71,.94-1.24,.38-1.4,.76-2.8,1.14-4.2,.1-.36,.2-.72,.27-1.09,.11-.55,.57-.85,.91-1.23,.9-.98,1.82-1.95,2.73-2.91,.61-.64,1.22-1.28,1.84-1.92,.37-.38,.91-.29,1.2,.17,.6,.94,1.2,1.88,1.8,2.82,.35,.55,.71,1.1,1.04,1.67,.07,.13,.07,.32,.05,.48-.24,1.54-.5,3.08-.75,4.62,0,.05,0,.11,.01,.15,.61,0,1.21-.04,1.81,0,.98,.08,1.97,.17,2.93,.37,.82,.17,1.62,.44,2.39,.76,.82,.33,1.6,.75,2.37,1.17,.6,.33,1.19,.68,1.73,1.09,.75,.57,1.48,1.18,2.18,1.82,.73,.68,1.44,1.38,2.09,2.13,.55,.63,.97,1.36,1.49,2.01,.68,.84,1.13,1.8,1.41,2.82,.29,1.06,.51,2.14,.66,3.22,.16,1.14,.27,2.3,.31,3.46,.04,1.17-.03,2.34-.07,3.51-.02,.57-.03,1.14-.09,1.71-.12,1.18-.23,2.36-.42,3.53-.33,2.05-.71,4.1-1.11,6.14-.18,.9-.45,1.78-.68,2.68-.24,.94-.47,1.89-.72,2.83-.21,.77-.45,1.53-.68,2.3-.08,.28-.14,.56-.22,.85,1.2-.44,2.33-.89,3.48-1.26,.92-.29,1.86-.53,2.81-.71,1.38-.27,2.78-.52,4.18-.68,.85-.1,1.72-.03,2.58,.02,.79,.05,1.59,.13,2.37,.27,1.42,.25,2.75,.77,3.98,1.49,1.16,.68,2.24,1.52,3.04,2.6,.75,1.01,1.33,2.14,1.98,3.22,.37,.63,.16,1.3,.09,1.94-.08,.78-.22,1.55-.31,2.33-.15,1.31-.3,2.62-.41,3.94-.12,1.35-.19,2.71-.28,4.06-.07,.96-.18,1.92-.21,2.89-.04,1-.01,2.01-.03,3.01-.01,.98-.07,1.97-.06,2.95,.02,1.14,.07,2.28,.16,3.42,.1,1.31,.21,2.61,.39,3.91,.22,1.53,.44,3.07,.81,4.58,.28,1.13,.76,2.23,1.21,3.31,.27,.65,.66,1.25,1.01,1.87,.05,.08,.18,.12,.25,.17-.86,1.24-1.77,2.48-2.59,3.77-.83,1.3-1.54,2.67-1.84,4.29-.24-.25-.43-.43-.6-.63-.4-.47-.77-.96-1.17-1.44-.23-.28-.5-.53-.72-.82-.58-.74-1.15-1.49-1.71-2.25-.45-.62-.94-1.22-1.3-1.89-.64-1.19-1.27-2.4-1.77-3.65-.44-1.11-.55-2.31-.58-3.5-.02-1.06-.03-2.12-.01-3.18,.01-.68,.08-1.37,.12-2.05,.08-1.1,.15-2.19,.25-3.29,.15-1.65,.32-3.3,.5-4.95,.11-.96,.27-1.92,.38-2.88,.09-.77,.13-1.54,.22-2.31,.12-1.14,.27-2.28,.4-3.42,.11-.99,.22-1.98,.33-2.97,.08-.69,.17-1.37,.21-2.06,.05-.82,.09-1.65,.07-2.47-.02-.7-.11-1.41-.19-2.11-.01-.11-.14-.26-.24-.29-1.32-.36-2.62-.8-3.97-1.04-1.34-.24-2.71-.38-4.07-.39-1.54-.02-3.09,.12-4.58,.55-1.13,.33-2.26,.68-3.36,1.09-.6,.22-1.17,.55-1.72,.89-.21,.13-.38,.41-.46,.66-.28,.86-.49,1.74-.75,2.6-.3,.99-.59,1.98-.93,2.96-.31,.89-.68,1.76-1.03,2.63-.42,1.05-.83,2.11-1.3,3.14-.47,1.02-.99,2.03-1.54,3.02-.65,1.16-1.31,2.32-2.03,3.44-.55,.86-1.2,1.67-1.83,2.48-.54,.7-1.1,1.41-1.7,2.06-.63,.69-1.3,1.35-2.01,1.97-.72,.63-1.48,1.22-2.26,1.78-.67,.47-1.38,.89-2.09,1.29-.73,.4-1.47,.8-2.25,1.1-.91,.35-1.86,.65-2.82,.88-.92,.22-1.88,.31-2.81,.47-.69,.12-1.26-.1-1.83-.47-.79-.52-1.63-.96-2.44-1.46-.72-.44-1.42-.9-2.13-1.34-.1-.06-.23-.1-.27-.12-.03-.18-.05-.33-.07-.47-.04,0-.08,0-.12,0,.61-1.36,1.16-2.75,1.83-4.08,.81-1.6,1.7-3.16,2.59-4.71,.51-.89,1.06-1.76,1.66-2.58,.8-1.1,1.66-2.15,2.49-3.23,.35-.45,.69-.92,1.07-1.35,.57-.65,1.15-1.3,1.76-1.92,.94-.96,1.88-1.92,2.86-2.85,.8-.76,1.62-1.5,2.48-2.19,1.15-.93,2.33-1.82,3.53-2.69,.95-.69,1.93-1.33,2.93-1.94,.41-.25,.69-.55,.84-.98,.41-1.16,.83-2.33,1.22-3.5,.37-1.12,.73-2.25,1.05-3.39,.46-1.67,.92-3.34,1.29-5.02,.37-1.68,.64-3.39,.94-5.09,.14-.8,.28-1.6,.37-2.4,.1-.83,.16-1.66,.21-2.5,.09-1.39,.2-2.78,.23-4.17,.03-1.38,.02-2.77-.04-4.15-.07-1.47-.16-2.94-.34-4.4-.15-1.22-.43-2.42-.66-3.62-.02-.1,0-.21-.02-.31-.06-.44-.33-.64-.77-.68-.91-.09-1.82-.3-2.73-.29-1.65,.02-3.3,.13-4.94,.28-1.23,.11-2.45,.33-3.68,.51-.25,.04-.5,.13-.75,.18-.48,.09-.5,.55-.7,.86-.68,1.03-1.32,2.08-1.99,3.11-.45,.68-.91,1.36-1.4,2.01-.71,.94-1.42,1.89-2.2,2.78-.93,1.06-1.92,2.07-2.89,3.1-.53,.57-1.06,1.14-1.63,1.67-.87,.8-1.78,1.57-2.69,2.33-.91,.76-1.82,1.53-2.77,2.24-.85,.64-1.75,1.22-2.64,1.82-.61,.41-1.21,.84-1.85,1.21-.99,.58-2,1.11-3.01,1.67-.67,.37-1.33,.76-2.02,1.09-.75,.36-1.52,.68-2.29,1.01-.77,.33-1.54,.68-2.33,.98-1.12,.42-2.25,.8-3.38,1.18-.94,.31-1.9,.59-2.85,.88-.18,.05-.36,.1-.65,.17Zm-.49-1.5c.15-.12,.23-.17,.29-.23,.31-.38,.61-.77,.93-1.15,1.17-1.37,2.33-2.75,3.52-4.11,.67-.77,1.36-1.52,2.08-2.25,1.08-1.1,2.17-2.19,3.28-3.26,.88-.85,1.77-1.67,2.69-2.48,.69-.61,1.42-1.19,2.12-1.78,.51-.43,1-.87,1.52-1.28,.71-.56,1.43-1.1,2.16-1.63,.85-.61,1.7-1.23,2.59-1.8,1.26-.8,2.54-1.57,3.82-2.33,.63-.37,1.28-.72,1.93-1.05,1-.5,2.01-.99,3.03-1.45,.57-.26,1.18-.47,1.77-.69,.56-.21,1.12-.41,1.69-.59,.95-.3,1.89-.61,2.85-.86,.87-.23,1.76-.4,2.64-.56,1.12-.2,2.24-.39,3.37-.54,.81-.11,1.64-.16,2.46-.19,1.05-.03,2.11-.06,3.15,0,.83,.05,1.66,.22,2.48,.35,1.28,.21,2.5,.62,3.64,1.18,1.37,.67,2.63,1.52,3.62,2.7,.12,.15,.29,.27,.43,.4,.03-.02,.06-.05,.09-.07-.3-.56-.57-1.14-.92-1.66-.36-.55-.78-1.06-1.22-1.56-.77-.88-1.53-1.76-2.35-2.59-.54-.54-1.17-1-1.78-1.48-1.16-.91-2.43-1.64-3.79-2.21-.8-.34-1.65-.59-2.49-.82-1.27-.35-2.56-.53-3.88-.42-.62,.05-1.24,.16-1.86,.22-.54,.05-1.09,.02-1.62,.11-.9,.16-1.79,.36-2.67,.58-.96,.25-1.91,.55-2.87,.81-.91,.26-1.86,.43-2.74,.77-1.13,.43-2.22,.96-3.29,1.5-1.34,.68-2.66,1.4-3.97,2.13-1.14,.64-2.26,1.3-3.37,1.98-.85,.52-1.69,1.06-2.5,1.63-.86,.6-1.7,1.24-2.54,1.88-.47,.36-.94,.73-1.4,1.09-.5,.38-1.01,.75-1.5,1.15-.54,.44-1.05,.91-1.57,1.37-.68,.6-1.38,1.2-2.04,1.82-.58,.54-1.11,1.13-1.67,1.69-.77,.77-1.56,1.52-2.31,2.32-.62,.66-1.19,1.38-1.78,2.07-.79,.94-1.61,1.86-2.37,2.83-.66,.84-1.25,1.72-1.86,2.59-.12,.16-.27,.37-.25,.55,.04,.35,.17,.69,.3,1.01,.25,.6,.5,1.21,.79,1.79,.42,.83,.88,1.64,1.34,2.49Zm23.03,40.47c.69,.41,1.32,.77,1.94,1.14,.71,.42,1.43,.82,2.11,1.27,.48,.32,.49,.34,.72-.15,.56-1.17,1.1-2.36,1.72-3.5,.87-1.6,1.79-3.17,2.74-4.72,.74-1.21,1.54-2.39,2.35-3.56,.74-1.05,1.53-2.06,2.31-3.07,.56-.72,1.1-1.46,1.71-2.14,.95-1.05,1.94-2.08,2.94-3.09,.92-.92,1.88-1.8,2.84-2.67,.58-.52,1.2-1,1.82-1.47,.7-.53,1.4-1.05,2.12-1.55,.87-.6,1.73-1.22,2.64-1.76,.83-.5,1.71-.91,2.58-1.35,1.21-.61,2.42-1.21,3.64-1.8,1.22-.58,2.54-.86,3.86-1.09,1.32-.23,2.65-.33,3.99-.24,1.05,.07,2.11,.11,3.14,.27,1.12,.17,2.23,.44,3.34,.73,.68,.18,1.33,.44,1.98,.71,.57,.24,1.13,.52,1.65,.85,1.07,.67,2.12,1.37,3.16,2.08,.37,.25,.71,.54,1.11,.85,.1-.7,.15-1.32,.3-1.92,.2-.83,.12-1.6-.31-2.34-.83-1.41-1.72-2.75-2.99-3.84-.91-.78-1.9-1.42-3.01-1.86-.76-.3-1.57-.46-2.36-.67-1.59-.42-3.21-.4-4.82-.26-1.38,.12-2.77,.37-4.12,.69-1.49,.35-2.96,.8-4.39,1.31-1.13,.4-2.22,.94-3.31,1.45-1.33,.63-2.65,1.28-3.96,1.94-.88,.44-1.75,.9-2.6,1.41-.99,.59-1.94,1.23-2.9,1.86-.88,.58-1.77,1.13-2.61,1.76-.96,.72-1.88,1.5-2.81,2.27-.9,.75-1.8,1.5-2.68,2.28-.64,.57-1.27,1.16-1.86,1.79-.94,.99-1.86,1.99-2.76,3.02-.62,.71-1.21,1.46-1.78,2.21-.63,.84-1.24,1.69-1.84,2.56-.45,.65-.88,1.31-1.29,1.99-.68,1.14-1.36,2.28-2,3.45-.47,.87-.89,1.76-1.29,2.66-.38,.83-.7,1.69-1.05,2.53Zm50.51-27.27c.05,.54,.12,.99,.11,1.43-.02,.96-.06,1.91-.12,2.87-.09,1.32-.2,2.64-.34,3.95-.1,1.01-.27,2.01-.38,3.01-.18,1.61-.35,3.23-.52,4.85-.1,.92-.18,1.85-.28,2.77-.1,.89-.21,1.77-.3,2.65-.08,.75-.13,1.51-.18,2.26-.11,1.44-.27,2.87-.31,4.31-.05,1.82-.11,3.64,.24,5.44,.18,.96,.49,1.88,.91,2.76,.33,.68,.7,1.35,1.11,2,.51,.81,1.05,1.61,1.61,2.38,.47,.65,.99,1.27,1.5,1.9,.49,.6,.99,1.19,1.53,1.83,.99-2.55,2.52-4.68,4.12-6.67-.45-.96-.9-1.87-1.31-2.81-.26-.6-.52-1.21-.69-1.84-.29-1.08-.54-2.18-.75-3.28-.19-1.03-.33-2.07-.45-3.11-.12-1.01-.19-2.02-.27-3.03-.06-.83-.11-1.66-.14-2.49-.03-.85-.02-1.69-.02-2.54,0-1.01,0-2.02,.02-3.04,.02-.82,.08-1.64,.12-2.47,.05-1,.1-2,.17-3,.06-.94,.15-1.88,.24-2.81,.08-.85,.17-1.7,.23-2.56,.03-.38,.16-.8-.24-1.1-.3-.23-.59-.47-.89-.69-.73-.52-1.46-1.05-2.22-1.53-.79-.5-1.62-.95-2.49-1.45Zm-22.21-40.36c0,.26-.02,.38,0,.5,.21,1.08,.46,2.15,.62,3.24,.16,1.14,.23,2.3,.32,3.45,.09,1.17,.19,2.34,.19,3.52,0,1.46-.07,2.92-.15,4.37-.08,1.36-.18,2.72-.34,4.06-.23,1.86-.47,3.73-.83,5.57-.43,2.18-.97,4.35-1.52,6.51-.33,1.29-.74,2.56-1.15,3.82-.29,.88-.63,1.75-.95,2.62-.14,.39-.26,.78-.39,1.18,.37-.11,.66-.28,.95-.44,.84-.46,1.68-.93,2.53-1.38,.62-.33,1.26-.63,1.9-.93,.62-.29,1.27-.54,1.87-.86,.33-.18,.8-.18,.92-.7,.22-.96,.5-1.9,.75-2.85,.37-1.38,.78-2.75,1.11-4.13,.36-1.51,.68-3.02,.95-4.55,.32-1.8,.62-3.6,.84-5.41,.18-1.48,.28-2.98,.32-4.48,.04-1.33,0-2.67-.09-4.01-.06-.85-.16-1.72-.41-2.53-.23-.74-.61-1.45-1.04-2.1-.45-.69-.96-1.4-1.59-1.92-.81-.66-1.74-1.2-2.67-1.7-.65-.35-1.38-.55-2.14-.85Zm-14.78,.88c-.26,.04-.46,.05-.64,.11-1.54,.51-3.1,.99-4.62,1.56-1.11,.41-2.19,.92-3.26,1.43-.54,.26-1.16,.4-1.56,.92-.51,.66-1.06,1.3-1.62,1.92-.81,.9-1.64,1.78-2.49,2.64-.92,.94-1.84,1.89-2.81,2.77-.86,.78-1.78,1.51-2.7,2.22-.95,.73-1.92,1.44-2.91,2.12-1.7,1.17-3.52,2.12-5.5,2.76-.29,.09-.6,.16-.83,.33-.37,.28-.69,.63-1,.97-.74,.81-1.48,1.63-2.2,2.45-.62,.7-1.22,1.41-1.81,2.13-.63,.77-1.24,1.55-1.85,2.33-.07,.09-.09,.22-.13,.33,.13,.04,.26,.12,.38,.1,.27-.04,.53-.11,.79-.19,.94-.3,1.88-.59,2.8-.93,1.53-.55,3.05-1.1,4.56-1.71,.97-.39,1.91-.86,2.84-1.34,1.4-.72,2.79-1.45,4.15-2.25,1.22-.72,2.39-1.52,3.57-2.31,.68-.45,1.36-.92,2.01-1.42,.71-.54,1.38-1.12,2.06-1.69,.61-.52,1.22-1.05,1.82-1.59,.7-.64,1.41-1.29,2.07-1.97,.78-.8,1.53-1.62,2.27-2.45,.36-.4,.69-.82,1.03-1.23,.85-1.06,1.72-2.11,2.53-3.2,.64-.86,1.21-1.76,1.78-2.66,.44-.69,.83-1.41,1.27-2.16Zm17.16,40.84c-.09,.01-.17,0-.22,.04-1.21,.69-2.43,1.38-3.62,2.1-.74,.45-1.44,.94-2.14,1.44-.7,.51-1.38,1.04-2.04,1.6-.39,.33-.89,.56-1.02,1.13-.25,1.11-.43,2.25-.79,3.33-.4,1.2-.96,2.34-1.45,3.51-.6,1.41-1.41,2.71-2.27,3.98-.77,1.14-1.63,2.21-2.57,3.21-.38,.4-.74,.81-1.15,1.18-.47,.43-.98,.83-1.48,1.23-.49,.39-.96,.8-1.48,1.14-.62,.41-1.27,.76-1.91,1.13-.52,.29-1.04,.56-1.57,.83-.3,.15-.64,.23-.72,.64-.04,.19-.16,.36-.25,.54-.27,.55-.56,1.1-.82,1.66-.12,.25,.02,.49,.28,.47,.5-.03,1.01-.06,1.5-.15,.96-.17,1.92-.36,2.87-.59,.6-.15,1.18-.38,1.75-.61,.56-.23,1.11-.49,1.65-.77,.65-.34,1.33-.65,1.92-1.07,.97-.69,1.9-1.43,2.8-2.2,.74-.63,1.45-1.31,2.11-2.03,.61-.65,1.16-1.36,1.69-2.08,.9-1.25,1.79-2.51,2.62-3.8,.61-.96,1.15-1.98,1.66-3,.52-1.02,.98-2.06,1.43-3.11,.37-.84,.69-1.7,1.01-2.57,.44-1.19,.9-2.38,1.29-3.59,.35-1.09,.62-2.21,.92-3.31,.02-.08,0-.18,0-.28Zm-23.15-47.36c.93-.25,1.77-.47,2.61-.7,.75-.2,1.49-.42,2.25-.61,.76-.19,1.53-.36,2.3-.51,.59-.12,1.2-.18,1.79-.29,.09-.02,.2-.16,.22-.25,.22-1.29,.43-2.58,.62-3.87,.07-.46,.21-.92-.09-1.37-.55-.84-1.07-1.7-1.61-2.56-.3-.47-.6-.94-.91-1.42-.94,.98-1.84,1.91-2.73,2.84-.56,.59-1.09,1.21-1.67,1.79-.6,.6-1.09,1.23-1.31,2.07-.29,1.12-.66,2.22-.99,3.33-.15,.48-.29,.97-.47,1.56Zm-.41,72.35c.14,.02,.22,.05,.27,.03,.78-.44,1.58-.86,2.33-1.35,.71-.47,1.4-.98,2.03-1.54,.99-.86,2-1.72,2.87-2.69,.91-1.03,1.67-2.19,2.48-3.3,.97-1.33,1.67-2.81,2.33-4.3,.34-.78,.65-1.59,.92-2.4,.24-.75,.41-1.52,.6-2.28,.02-.08-.05-.17-.08-.26-.09,.03-.21,.03-.27,.09-.88,.86-1.78,1.72-2.63,2.61-.78,.82-1.53,1.68-2.26,2.54-.68,.81-1.33,1.63-1.98,2.47-.63,.82-1.25,1.66-1.84,2.51-.64,.91-1.28,1.83-1.87,2.78-.64,1.02-1.25,2.05-1.85,3.1-.36,.63-.69,1.29-1.06,1.99Zm-5.12-61.13s-.04-.05-.06-.07c-.3,.19-.61,.37-.91,.57-1.42,.91-2.87,1.79-4.26,2.76-1.24,.86-2.42,1.79-3.6,2.72-.85,.67-1.66,1.37-2.48,2.07-.81,.71-1.62,1.42-2.4,2.16-.87,.82-1.72,1.67-2.57,2.51-.04,.04-.04,.14-.06,.21,.06,0,.13,.03,.18,.02,.39-.15,.8-.28,1.17-.46,.87-.44,1.75-.87,2.59-1.36,.81-.48,1.6-1,2.37-1.54,.55-.39,1.04-.85,1.57-1.27,.64-.52,1.33-.99,1.94-1.55,.99-.89,1.94-1.82,2.88-2.76,.59-.58,1.15-1.2,1.72-1.8,.4-.42,.81-.84,1.2-1.27,.26-.3,.49-.62,.73-.93Z"/><path class="cls-10" d="M160.4,341.49c-.46-.86-.92-1.67-1.34-2.49-.29-.58-.54-1.18-.79-1.79-.13-.33-.26-.67-.3-1.01-.02-.17,.13-.38,.25-.55,.61-.87,1.2-1.75,1.86-2.59,.76-.97,1.57-1.89,2.37-2.83,.59-.69,1.16-1.41,1.78-2.07,.74-.79,1.54-1.55,2.31-2.32,.56-.56,1.09-1.15,1.67-1.69,.66-.63,1.36-1.22,2.04-1.82,.52-.46,1.04-.93,1.57-1.37,.49-.4,1-.77,1.5-1.15,.47-.36,.93-.73,1.4-1.09,.84-.63,1.67-1.27,2.54-1.88,.82-.57,1.65-1.11,2.5-1.63,1.11-.68,2.23-1.35,3.37-1.98,1.31-.73,2.63-1.45,3.97-2.13,1.08-.54,2.17-1.07,3.29-1.5,.88-.34,1.83-.51,2.74-.77,.96-.27,1.91-.57,2.87-.81,.88-.23,1.77-.43,2.67-.58,.53-.09,1.08-.06,1.62-.11,.62-.06,1.24-.17,1.86-.22,1.32-.11,2.62,.07,3.88,.42,.84,.23,1.69,.48,2.49,.82,1.36,.57,2.63,1.3,3.79,2.21,.61,.48,1.24,.94,1.78,1.48,.82,.83,1.59,1.71,2.35,2.59,.43,.5,.85,1.01,1.22,1.56,.35,.53,.61,1.11,.92,1.66-.03,.02-.06,.05-.09,.07-.15-.13-.31-.25-.43-.4-.99-1.18-2.25-2.03-3.62-2.7-1.15-.56-2.37-.97-3.64-1.18-.83-.13-1.65-.31-2.48-.35-1.05-.06-2.1-.03-3.15,0-.82,.02-1.64,.08-2.46,.19-1.13,.15-2.25,.34-3.37,.54-.89,.16-1.77,.33-2.64,.56-.96,.25-1.9,.56-2.85,.86-.57,.18-1.13,.39-1.69,.59-.59,.22-1.2,.42-1.77,.69-1.02,.46-2.03,.95-3.03,1.45-.66,.33-1.3,.67-1.93,1.05-1.28,.76-2.56,1.53-3.82,2.33-.89,.56-1.74,1.18-2.59,1.8-.73,.53-1.45,1.07-2.16,1.63-.52,.41-1.01,.85-1.52,1.28-.71,.59-1.43,1.17-2.12,1.78-.91,.81-1.81,1.63-2.69,2.48-1.11,1.07-2.2,2.16-3.28,3.26-.71,.73-1.41,1.48-2.08,2.25-1.18,1.36-2.35,2.74-3.52,4.11-.32,.38-.62,.77-.93,1.15-.06,.07-.14,.12-.29,.23Z"/><path class="cls-10" d="M183.43,381.95c.35-.84,.68-1.69,1.05-2.53,.4-.9,.82-1.79,1.29-2.66,.64-1.17,1.32-2.31,2-3.45,.41-.68,.84-1.34,1.29-1.99,.6-.86,1.21-1.72,1.84-2.56,.57-.75,1.15-1.5,1.78-2.21,.9-1.03,1.82-2.03,2.76-3.02,.59-.62,1.22-1.21,1.86-1.79,.88-.78,1.78-1.53,2.68-2.28,.93-.77,1.84-1.55,2.81-2.27,.84-.63,1.73-1.19,2.61-1.76,.96-.63,1.92-1.27,2.9-1.86,.84-.5,1.72-.96,2.6-1.41,1.31-.66,2.63-1.31,3.96-1.94,1.09-.51,2.18-1.05,3.31-1.45,1.44-.51,2.91-.95,4.39-1.31,1.35-.32,2.74-.57,4.12-.69,1.61-.14,3.23-.16,4.82,.26,.79,.21,1.61,.37,2.36,.67,1.11,.44,2.09,1.09,3.01,1.86,1.27,1.08,2.16,2.43,2.99,3.84,.43,.74,.51,1.51,.31,2.34-.15,.6-.19,1.23-.3,1.92-.4-.31-.74-.6-1.11-.85-1.05-.7-2.09-1.41-3.16-2.08-.52-.33-1.08-.61-1.65-.85-.64-.27-1.3-.53-1.98-.71-1.1-.29-2.21-.56-3.34-.73-1.04-.16-2.09-.19-3.14-.27-1.34-.09-2.67,.01-3.99,.24-1.32,.23-2.64,.5-3.86,1.09-1.22,.58-2.43,1.19-3.64,1.8-.87,.44-1.75,.85-2.58,1.35-.91,.54-1.77,1.16-2.64,1.76-.72,.5-1.43,1.02-2.12,1.55-.62,.47-1.24,.95-1.82,1.47-.97,.87-1.92,1.76-2.84,2.67-1.01,1-1.99,2.03-2.94,3.09-.61,.68-1.16,1.41-1.71,2.14-.78,1.02-1.57,2.03-2.31,3.07-.82,1.16-1.61,2.35-2.35,3.56-.95,1.55-1.86,3.13-2.74,4.72-.62,1.14-1.16,2.33-1.72,3.5-.23,.48-.24,.47-.72,.15-.69-.45-1.41-.85-2.11-1.27-.62-.37-1.25-.73-1.94-1.14Z"/><path class="cls-10" d="M233.94,354.68c.88,.51,1.7,.95,2.49,1.45,.76,.48,1.48,1.01,2.22,1.53,.31,.22,.59,.46,.89,.69,.4,.3,.27,.72,.24,1.1-.06,.85-.15,1.7-.23,2.56-.08,.94-.17,1.87-.24,2.81-.07,1-.11,2-.17,3-.04,.82-.1,1.64-.12,2.47-.03,1.01-.02,2.02-.02,3.04,0,.85,0,1.69,.02,2.54,.03,.83,.08,1.66,.14,2.49,.07,1.01,.15,2.02,.27,3.03,.12,1.04,.26,2.08,.45,3.11,.21,1.1,.46,2.2,.75,3.28,.17,.63,.42,1.24,.69,1.84,.41,.93,.86,1.85,1.31,2.81-1.6,1.99-3.13,4.12-4.12,6.67-.54-.64-1.04-1.23-1.53-1.83-.51-.63-1.03-1.25-1.5-1.9-.56-.78-1.1-1.57-1.61-2.38-.4-.64-.77-1.31-1.11-2-.43-.88-.73-1.8-.91-2.76-.34-1.81-.29-3.63-.24-5.44,.04-1.44,.2-2.87,.31-4.31,.06-.75,.11-1.51,.18-2.26,.09-.89,.21-1.77,.3-2.65,.1-.92,.18-1.85,.28-2.77,.17-1.62,.34-3.23,.52-4.85,.11-1.01,.28-2.01,.38-3.01,.13-1.32,.25-2.63,.34-3.95,.07-.95,.11-1.91,.12-2.87,0-.44-.07-.88-.11-1.43Z"/><path class="cls-10" d="M211.74,314.32c.76,.3,1.49,.5,2.14,.85,.93,.5,1.86,1.03,2.67,1.7,.63,.52,1.14,1.23,1.59,1.92,.43,.65,.82,1.36,1.04,2.1,.25,.81,.36,1.68,.41,2.53,.09,1.33,.13,2.67,.09,4.01-.04,1.5-.14,2.99-.32,4.48-.22,1.81-.52,3.62-.84,5.41-.27,1.52-.59,3.04-.95,4.55-.33,1.39-.73,2.76-1.11,4.13-.26,.95-.54,1.89-.75,2.85-.12,.52-.59,.52-.92,.7-.6,.32-1.25,.57-1.87,.86-.64,.3-1.28,.6-1.9,.93-.85,.45-1.69,.92-2.53,1.38-.29,.16-.58,.33-.95,.44,.13-.39,.25-.79,.39-1.18,.31-.87,.66-1.74,.95-2.62,.41-1.27,.82-2.53,1.15-3.82,.55-2.16,1.09-4.32,1.52-6.51,.36-1.84,.6-3.71,.83-5.57,.17-1.35,.26-2.71,.34-4.06,.08-1.46,.15-2.91,.15-4.37,0-1.17-.11-2.35-.19-3.52-.08-1.15-.16-2.31-.32-3.45-.15-1.09-.41-2.16-.62-3.24-.02-.12,0-.24,0-.5Z"/><path class="cls-10" d="M196.95,315.21c-.44,.75-.83,1.47-1.27,2.16-.57,.9-1.14,1.81-1.78,2.66-.81,1.09-1.68,2.13-2.53,3.2-.33,.42-.67,.84-1.03,1.23-.75,.83-1.49,1.65-2.27,2.45-.67,.68-1.37,1.33-2.07,1.97-.59,.54-1.2,1.07-1.82,1.59-.68,.57-1.35,1.15-2.06,1.69-.65,.5-1.33,.96-2.01,1.42-1.18,.78-2.35,1.59-3.57,2.31-1.35,.8-2.75,1.53-4.15,2.25-.93,.48-1.87,.95-2.84,1.34-1.5,.61-3.03,1.16-4.56,1.71-.93,.33-1.87,.62-2.8,.93-.26,.08-.52,.16-.79,.19-.12,.02-.25-.06-.38-.1,.04-.11,.06-.24,.13-.33,.61-.78,1.22-1.56,1.85-2.33,.59-.72,1.2-1.43,1.81-2.13,.73-.83,1.46-1.64,2.2-2.45,.31-.34,.63-.69,1-.97,.23-.17,.55-.24,.83-.33,1.98-.63,3.8-1.59,5.5-2.76,.99-.68,1.96-1.39,2.91-2.12,.92-.71,1.84-1.44,2.7-2.22,.97-.89,1.89-1.83,2.81-2.77,.85-.87,1.68-1.75,2.49-2.64,.56-.62,1.11-1.26,1.62-1.92,.4-.52,1.02-.66,1.56-.92,1.07-.51,2.15-1.02,3.26-1.43,1.52-.57,3.08-1.05,4.62-1.56,.18-.06,.38-.07,.64-.11Z"/><path class="cls-10" d="M214.11,356.05c0,.1,.02,.2,0,.28-.3,1.11-.57,2.22-.92,3.31-.39,1.21-.84,2.4-1.29,3.59-.32,.86-.65,1.72-1.01,2.57-.45,1.05-.92,2.09-1.43,3.11-.52,1.02-1.05,2.04-1.66,3-.83,1.3-1.72,2.55-2.62,3.8-.52,.72-1.08,1.43-1.69,2.08-.66,.71-1.37,1.39-2.11,2.03-.9,.77-1.83,1.51-2.8,2.2-.59,.42-1.27,.73-1.92,1.07-.54,.28-1.09,.54-1.65,.77-.57,.23-1.16,.46-1.75,.61-.95,.24-1.91,.42-2.87,.59-.49,.09-1,.11-1.5,.15-.25,.02-.4-.22-.28-.47,.27-.56,.55-1.11,.82-1.66,.09-.18,.21-.35,.25-.54,.08-.4,.42-.49,.72-.64,.53-.27,1.05-.54,1.57-.83,.64-.36,1.3-.72,1.91-1.13,.52-.34,1-.75,1.48-1.14,.5-.4,1.01-.8,1.48-1.23,.4-.37,.77-.78,1.15-1.18,.94-1,1.8-2.07,2.57-3.21,.86-1.27,1.67-2.56,2.27-3.98,.49-1.17,1.06-2.31,1.45-3.51,.36-1.08,.54-2.22,.79-3.33,.13-.57,.63-.8,1.02-1.13,.66-.56,1.34-1.09,2.04-1.6,.69-.51,1.4-1,2.14-1.44,1.19-.72,2.41-1.4,3.62-2.1,.05-.03,.13-.02,.22-.04Z"/><path class="cls-10" d="M190.97,308.7c.18-.59,.33-1.07,.47-1.56,.33-1.11,.69-2.21,.99-3.33,.22-.84,.72-1.47,1.31-2.07,.58-.58,1.11-1.2,1.67-1.79,.89-.94,1.8-1.87,2.73-2.84,.31,.48,.61,.95,.91,1.42,.54,.85,1.05,1.71,1.61,2.56,.3,.46,.16,.91,.09,1.37-.2,1.29-.41,2.58-.62,3.87-.02,.1-.13,.24-.22,.25-.59,.11-1.2,.17-1.79,.29-.77,.15-1.54,.32-2.3,.51-.75,.19-1.5,.41-2.25,.61-.84,.23-1.68,.45-2.61,.7Z"/><path class="cls-10" d="M190.55,381.04c.37-.7,.69-1.36,1.06-1.99,.6-1.04,1.2-2.08,1.85-3.1,.6-.94,1.23-1.86,1.87-2.78,.6-.85,1.21-1.69,1.84-2.51,.64-.84,1.29-1.67,1.98-2.47,.73-.87,1.48-1.72,2.26-2.54,.85-.89,1.75-1.75,2.63-2.61,.06-.06,.18-.06,.27-.09,.03,.09,.1,.18,.08,.26-.19,.76-.36,1.53-.6,2.28-.27,.81-.58,1.61-.92,2.4-.65,1.5-1.35,2.97-2.33,4.3-.81,1.11-1.57,2.27-2.48,3.3-.87,.97-1.88,1.83-2.87,2.69-.64,.56-1.32,1.07-2.03,1.54-.75,.49-1.55,.91-2.33,1.35-.05,.03-.13-.01-.27-.03Z"/><path class="cls-10" d="M185.43,319.91c-.24,.31-.47,.64-.73,.93-.39,.43-.8,.85-1.2,1.27-.57,.6-1.13,1.22-1.72,1.8-.95,.93-1.9,1.86-2.88,2.76-.61,.55-1.29,1.03-1.94,1.55-.53,.42-1.02,.88-1.57,1.27-.77,.54-1.56,1.06-2.37,1.54-.84,.49-1.71,.93-2.59,1.36-.37,.19-.78,.31-1.17,.46-.05,.02-.12,0-.18-.02,.02-.07,.01-.16,.06-.21,.85-.84,1.7-1.69,2.57-2.51,.78-.74,1.59-1.45,2.4-2.16,.81-.71,1.63-1.41,2.48-2.07,1.18-.93,2.36-1.86,3.6-2.72,1.39-.96,2.83-1.84,4.26-2.76,.3-.19,.61-.38,.91-.57,.02,.02,.04,.05,.06,.07Z"/></g><g><path class="cls-9" d="M245.64,206.16c-3.55,25.68,7.5,46.06,11.34,52.47,3.06,5.09,18.32,30.55,49.46,38.03,35.24,8.46,68.24-11.53,84.93-32.74,11.88-15.11,15.22-30.51,16.26-36.58,.96-5.62,5.38-35.24-14.85-62.33-1.96-2.62-25.91-33.61-65.08-33.4-42.68,.23-76.9,37.35-82.05,74.54Z"/><path class="cls-3" d="M245.25,209.26c16.7-4.33,34.1,5.02,39.38,20.97,5.37,16.22-3.48,34.09-19.99,39.98"/><path class="cls-3" d="M404.74,239.87c-13.51-10.58-33.26-8.93-44.65,3.57-11.58,12.71-10.82,32.57,1.86,44.5"/><path class="cls-3" d="M273.66,208.21c2.23-8.03,9.48-13.73,17.79-14.07,8.73-.36,16.74,5.28,19.28,13.67"/><path class="cls-3" d="M345.04,216.56c4.52-7.04,13.14-10.42,21.19-8.36,8.46,2.16,14.45,9.85,14.39,18.6"/><path class="cls-3" d="M350.09,141.61c-.94,.66-11.3,7.81-17.71,4.16-7.21-4.11-6.62-20.34,1.64-28.49,7.94-7.84,22.77-8.02,24.85-3.93,1.93,3.78-5.7,13.78-14.93,15.16-10.19,1.52-20.35-7.76-22.64-17.46-2.63-11.13,4.77-24.14,18.52-29.37"/><path class="cls-3" d="M252.31,181.85c-6.32-3.62-13.42-4.11-17.35-.91-5.84,4.76-2.9,16.27,2.43,22.46,2.59,3.01,5.64,4.63,7.69,5.5"/><path class="cls-3" d="M341.18,265.66c-2.31,12.04-14.13,19.96-26.39,17.69-12.26-2.27-20.32-13.88-18.01-25.92,2.31-12.04,13.32-14.14,25.58-11.86,12.26,2.27,21.14,8.05,18.83,20.1Z"/><polyline class="cls-2" points="310.56 245.32 308.77 252.17 330.65 256.06 331.79 248.31"/><path class="cls-3" d="M409.49,211.55c7.3-.49,13.89,2.15,15.96,6.73,3.09,6.81-4.73,15.85-12.3,19.08-3.68,1.57-7.14,1.7-9.38,1.59"/></g><g><path class="cls-8" d="M72.73,112.52c.21-.03,.34-.04,.47-.06,.69-.11,1.38-.22,2.07-.35,.83-.16,1.65-.32,2.47-.51,.58-.13,1.15-.31,1.72-.47,.57-.16,1.14-.31,1.69-.49,.51-.17,1.01-.38,1.51-.58,.75-.29,1.51-.57,2.26-.89,.48-.2,.94-.44,1.4-.68,.67-.34,1.36-.66,2.01-1.03,.73-.41,1.44-.86,2.14-1.31,.71-.45,1.41-.9,2.09-1.38,.45-.31,.87-.67,1.3-1.02,.77-.63,1.56-1.24,2.31-1.9,.63-.55,1.21-1.15,1.79-1.74,.41-.41,.79-.84,1.17-1.27,.57-.66,1.12-1.33,1.69-1.99,.17-.19,.23-.51,.57-.53,.18-.01,.36-.05,.54-.05,.87-.02,1.74-.06,2.61-.02,1.16,.05,2.32,.12,3.48,.26,.64,.07,1.25,.3,1.88,.45,.3,.07,.47,.23,.47,.54,0,.07-.02,.15-.01,.22,.04,.86,.13,1.73,.12,2.59-.01,1.03-.09,2.07-.18,3.1-.09,.97-.21,1.94-.36,2.9-.15,.97-.36,1.93-.56,2.89-.12,.58-.24,1.15-.38,1.72-.14,.55-.31,1.1-.49,1.64-.37,1.16-.72,2.32-1.14,3.46-.42,1.14-.9,2.27-1.38,3.39-.33,.77-.69,1.52-1.05,2.27-.38,.78-.78,1.55-1.18,2.33-.15,.29-.37,.47-.68,.61-.76,.34-1.5,.7-2.23,1.09-.92,.49-1.83,1.01-2.72,1.55-.67,.4-1.31,.84-1.94,1.3-.77,.56-1.52,1.14-2.26,1.72-.48,.38-.95,.77-1.41,1.18-.3,.27-.58,.56-.87,.85-.68,.67-1.38,1.33-2.04,2.02-.5,.52-.96,1.08-1.4,1.65-.77,1-1.54,2.01-2.25,3.05-.6,.87-1.11,1.78-1.66,2.68,.03,0,.06,.01,.09,.02,0,.1,0,.2,0,.33,.03,.02,.11,.05,.18,.11,.45,.38,.9,.76,1.36,1.13,.52,.42,1.06,.81,1.57,1.24,.36,.31,.74,.52,1.23,.5,.67-.03,1.34,0,2.01-.07,.69-.07,1.38-.19,2.05-.36,.57-.14,1.13-.35,1.67-.56,.54-.21,1.07-.44,1.58-.71,.6-.31,1.18-.66,1.74-1.03,.55-.37,1.08-.77,1.59-1.19,.48-.4,.93-.84,1.38-1.28,.52-.51,1.04-1.01,1.51-1.56,.61-.71,1.18-1.46,1.74-2.21,.48-.64,.93-1.29,1.36-1.96,.43-.67,.81-1.38,1.2-2.07,.33-.58,.67-1.15,.97-1.74,.33-.65,.63-1.31,.93-1.98,.26-.58,.5-1.17,.77-1.75,.08-.17,.22-.35,.38-.42,.41-.19,.84-.37,1.28-.47,.81-.18,1.63-.32,2.45-.45,1.08-.17,2.17-.12,3.25,.03,.95,.13,1.89,.35,2.8,.64,.91,.29,1.78,.71,2.67,1.09,.07,.03,.14,.15,.14,.22,0,.5-.01,1-.07,1.49-.07,.58-.17,1.15-.28,1.72-.09,.48-.23,.95-.34,1.42-.17,.68-.34,1.36-.51,2.04-.2,.78-.41,1.56-.6,2.35-.13,.53-.23,1.07-.37,1.59-.17,.66-.37,1.31-.54,1.98-.28,1.13-.55,2.27-.82,3.41-.17,.75-.33,1.51-.49,2.27-.1,.47-.21,.94-.28,1.42-.11,.74-.21,1.48-.29,2.22-.09,.83-.13,1.68,.07,2.49,.23,.92,.56,1.82,.89,2.71,.19,.5,.47,.97,.73,1.44,.32,.58,.64,1.15,.98,1.72,.13,.22,.29,.42,.42,.64,.23,.37,.45,.74,.68,1.11,.1,.16,.22,.3,.36,.49,.36-1.1,.99-1.99,1.69-2.82,.7-.83,1.45-1.61,2.16-2.39-.05-.04-.13-.08-.16-.14-.19-.46-.4-.92-.53-1.4-.21-.8-.44-1.6-.53-2.42-.11-1.08-.12-2.18-.13-3.27,0-.92,.04-1.84,.1-2.76,.05-.8,.12-1.6,.21-2.4,.08-.69,.22-1.37,.32-2.05,.1-.7,.18-1.4,.3-2.1,.12-.67,.28-1.33,.42-1.99,.2-.93,.37-1.87,.58-2.81,.2-.91,.43-1.81,.66-2.71,.14-.54,.31-1.06,.44-1.6,.11-.45,.32-.89,.12-1.36-.35-.81-.65-1.65-1.07-2.43-.45-.83-1.13-1.51-1.87-2.09-.79-.62-1.67-1.1-2.63-1.4-.53-.17-1.08-.3-1.63-.4-.59-.11-1.2-.24-1.8-.25-.99-.02-1.99,.03-2.98,.09-.68,.04-1.36,.12-2.03,.24-.84,.15-1.67,.36-2.55,.56,.08-.2,.15-.39,.23-.57,.23-.51,.47-1.02,.69-1.54,.27-.63,.51-1.27,.77-1.91,.24-.6,.52-1.19,.73-1.8,.47-1.39,.92-2.78,1.35-4.18,.24-.8,.43-1.61,.62-2.43,.09-.39,.16-.79,.22-1.18,.13-.81,.3-1.62,.38-2.44,.08-.81,.12-1.63,.11-2.44,0-.77-.06-1.54-.16-2.31-.1-.74-.32-1.44-.71-2.1-.3-.5-.53-1.05-.85-1.54-.38-.58-.81-1.14-1.25-1.68-.42-.51-.87-1-1.35-1.47-.34-.34-.71-.64-1.1-.92-.5-.36-1.01-.72-1.55-1.03-.51-.29-1.04-.56-1.6-.75-.65-.23-1.33-.38-2.01-.52-.41-.09-.83-.12-1.26-.17,0-.03,0-.07,0-.11,.32-1.05,.65-2.1,.96-3.16,.03-.11,.05-.24,.01-.34-.18-.42-.37-.84-.56-1.26-.33-.71-.66-1.42-.99-2.14-.16-.35-.53-.46-.82-.23-.49,.38-.98,.78-1.46,1.17-.73,.59-1.46,1.18-2.18,1.78-.28,.23-.62,.4-.75,.77-.09,.25-.19,.49-.29,.73-.4,.94-.8,1.89-1.2,2.83-.15,.36-.32,.66-.77,.78-1.01,.27-2.01,.56-2.99,.91-1.06,.37-2.09,.81-3.13,1.23-.52,.21-1.03,.45-1.55,.69-.47,.22-.94,.45-1.4,.68-.53,.26-1.06,.52-1.58,.8-.39,.21-.77,.45-1.16,.68-.67,.39-1.35,.78-2,1.19-.56,.35-1.09,.73-1.63,1.1-.59,.41-1.18,.81-1.76,1.23-.44,.32-.88,.65-1.31,.99-.58,.46-1.17,.93-1.74,1.41-.51,.43-1,.89-1.49,1.34-.45,.41-.89,.82-1.32,1.24-.53,.53-1.04,1.06-1.54,1.62-.21,.23-.54,.42-.46,.81,.02,.13,.08,.25,.11,.38,.17,.67,.27,1.36,.51,2.01,.33,.87,.76,1.7,1.14,2.54Z"/><path class="cls-11" d="M72.73,112.52c-.38-.84-.82-1.67-1.14-2.54-.24-.64-.34-1.34-.51-2.01-.03-.13-.08-.25-.11-.38-.07-.39,.26-.58,.46-.81,.5-.55,1.01-1.09,1.54-1.62,.43-.43,.87-.84,1.32-1.24,.49-.45,.98-.91,1.49-1.34,.57-.48,1.15-.95,1.74-1.41,.43-.34,.86-.67,1.31-.99,.58-.42,1.17-.82,1.76-1.23,.54-.37,1.08-.75,1.63-1.1,.66-.41,1.33-.79,2-1.19,.39-.23,.77-.47,1.16-.68,.52-.28,1.05-.54,1.58-.8,.46-.23,.93-.46,1.4-.68,.51-.24,1.02-.48,1.55-.69,1.04-.42,2.07-.86,3.13-1.23,.98-.35,1.98-.64,2.99-.91,.45-.12,.62-.42,.77-.78,.4-.94,.8-1.88,1.2-2.83,.1-.24,.21-.49,.29-.73,.13-.38,.48-.54,.75-.77,.72-.6,1.45-1.19,2.18-1.78,.48-.39,.97-.78,1.46-1.17,.29-.23,.66-.12,.82,.23,.33,.71,.66,1.42,.99,2.14,.19,.42,.39,.83,.56,1.26,.04,.1,.02,.23-.01,.34-.32,1.05-.64,2.1-.96,3.16-.01,.03,0,.07,0,.11,.42,.06,.85,.08,1.26,.17,.68,.15,1.36,.3,2.01,.52,.55,.19,1.09,.46,1.6,.75,.54,.31,1.05,.67,1.55,1.03,.39,.28,.76,.58,1.1,.92,.47,.47,.92,.96,1.35,1.47,.44,.54,.87,1.1,1.25,1.68,.32,.49,.55,1.04,.85,1.54,.39,.65,.62,1.36,.71,2.1,.1,.76,.15,1.54,.16,2.31,0,.81-.03,1.63-.11,2.44-.08,.82-.25,1.63-.38,2.44-.07,.4-.13,.79-.22,1.18-.2,.81-.38,1.63-.62,2.43-.43,1.4-.88,2.79-1.35,4.18-.21,.61-.48,1.2-.73,1.8-.26,.63-.5,1.27-.77,1.91-.22,.52-.46,1.03-.69,1.54-.08,.19-.15,.38-.23,.57,.88-.2,1.71-.41,2.55-.56,.67-.12,1.35-.2,2.03-.24,.99-.06,1.99-.11,2.98-.09,.6,.01,1.2,.14,1.8,.25,.55,.11,1.1,.24,1.63,.4,.96,.31,1.84,.79,2.63,1.4,.75,.58,1.42,1.26,1.87,2.09,.42,.77,.73,1.61,1.07,2.43,.2,.47-.01,.92-.12,1.36-.13,.54-.3,1.06-.44,1.6-.23,.9-.46,1.8-.66,2.71-.21,.93-.39,1.87-.58,2.81-.14,.66-.3,1.33-.42,1.99-.12,.7-.2,1.4-.3,2.1-.1,.69-.24,1.37-.32,2.05-.09,.8-.17,1.6-.21,2.4-.05,.92-.1,1.84-.1,2.76,0,1.09,.02,2.18,.13,3.27,.09,.82,.32,1.62,.53,2.42,.13,.48,.34,.94,.53,1.4,.03,.06,.11,.1,.16,.14-.71,.79-1.47,1.57-2.16,2.39-.7,.83-1.32,1.72-1.69,2.82-.14-.19-.26-.34-.36-.49-.23-.37-.45-.74-.68-1.11-.13-.22-.3-.42-.42-.64-.33-.57-.66-1.14-.98-1.72-.26-.47-.54-.94-.73-1.44-.33-.89-.66-1.79-.89-2.71-.2-.81-.16-1.66-.07-2.49,.08-.74,.18-1.48,.29-2.22,.07-.48,.18-.95,.28-1.42,.16-.76,.31-1.52,.49-2.27,.26-1.14,.53-2.27,.82-3.41,.17-.66,.37-1.32,.54-1.98,.14-.53,.24-1.06,.37-1.59,.19-.78,.4-1.56,.6-2.35,.17-.68,.34-1.36,.51-2.04,.12-.47,.25-.94,.34-1.42,.11-.57,.22-1.14,.28-1.72,.06-.49,.06-.99,.07-1.49,0-.08-.07-.19-.14-.22-.88-.37-1.75-.8-2.67-1.09-.91-.29-1.86-.51-2.8-.64-1.07-.15-2.16-.2-3.25-.03-.82,.13-1.64,.27-2.45,.45-.44,.1-.87,.28-1.28,.47-.16,.07-.3,.26-.38,.42-.27,.57-.51,1.17-.77,1.75-.3,.66-.6,1.33-.93,1.98-.3,.59-.64,1.16-.97,1.74-.39,.69-.78,1.4-1.2,2.07-.43,.67-.88,1.32-1.36,1.96-.56,.75-1.13,1.5-1.74,2.21-.47,.55-.99,1.05-1.51,1.56-.45,.44-.9,.88-1.38,1.28-.51,.42-1.04,.83-1.59,1.19-.56,.37-1.15,.72-1.74,1.03-.51,.27-1.04,.5-1.58,.71-.55,.21-1.1,.42-1.67,.56-.67,.16-1.36,.28-2.05,.36-.66,.07-1.34,.04-2.01,.07-.5,.02-.87-.18-1.23-.5-.5-.43-1.05-.82-1.57-1.24-.46-.37-.9-.76-1.36-1.13-.07-.05-.15-.09-.18-.11,0-.13,0-.23,0-.33-.03,0-.06-.01-.09-.02,.55-.89,1.07-1.81,1.66-2.68,.72-1.04,1.48-2.05,2.25-3.05,.44-.57,.91-1.13,1.4-1.65,.66-.69,1.36-1.35,2.04-2.02,.29-.28,.57-.58,.87-.85,.46-.4,.92-.8,1.41-1.18,.75-.59,1.5-1.17,2.26-1.72,.63-.46,1.27-.89,1.94-1.3,.89-.54,1.8-1.06,2.72-1.55,.73-.39,1.47-.75,2.23-1.09,.31-.14,.53-.32,.68-.61,.4-.78,.8-1.55,1.18-2.33,.37-.75,.73-1.5,1.05-2.27,.48-1.12,.96-2.24,1.38-3.39,.42-1.14,.77-2.31,1.14-3.46,.17-.54,.35-1.09,.49-1.64,.15-.57,.27-1.15,.38-1.72,.19-.96,.4-1.92,.56-2.89,.15-.96,.27-1.93,.36-2.9,.09-1.03,.17-2.06,.18-3.1,.01-.86-.07-1.73-.12-2.59,0-.07,.01-.15,.01-.22,0-.31-.17-.47-.47-.54-.63-.15-1.24-.38-1.88-.45-1.15-.13-2.31-.21-3.48-.26-.87-.04-1.74,0-2.61,.02-.18,0-.36,.04-.54,.05-.35,.02-.4,.34-.57,.53-.57,.66-1.12,1.33-1.69,1.99-.38,.44-.76,.86-1.17,1.27-.59,.59-1.17,1.19-1.79,1.74-.75,.66-1.54,1.27-2.31,1.9-.43,.35-.85,.7-1.3,1.02-.68,.48-1.39,.93-2.09,1.38-.71,.45-1.41,.9-2.14,1.31-.65,.37-1.34,.69-2.01,1.03-.46,.23-.92,.47-1.4,.68-.75,.31-1.5,.59-2.26,.89-.5,.2-1,.41-1.51,.58-.56,.19-1.13,.33-1.69,.49-.57,.16-1.14,.34-1.72,.47-.82,.19-1.64,.36-2.47,.51-.69,.13-1.38,.24-2.07,.35-.13,.02-.26,.03-.47,.06Zm-.2-1.09c.11-.07,.18-.09,.22-.14,.26-.24,.5-.48,.76-.72,.94-.85,1.89-1.71,2.84-2.55,.54-.48,1.09-.94,1.66-1.38,.85-.67,1.72-1.33,2.59-1.97,.69-.51,1.4-1,2.11-1.48,.54-.37,1.1-.7,1.65-1.05,.39-.25,.78-.52,1.18-.75,.55-.32,1.1-.64,1.66-.94,.65-.35,1.3-.7,1.98-1.02,.95-.44,1.92-.86,2.88-1.27,.47-.2,.96-.39,1.45-.55,.75-.26,1.5-.51,2.25-.74,.43-.13,.86-.22,1.3-.32,.41-.09,.82-.19,1.23-.26,.69-.12,1.38-.25,2.07-.34,.63-.08,1.26-.12,1.9-.15,.8-.04,1.6-.07,2.4-.07,.58,0,1.16,.04,1.73,.1,.74,.07,1.47,.15,2.2,.29,.58,.11,1.14,.31,1.7,.47,.87,.26,1.68,.66,2.43,1.15,.89,.59,1.69,1.3,2.27,2.21,.07,.12,.18,.21,.26,.32,.02-.01,.05-.03,.07-.04-.16-.42-.29-.84-.48-1.24-.2-.42-.45-.81-.7-1.2-.45-.68-.9-1.37-1.4-2.02-.33-.43-.72-.81-1.1-1.19-.72-.74-1.54-1.36-2.43-1.89-.53-.31-1.09-.56-1.66-.8-.85-.36-1.74-.6-2.67-.65-.44-.02-.88,0-1.31-.02-.38-.01-.76-.09-1.14-.07-.64,.03-1.28,.09-1.92,.16-.7,.08-1.39,.21-2.08,.31-.66,.09-1.34,.13-1.99,.29-.83,.2-1.64,.47-2.44,.75-1,.35-1.99,.73-2.97,1.12-.85,.34-1.7,.7-2.54,1.08-.64,.29-1.28,.59-1.9,.91-.66,.34-1.3,.71-1.95,1.08-.36,.2-.72,.42-1.08,.63-.38,.22-.78,.43-1.15,.67-.42,.26-.82,.54-1.23,.81-.53,.36-1.08,.71-1.6,1.08-.45,.33-.88,.69-1.32,1.03-.61,.47-1.23,.92-1.83,1.41-.5,.41-.96,.85-1.44,1.28-.64,.58-1.3,1.15-1.92,1.76-.54,.52-1.03,1.08-1.54,1.64-.1,.1-.22,.24-.22,.36,0,.24,.05,.49,.11,.74,.11,.44,.23,.89,.38,1.32,.21,.62,.46,1.22,.7,1.86Zm12.23,30.33c.45,.35,.85,.66,1.25,.97,.45,.36,.92,.7,1.36,1.08,.31,.27,.31,.28,.52-.04,.5-.77,.99-1.54,1.53-2.28,.76-1.03,1.55-2.05,2.36-3.05,.63-.78,1.3-1.53,1.98-2.27,.61-.66,1.26-1.3,1.9-1.93,.46-.45,.91-.92,1.4-1.33,.76-.65,1.55-1.28,2.35-1.88,.73-.56,1.48-1.09,2.24-1.6,.45-.31,.93-.58,1.41-.86,.54-.31,1.08-.6,1.63-.89,.66-.34,1.32-.69,2.01-.99,.63-.27,1.28-.48,1.93-.7,.9-.31,1.8-.62,2.71-.92,.91-.3,1.85-.37,2.8-.41,.94-.04,1.88,0,2.81,.2,.72,.15,1.46,.27,2.17,.47,.77,.22,1.52,.51,2.26,.81,.45,.18,.89,.43,1.31,.68,.37,.22,.74,.47,1.07,.74,.68,.56,1.35,1.15,2.01,1.74,.23,.21,.44,.44,.69,.69,.14-.48,.23-.91,.39-1.31,.22-.56,.24-1.11,0-1.66-.44-1.06-.94-2.08-1.72-2.95-.56-.63-1.19-1.16-1.92-1.57-.5-.28-1.05-.47-1.58-.69-1.07-.44-2.2-.57-3.34-.62-.98-.04-1.97,0-2.94,.11-1.07,.11-2.14,.29-3.19,.51-.83,.18-1.64,.45-2.45,.71-.99,.31-1.97,.65-2.95,.99-.66,.23-1.31,.47-1.95,.74-.74,.32-1.47,.68-2.2,1.03-.67,.32-1.34,.63-1.99,.99-.74,.41-1.46,.87-2.17,1.32-.7,.44-1.4,.88-2.09,1.35-.5,.34-1,.7-1.47,1.08-.75,.6-1.49,1.22-2.21,1.85-.5,.44-.98,.91-1.45,1.38-.52,.53-1.03,1.07-1.53,1.61-.37,.41-.74,.84-1.08,1.27-.58,.73-1.17,1.47-1.72,2.22-.41,.56-.79,1.15-1.15,1.74-.34,.55-.65,1.11-.97,1.67Zm37.81-14.41c-.02,.38,0,.7-.06,1.01-.1,.67-.22,1.33-.36,1.99-.19,.91-.39,1.82-.61,2.73-.17,.69-.38,1.38-.55,2.07-.28,1.11-.55,2.22-.82,3.33-.16,.64-.3,1.27-.46,1.91-.15,.61-.32,1.21-.46,1.82-.12,.52-.23,1.04-.34,1.56-.21,.99-.46,1.98-.62,2.98-.21,1.26-.42,2.53-.35,3.82,.04,.69,.16,1.36,.38,2.01,.17,.51,.36,1.01,.58,1.49,.28,.61,.58,1.22,.9,1.81,.27,.5,.57,.98,.87,1.46,.28,.46,.58,.92,.89,1.42,.93-1.69,2.2-3.03,3.51-4.28-.22-.71-.45-1.39-.65-2.08-.13-.44-.25-.89-.3-1.35-.1-.78-.17-1.57-.21-2.36-.04-.74-.03-1.47-.02-2.21,.01-.71,.06-1.42,.1-2.13,.04-.58,.08-1.17,.14-1.75,.06-.59,.15-1.18,.23-1.77,.1-.71,.19-1.41,.3-2.12,.09-.57,.21-1.14,.32-1.71,.13-.69,.26-1.39,.4-2.08,.13-.65,.28-1.29,.43-1.94,.13-.59,.28-1.17,.4-1.76,.05-.26,.18-.54-.06-.79-.19-.19-.36-.38-.56-.56-.46-.43-.92-.87-1.4-1.27-.5-.42-1.04-.81-1.6-1.24Zm-11.67-30.18c-.02,.18-.05,.27-.05,.35,.04,.77,.12,1.55,.12,2.32,0,.81-.05,1.63-.1,2.44-.05,.82-.09,1.65-.2,2.47-.14,1.02-.32,2.03-.52,3.04-.18,.94-.38,1.88-.62,2.8-.34,1.28-.68,2.56-1.11,3.81-.51,1.48-1.09,2.94-1.67,4.4-.35,.87-.76,1.71-1.16,2.56-.28,.59-.61,1.16-.91,1.74-.13,.26-.25,.52-.38,.79,.27-.04,.49-.14,.71-.22,.63-.25,1.26-.5,1.9-.73,.47-.17,.94-.33,1.41-.48,.46-.15,.94-.26,1.39-.43,.25-.09,.57-.05,.71-.4,.24-.65,.53-1.28,.8-1.92,.39-.93,.8-1.85,1.16-2.78,.39-1.02,.76-2.05,1.09-3.09,.39-1.22,.77-2.46,1.1-3.7,.27-1.02,.47-2.06,.65-3.09,.15-.93,.25-1.87,.32-2.8,.04-.6,.05-1.22-.05-1.8-.09-.54-.29-1.07-.53-1.56-.25-.52-.54-1.06-.93-1.48-.5-.54-1.1-.99-1.7-1.43-.42-.3-.91-.51-1.41-.79Zm-10.39-.73c-.18,0-.32,0-.45,.02-1.12,.21-2.26,.41-3.37,.66-.81,.19-1.62,.44-2.41,.7-.4,.13-.85,.17-1.18,.5-.42,.41-.86,.81-1.31,1.19-.65,.55-1.31,1.09-1.99,1.62-.73,.57-1.46,1.15-2.22,1.68-.67,.47-1.38,.89-2.09,1.3-.73,.42-1.47,.83-2.23,1.21-1.3,.66-2.66,1.16-4.1,1.42-.21,.04-.44,.06-.61,.16-.28,.16-.54,.37-.79,.58-.6,.5-1.18,1-1.77,1.51-.5,.43-.99,.87-1.47,1.32-.51,.48-1.01,.97-1.51,1.46-.06,.06-.08,.15-.12,.22,.09,.04,.17,.11,.26,.11,.19,0,.38-.03,.57-.06,.68-.12,1.37-.24,2.04-.39,1.12-.24,2.23-.49,3.34-.78,.71-.19,1.42-.43,2.11-.68,1.04-.38,2.09-.76,3.11-1.19,.92-.39,1.81-.84,2.71-1.28,.52-.25,1.04-.52,1.54-.8,.54-.31,1.07-.66,1.6-.99,.48-.31,.95-.62,1.42-.94,.55-.38,1.1-.77,1.63-1.18,.62-.48,1.22-.99,1.82-1.5,.29-.24,.56-.51,.83-.77,.69-.66,1.4-1.31,2.07-2,.52-.54,1.01-1.12,1.49-1.7,.37-.44,.71-.91,1.09-1.39Zm8.1,30.06c-.07,0-.12-.01-.16,0-.91,.37-1.82,.74-2.72,1.13-.56,.24-1.1,.52-1.63,.81-.54,.29-1.06,.6-1.58,.93-.3,.19-.67,.31-.82,.69-.28,.75-.51,1.53-.86,2.25-.39,.8-.89,1.55-1.35,2.32-.55,.93-1.24,1.76-1.96,2.57-.64,.72-1.35,1.39-2.1,2.01-.3,.25-.59,.5-.91,.72-.37,.26-.76,.49-1.15,.73-.38,.23-.75,.47-1.14,.66-.47,.23-.96,.42-1.44,.61-.39,.15-.78,.3-1.17,.44-.22,.08-.47,.11-.56,.38-.04,.13-.15,.24-.23,.35-.24,.36-.49,.72-.73,1.08-.11,.16-.03,.34,.15,.36,.35,.02,.71,.05,1.06,.03,.69-.03,1.37-.07,2.05-.15,.43-.05,.86-.16,1.28-.27,.41-.11,.82-.24,1.22-.38,.49-.17,.99-.33,1.44-.57,.74-.39,1.46-.83,2.16-1.28,.58-.37,1.14-.78,1.67-1.22,.49-.4,.94-.84,1.37-1.3,.75-.79,1.49-1.58,2.19-2.41,.52-.62,.99-1.28,1.44-1.94,.46-.66,.88-1.35,1.29-2.04,.33-.56,.64-1.13,.95-1.7,.42-.79,.85-1.58,1.24-2.39,.35-.73,.64-1.48,.95-2.23,.02-.06,.02-.13,.03-.2Zm-11.66-35.14c.67-.09,1.28-.17,1.88-.25,.54-.07,1.08-.16,1.62-.22,.55-.06,1.1-.11,1.66-.15,.42-.03,.85-.01,1.27-.04,.06,0,.16-.09,.18-.16,.27-.88,.54-1.76,.8-2.64,.09-.31,.23-.62,.07-.97-.31-.64-.59-1.29-.88-1.93-.16-.36-.33-.71-.5-1.08-.75,.59-1.46,1.16-2.18,1.73-.45,.36-.88,.74-1.33,1.09-.47,.36-.88,.76-1.11,1.32-.31,.75-.67,1.49-1.01,2.23-.15,.32-.3,.65-.48,1.04Zm-7.13,50.43c.09,.02,.15,.06,.19,.04,.59-.24,1.19-.45,1.76-.73,.54-.26,1.07-.56,1.56-.89,.77-.51,1.56-1.01,2.25-1.61,.73-.63,1.37-1.37,2.04-2.07,.8-.84,1.43-1.8,2.03-2.79,.31-.52,.61-1.05,.87-1.59,.24-.5,.43-1.02,.64-1.54,.02-.05-.02-.13-.03-.19-.07,.01-.15,0-.19,.04-.7,.52-1.4,1.03-2.08,1.58-.62,.5-1.23,1.03-1.82,1.57-.55,.5-1.09,1.02-1.61,1.54-.52,.52-1.03,1.05-1.52,1.58-.53,.58-1.06,1.16-1.57,1.77-.54,.65-1.06,1.32-1.58,1.99-.31,.41-.6,.84-.93,1.29Zm2.21-43.11s-.03-.04-.04-.05c-.23,.1-.46,.21-.69,.31-1.08,.51-2.17,.99-3.23,1.53-.94,.48-1.86,1.03-2.77,1.57-.65,.39-1.29,.8-1.92,1.22-.63,.42-1.26,.84-1.88,1.29-.69,.49-1.36,1.01-2.03,1.52-.04,.03-.04,.09-.06,.14,.04,0,.09,.04,.12,.03,.29-.07,.58-.12,.86-.22,.65-.22,1.3-.45,1.93-.71,.61-.26,1.21-.55,1.8-.86,.42-.22,.81-.5,1.22-.74,.5-.3,1.02-.57,1.5-.9,.77-.53,1.52-1.09,2.27-1.66,.47-.35,.91-.73,1.37-1.1,.32-.26,.64-.51,.95-.78,.21-.18,.4-.39,.6-.58Z"/><path class="cls-8" d="M72.53,111.43c-.24-.64-.48-1.25-.7-1.86-.15-.43-.27-.88-.38-1.32-.06-.24-.12-.49-.11-.74,0-.12,.13-.25,.22-.36,.51-.55,1.01-1.11,1.54-1.64,.62-.61,1.28-1.18,1.92-1.76,.48-.43,.94-.88,1.44-1.28,.59-.49,1.22-.94,1.83-1.41,.44-.34,.87-.7,1.32-1.03,.52-.38,1.06-.72,1.6-1.08,.41-.27,.81-.55,1.23-.81,.38-.23,.77-.45,1.15-.67,.36-.21,.72-.43,1.08-.63,.65-.36,1.29-.74,1.95-1.08,.62-.32,1.26-.63,1.9-.91,.84-.37,1.69-.74,2.54-1.08,.98-.39,1.97-.77,2.97-1.12,.8-.28,1.61-.55,2.44-.75,.65-.16,1.32-.19,1.99-.29,.69-.1,1.38-.22,2.08-.31,.64-.08,1.28-.14,1.92-.16,.38-.02,.76,.06,1.14,.07,.44,.02,.88,0,1.31,.02,.93,.05,1.82,.28,2.67,.65,.56,.24,1.13,.49,1.66,.8,.89,.52,1.71,1.15,2.43,1.89,.38,.39,.78,.77,1.1,1.19,.5,.65,.95,1.34,1.4,2.02,.26,.39,.5,.78,.7,1.2,.19,.4,.32,.83,.48,1.24-.02,.01-.05,.03-.07,.04-.09-.11-.19-.2-.26-.32-.58-.91-1.38-1.62-2.27-2.21-.75-.49-1.56-.89-2.43-1.15-.56-.17-1.12-.36-1.7-.47-.72-.14-1.46-.22-2.2-.29-.57-.06-1.15-.09-1.73-.1-.8,0-1.6,.03-2.4,.07-.63,.03-1.27,.07-1.9,.15-.69,.09-1.38,.21-2.07,.34-.41,.07-.82,.17-1.23,.26-.43,.1-.87,.19-1.3,.32-.76,.23-1.51,.48-2.25,.74-.49,.17-.97,.35-1.45,.55-.97,.41-1.93,.83-2.88,1.27-.67,.31-1.32,.67-1.98,1.02-.56,.3-1.12,.61-1.66,.94-.4,.24-.79,.5-1.18,.75-.55,.35-1.11,.69-1.65,1.05-.71,.48-1.42,.97-2.11,1.48-.87,.65-1.74,1.3-2.59,1.97-.57,.44-1.12,.91-1.66,1.38-.96,.84-1.9,1.69-2.84,2.55-.26,.23-.5,.48-.76,.72-.05,.04-.11,.07-.22,.14Z"/><path class="cls-8" d="M84.76,141.76c.32-.55,.63-1.12,.97-1.67,.37-.59,.74-1.18,1.15-1.74,.55-.76,1.14-1.49,1.72-2.22,.35-.44,.71-.86,1.08-1.27,.5-.55,1-1.09,1.53-1.61,.47-.47,.95-.94,1.45-1.38,.72-.63,1.46-1.25,2.21-1.85,.47-.38,.96-.74,1.47-1.08,.69-.46,1.38-.91,2.09-1.35,.72-.45,1.43-.91,2.17-1.32,.64-.36,1.32-.67,1.99-.99,.73-.35,1.46-.71,2.2-1.03,.64-.27,1.29-.51,1.95-.74,.98-.34,1.96-.68,2.95-.99,.81-.26,1.62-.54,2.45-.71,1.05-.22,2.12-.4,3.19-.51,.97-.1,1.96-.15,2.94-.11,1.13,.05,2.27,.18,3.34,.62,.53,.22,1.09,.41,1.58,.69,.73,.41,1.36,.95,1.92,1.57,.78,.87,1.28,1.89,1.72,2.95,.23,.55,.22,1.1,0,1.66-.16,.41-.25,.84-.39,1.31-.25-.25-.46-.49-.69-.69-.66-.59-1.33-1.17-2.01-1.74-.33-.28-.7-.52-1.07-.74-.42-.25-.86-.49-1.31-.68-.74-.3-1.49-.59-2.26-.81-.71-.21-1.44-.33-2.17-.47-.93-.19-1.87-.24-2.81-.2-.94,.04-1.89,.11-2.8,.41-.91,.3-1.81,.61-2.71,.92-.65,.22-1.3,.43-1.93,.7-.68,.3-1.35,.65-2.01,.99-.55,.28-1.09,.58-1.63,.89-.48,.27-.96,.55-1.41,.86-.76,.52-1.51,1.05-2.24,1.6-.8,.61-1.58,1.24-2.35,1.88-.49,.42-.94,.88-1.4,1.33-.64,.64-1.29,1.27-1.9,1.93-.68,.74-1.35,1.49-1.98,2.27-.81,1-1.6,2.01-2.36,3.05-.54,.74-1.03,1.52-1.53,2.28-.21,.32-.21,.3-.52,.04-.44-.38-.9-.72-1.36-1.08-.4-.31-.8-.62-1.25-.97Z"/><path class="cls-8" d="M122.57,127.34c.56,.43,1.1,.82,1.6,1.24,.48,.4,.94,.84,1.4,1.27,.19,.18,.37,.38,.56,.56,.25,.25,.12,.53,.06,.79-.12,.59-.27,1.18-.4,1.76-.15,.65-.3,1.29-.43,1.94-.14,.69-.27,1.39-.4,2.08-.11,.57-.23,1.14-.32,1.71-.11,.7-.21,1.41-.3,2.12-.08,.59-.17,1.18-.23,1.77-.06,.58-.1,1.17-.14,1.75-.04,.71-.09,1.42-.1,2.13-.01,.74-.02,1.47,.02,2.21,.04,.79,.11,1.58,.21,2.36,.06,.45,.18,.9,.3,1.35,.2,.69,.43,1.37,.65,2.08-1.3,1.24-2.57,2.59-3.51,4.28-.31-.5-.61-.95-.89-1.42-.3-.48-.6-.96-.87-1.46-.32-.59-.62-1.2-.9-1.81-.22-.49-.41-.99-.58-1.49-.22-.65-.34-1.32-.38-2.01-.07-1.29,.14-2.56,.35-3.82,.16-1,.41-1.98,.62-2.98,.11-.52,.22-1.04,.34-1.56,.15-.61,.31-1.22,.46-1.82,.16-.64,.3-1.27,.46-1.91,.27-1.11,.54-2.22,.82-3.33,.17-.69,.38-1.37,.55-2.07,.22-.91,.42-1.81,.61-2.73,.14-.66,.25-1.32,.36-1.99,.05-.31,.04-.62,.06-1.01Z"/><path class="cls-8" d="M110.9,97.17c.5,.28,.99,.49,1.41,.79,.6,.43,1.2,.89,1.7,1.43,.39,.42,.68,.96,.93,1.48,.24,.49,.44,1.02,.53,1.56,.1,.59,.09,1.21,.05,1.8-.07,.94-.16,1.88-.32,2.8-.17,1.04-.38,2.08-.65,3.09-.32,1.24-.7,2.47-1.1,3.7-.33,1.04-.7,2.07-1.09,3.09-.36,.94-.77,1.86-1.16,2.78-.27,.64-.55,1.27-.8,1.92-.13,.35-.46,.31-.71,.4-.45,.17-.93,.28-1.39,.43-.47,.15-.95,.31-1.41,.48-.64,.23-1.27,.49-1.9,.73-.22,.09-.44,.18-.71,.22,.13-.26,.25-.53,.38-.79,.3-.58,.63-1.15,.91-1.74,.41-.85,.81-1.69,1.16-2.56,.59-1.46,1.17-2.92,1.67-4.4,.43-1.25,.77-2.53,1.11-3.81,.24-.93,.44-1.86,.62-2.8,.2-1.01,.38-2.02,.52-3.04,.11-.82,.15-1.65,.2-2.47,.05-.81,.11-1.63,.1-2.44,0-.77-.08-1.55-.12-2.32,0-.08,.02-.17,.05-.35Z"/><path class="cls-8" d="M100.51,96.43c-.38,.48-.72,.95-1.09,1.39-.48,.58-.97,1.16-1.49,1.7-.67,.69-1.38,1.34-2.07,2-.27,.26-.54,.52-.83,.77-.6,.51-1.2,1.02-1.82,1.5-.53,.41-1.08,.8-1.63,1.18-.47,.32-.94,.64-1.42,.94-.53,.34-1.05,.68-1.6,.99-.5,.29-1.02,.55-1.54,.8-.9,.44-1.79,.89-2.71,1.28-1.02,.43-2.06,.81-3.11,1.19-.69,.25-1.4,.49-2.11,.68-1.11,.29-2.22,.53-3.34,.78-.68,.15-1.36,.26-2.04,.39-.19,.03-.38,.06-.57,.06-.09,0-.17-.07-.26-.11,.04-.07,.06-.16,.12-.22,.5-.49,1-.98,1.51-1.46,.48-.45,.97-.89,1.47-1.32,.58-.51,1.17-1.01,1.77-1.51,.25-.21,.51-.42,.79-.58,.18-.1,.4-.12,.61-.16,1.44-.26,2.8-.76,4.1-1.42,.75-.38,1.5-.79,2.23-1.21,.71-.41,1.42-.84,2.09-1.3,.76-.53,1.49-1.11,2.22-1.68,.67-.53,1.33-1.07,1.99-1.62,.45-.38,.89-.78,1.31-1.19,.33-.33,.77-.37,1.18-.5,.8-.26,1.6-.51,2.41-.7,1.12-.26,2.25-.45,3.37-.66,.13-.03,.27-.01,.45-.02Z"/><path class="cls-8" d="M108.61,126.49c0,.07,0,.14-.03,.2-.31,.74-.61,1.5-.95,2.23-.39,.81-.82,1.6-1.24,2.39-.31,.57-.61,1.14-.95,1.7-.42,.69-.84,1.37-1.29,2.04-.46,.66-.92,1.32-1.44,1.94-.7,.83-1.44,1.62-2.19,2.41-.43,.46-.89,.9-1.37,1.3-.53,.44-1.09,.85-1.67,1.22-.7,.46-1.42,.89-2.16,1.28-.45,.24-.95,.4-1.44,.57-.4,.14-.81,.28-1.22,.38-.42,.11-.85,.22-1.28,.27-.68,.08-1.37,.12-2.05,.15-.35,.02-.71-.01-1.06-.03-.18-.01-.26-.19-.15-.36,.24-.36,.49-.72,.73-1.08,.08-.12,.18-.23,.23-.35,.1-.27,.34-.3,.56-.38,.39-.14,.79-.28,1.17-.44,.48-.19,.97-.38,1.44-.61,.39-.19,.76-.43,1.14-.66,.39-.23,.78-.47,1.15-.73,.32-.22,.61-.48,.91-.72,.75-.61,1.45-1.28,2.1-2.01,.72-.81,1.41-1.64,1.96-2.57,.45-.77,.96-1.52,1.35-2.32,.35-.72,.59-1.5,.86-2.25,.14-.38,.52-.5,.82-.69,.51-.33,1.04-.64,1.58-.93,.53-.29,1.07-.57,1.63-.81,.9-.4,1.81-.76,2.72-1.13,.04-.02,.09,0,.16,0Z"/><path class="cls-8" d="M96.95,91.35c.18-.4,.33-.72,.48-1.04,.34-.74,.69-1.48,1.01-2.23,.23-.56,.64-.96,1.11-1.32,.46-.35,.89-.73,1.33-1.09,.71-.57,1.43-1.14,2.18-1.73,.17,.37,.34,.72,.5,1.08,.29,.64,.57,1.29,.88,1.93,.17,.35,.03,.65-.07,.97-.26,.88-.53,1.76-.8,2.64-.02,.07-.11,.15-.18,.16-.42,.02-.85,.01-1.27,.04-.55,.03-1.11,.09-1.66,.15-.54,.06-1.08,.15-1.62,.22-.61,.08-1.21,.16-1.88,.25Z"/><path class="cls-8" d="M89.81,141.77c.32-.45,.61-.88,.93-1.29,.52-.67,1.04-1.34,1.58-1.99,.51-.6,1.04-1.19,1.57-1.77,.5-.54,1-1.07,1.52-1.58,.53-.53,1.06-1.04,1.61-1.54,.59-.54,1.2-1.06,1.82-1.57,.68-.55,1.38-1.06,2.08-1.58,.05-.04,.13-.03,.19-.04,.01,.06,.05,.14,.03,.19-.2,.52-.4,1.04-.64,1.54-.26,.54-.56,1.07-.87,1.59-.6,.98-1.22,1.95-2.03,2.79-.67,.7-1.31,1.44-2.04,2.07-.7,.6-1.48,1.1-2.25,1.61-.5,.33-1.02,.63-1.56,.89-.57,.28-1.17,.49-1.76,.73-.04,.01-.09-.02-.19-.04Z"/><path class="cls-8" d="M92.03,98.67c-.2,.2-.39,.4-.6,.58-.31,.27-.64,.52-.95,.78-.45,.37-.9,.75-1.37,1.1-.75,.56-1.5,1.13-2.27,1.66-.48,.33-1,.6-1.5,.9-.41,.25-.8,.52-1.22,.74-.59,.31-1.19,.6-1.8,.86-.63,.27-1.28,.49-1.93,.71-.28,.1-.57,.15-.86,.22-.04,0-.08-.02-.12-.03,.02-.05,.02-.11,.06-.14,.67-.51,1.34-1.02,2.03-1.52,.62-.44,1.25-.87,1.88-1.29,.63-.42,1.27-.83,1.92-1.22,.91-.54,1.83-1.08,2.77-1.57,1.06-.54,2.15-1.03,3.23-1.53,.23-.11,.46-.21,.69-.31,.01,.02,.03,.04,.04,.05Z"/><g><path class="cls-6" d="M14.38,236.69c.22-.03,.36-.04,.5-.06,.74-.12,1.48-.23,2.21-.37,.88-.17,1.76-.35,2.64-.55,.62-.14,1.22-.33,1.83-.5,.6-.17,1.21-.33,1.81-.53,.55-.18,1.08-.41,1.62-.62,.8-.31,1.62-.61,2.41-.95,.51-.21,1-.47,1.5-.72,.72-.36,1.45-.7,2.15-1.1,.78-.44,1.53-.92,2.29-1.4,.75-.48,1.5-.96,2.24-1.47,.48-.34,.93-.72,1.39-1.08,.83-.67,1.67-1.33,2.47-2.03,.67-.59,1.29-1.23,1.92-1.86,.43-.44,.85-.89,1.25-1.36,.61-.7,1.19-1.42,1.8-2.13,.18-.21,.24-.55,.61-.57,.19-.01,.38-.05,.58-.06,.93-.02,1.86-.06,2.79-.02,1.24,.05,2.48,.13,3.71,.27,.68,.08,1.34,.32,2.01,.48,.32,.08,.5,.25,.5,.58,0,.08-.02,.16-.01,.24,.04,.92,.14,1.84,.12,2.76-.01,1.1-.09,2.21-.19,3.31-.09,1.03-.22,2.07-.39,3.09-.16,1.03-.39,2.06-.59,3.08-.12,.62-.25,1.23-.41,1.84-.15,.59-.34,1.17-.52,1.75-.4,1.24-.77,2.48-1.21,3.7-.45,1.22-.96,2.42-1.47,3.62-.35,.82-.73,1.62-1.12,2.42-.41,.84-.84,1.66-1.26,2.49-.16,.31-.39,.5-.72,.65-.81,.36-1.61,.74-2.38,1.16-.98,.53-1.95,1.08-2.9,1.66-.71,.43-1.4,.9-2.07,1.39-.82,.59-1.62,1.22-2.42,1.84-.51,.4-1.01,.83-1.5,1.26-.32,.29-.62,.6-.93,.9-.73,.72-1.48,1.42-2.18,2.16-.53,.56-1.03,1.15-1.5,1.76-.82,1.07-1.64,2.14-2.41,3.25-.64,.92-1.19,1.9-1.78,2.86,.03,0,.06,.01,.09,.02,0,.11,0,.22,0,.36,.03,.02,.12,.06,.19,.11,.49,.4,.96,.81,1.45,1.21,.55,.45,1.13,.86,1.67,1.32,.39,.33,.79,.55,1.32,.53,.71-.03,1.43,0,2.14-.08,.73-.08,1.47-.21,2.19-.38,.61-.15,1.2-.37,1.79-.6,.57-.22,1.15-.47,1.69-.76,.64-.34,1.26-.7,1.86-1.1,.59-.39,1.15-.82,1.69-1.27,.51-.43,1-.9,1.47-1.37,.55-.54,1.11-1.08,1.61-1.67,.65-.76,1.26-1.56,1.86-2.36,.51-.68,1-1.38,1.45-2.1,.46-.72,.86-1.47,1.28-2.21,.35-.62,.71-1.23,1.03-1.86,.35-.69,.67-1.4,1-2.11,.28-.62,.53-1.25,.82-1.86,.08-.18,.23-.37,.41-.45,.44-.2,.9-.39,1.37-.5,.86-.2,1.74-.35,2.62-.48,1.15-.18,2.32-.13,3.47,.04,1.01,.14,2.02,.38,2.99,.69,.97,.31,1.9,.76,2.85,1.16,.07,.03,.15,.16,.15,.24,0,.53-.01,1.06-.07,1.59-.07,.62-.18,1.23-.3,1.84-.1,.51-.24,1.01-.37,1.52-.18,.73-.36,1.46-.55,2.18-.21,.84-.44,1.67-.65,2.51-.14,.57-.25,1.14-.39,1.7-.18,.71-.4,1.4-.57,2.11-.3,1.21-.59,2.42-.87,3.64-.19,.81-.35,1.62-.52,2.43-.11,.5-.22,1.01-.3,1.52-.12,.79-.22,1.58-.31,2.37-.1,.89-.14,1.79,.08,2.66,.24,.98,.59,1.94,.95,2.9,.2,.53,.5,1.03,.77,1.54,.34,.62,.69,1.23,1.04,1.84,.14,.23,.31,.45,.45,.68,.25,.39,.48,.79,.72,1.18,.1,.17,.23,.32,.38,.53,.39-1.18,1.06-2.13,1.8-3.02,.74-.88,1.55-1.72,2.31-2.56-.05-.04-.14-.08-.17-.15-.2-.49-.43-.98-.56-1.49-.23-.85-.47-1.71-.57-2.58-.12-1.15-.13-2.32-.14-3.49,0-.98,.05-1.97,.1-2.95,.05-.85,.13-1.71,.23-2.56,.09-.73,.23-1.46,.34-2.19,.11-.75,.19-1.5,.32-2.24,.13-.71,.3-1.42,.45-2.13,.21-1,.4-2,.62-3,.22-.97,.46-1.93,.7-2.89,.14-.57,.33-1.13,.47-1.71,.11-.48,.34-.95,.13-1.46-.37-.87-.69-1.76-1.15-2.59-.48-.88-1.2-1.61-2-2.23-.84-.66-1.78-1.17-2.81-1.5-.57-.18-1.15-.32-1.74-.43-.63-.12-1.28-.26-1.92-.27-1.06-.02-2.12,.03-3.18,.1-.72,.04-1.45,.13-2.17,.26-.9,.16-1.78,.39-2.72,.6,.08-.21,.16-.41,.25-.61,.24-.55,.5-1.09,.74-1.65,.28-.67,.55-1.36,.82-2.03,.26-.64,.55-1.27,.78-1.93,.5-1.48,.99-2.97,1.44-4.47,.26-.85,.46-1.72,.67-2.59,.1-.42,.17-.84,.24-1.26,.14-.87,.32-1.73,.41-2.6,.09-.86,.13-1.74,.12-2.6,0-.82-.06-1.65-.17-2.46-.1-.79-.34-1.54-.76-2.24-.32-.53-.57-1.12-.91-1.64-.41-.62-.87-1.22-1.34-1.79-.45-.55-.93-1.07-1.44-1.57-.36-.36-.76-.68-1.18-.98-.53-.39-1.08-.77-1.65-1.1-.54-.31-1.11-.59-1.71-.8-.7-.24-1.42-.4-2.14-.56-.44-.1-.89-.12-1.35-.18,0-.04,0-.08,0-.12,.34-1.12,.69-2.25,1.03-3.37,.03-.11,.06-.26,.01-.36-.19-.45-.4-.9-.6-1.34-.35-.76-.71-1.52-1.06-2.28-.17-.37-.56-.49-.88-.24-.52,.41-1.04,.83-1.56,1.25-.78,.63-1.56,1.26-2.33,1.9-.3,.25-.67,.43-.8,.83-.09,.27-.2,.52-.31,.78-.42,1.01-.85,2.01-1.28,3.02-.16,.38-.34,.71-.82,.84-1.07,.28-2.14,.6-3.19,.97-1.13,.4-2.23,.86-3.34,1.32-.56,.23-1.11,.48-1.65,.73-.5,.23-1,.48-1.5,.73-.56,.28-1.13,.56-1.69,.86-.42,.23-.83,.48-1.24,.73-.71,.42-1.44,.83-2.14,1.27-.59,.37-1.17,.78-1.74,1.17-.63,.43-1.26,.86-1.88,1.31-.47,.34-.94,.69-1.4,1.06-.62,.49-1.25,.99-1.85,1.51-.54,.46-1.07,.95-1.6,1.43-.48,.44-.95,.87-1.41,1.33-.56,.56-1.11,1.13-1.64,1.73-.22,.25-.57,.45-.5,.87,.03,.14,.08,.27,.12,.41,.18,.72,.29,1.46,.54,2.14,.35,.93,.81,1.82,1.22,2.71Z"/><path class="cls-12" d="M14.38,236.69c-.41-.9-.87-1.79-1.22-2.71-.26-.69-.37-1.43-.54-2.14-.03-.14-.09-.27-.12-.41-.08-.42,.28-.62,.5-.87,.53-.59,1.08-1.16,1.64-1.73,.46-.46,.93-.89,1.41-1.33,.53-.48,1.05-.97,1.6-1.43,.61-.51,1.23-1.01,1.85-1.51,.46-.36,.92-.72,1.4-1.06,.62-.45,1.25-.88,1.88-1.31,.58-.4,1.15-.8,1.74-1.17,.7-.44,1.43-.85,2.14-1.27,.41-.24,.82-.5,1.24-.73,.56-.3,1.12-.58,1.69-.86,.5-.25,.99-.49,1.5-.73,.55-.25,1.09-.51,1.65-.73,1.11-.45,2.21-.92,3.34-1.32,1.05-.37,2.11-.69,3.19-.97,.48-.13,.66-.45,.82-.84,.42-1.01,.85-2.01,1.28-3.02,.11-.26,.22-.52,.31-.78,.14-.4,.51-.58,.8-.83,.77-.64,1.55-1.27,2.33-1.9,.52-.42,1.04-.84,1.56-1.25,.31-.25,.7-.13,.88,.24,.35,.76,.71,1.52,1.06,2.28,.21,.45,.42,.89,.6,1.34,.04,.1,.02,.25-.01,.36-.34,1.13-.68,2.25-1.03,3.37-.01,.04,0,.08,0,.12,.45,.06,.91,.09,1.35,.18,.72,.16,1.45,.32,2.14,.56,.59,.2,1.16,.49,1.71,.8,.57,.33,1.12,.71,1.65,1.1,.41,.3,.81,.62,1.18,.98,.5,.5,.99,1.02,1.44,1.57,.48,.58,.93,1.17,1.34,1.79,.34,.52,.59,1.11,.91,1.64,.42,.7,.66,1.45,.76,2.24,.11,.81,.16,1.64,.17,2.46,0,.87-.03,1.74-.12,2.6-.09,.87-.26,1.74-.41,2.6-.07,.42-.14,.85-.24,1.26-.21,.87-.41,1.74-.67,2.59-.46,1.5-.94,2.98-1.44,4.47-.22,.65-.52,1.28-.78,1.93-.27,.68-.54,1.36-.82,2.03-.23,.55-.49,1.1-.74,1.65-.09,.2-.16,.4-.25,.61,.94-.21,1.83-.44,2.72-.6,.71-.13,1.44-.21,2.17-.26,1.06-.07,2.12-.12,3.18-.1,.64,.01,1.29,.15,1.92,.27,.59,.11,1.17,.25,1.74,.43,1.03,.33,1.97,.84,2.81,1.5,.8,.62,1.52,1.35,2,2.23,.45,.83,.77,1.72,1.15,2.59,.22,.5-.01,.98-.13,1.46-.14,.57-.32,1.14-.47,1.71-.24,.96-.49,1.92-.7,2.89-.22,1-.41,2-.62,3-.15,.71-.33,1.42-.45,2.13-.13,.74-.21,1.5-.32,2.24-.11,.73-.25,1.46-.34,2.19-.1,.85-.18,1.71-.23,2.56-.06,.98-.11,1.97-.1,2.95,0,1.16,.02,2.33,.14,3.49,.09,.87,.34,1.73,.57,2.58,.14,.51,.36,1,.56,1.49,.03,.07,.12,.11,.17,.15-.76,.84-1.57,1.67-2.31,2.56-.75,.89-1.41,1.84-1.8,3.02-.15-.21-.28-.36-.38-.53-.25-.39-.48-.79-.72-1.18-.14-.23-.32-.45-.45-.68-.36-.61-.71-1.22-1.04-1.84-.27-.5-.57-1-.77-1.54-.36-.95-.71-1.91-.95-2.9-.22-.87-.18-1.77-.08-2.66,.09-.79,.19-1.58,.31-2.37,.08-.51,.19-1.01,.3-1.52,.17-.81,.33-1.62,.52-2.43,.28-1.21,.57-2.43,.87-3.64,.18-.71,.39-1.4,.57-2.11,.14-.56,.25-1.14,.39-1.7,.21-.84,.43-1.67,.65-2.51,.19-.73,.37-1.45,.55-2.18,.13-.5,.27-1.01,.37-1.52,.12-.61,.23-1.22,.3-1.84,.06-.53,.06-1.06,.07-1.59,0-.08-.08-.21-.15-.24-.94-.4-1.87-.85-2.85-1.16-.97-.31-1.98-.54-2.99-.69-1.14-.16-2.31-.21-3.47-.04-.88,.13-1.75,.29-2.62,.48-.47,.11-.93,.3-1.37,.5-.17,.08-.32,.27-.41,.45-.29,.61-.54,1.25-.82,1.86-.32,.71-.64,1.42-1,2.11-.32,.63-.68,1.24-1.03,1.86-.42,.74-.83,1.49-1.28,2.21-.45,.72-.94,1.41-1.45,2.1-.6,.8-1.21,1.6-1.86,2.36-.5,.59-1.06,1.13-1.61,1.67-.48,.47-.96,.94-1.47,1.37-.54,.45-1.11,.88-1.69,1.27-.6,.4-1.22,.77-1.86,1.1-.54,.29-1.11,.53-1.69,.76-.58,.23-1.18,.45-1.79,.6-.72,.17-1.45,.3-2.19,.38-.71,.07-1.43,.05-2.14,.08-.53,.02-.93-.2-1.32-.53-.54-.46-1.12-.88-1.67-1.32-.49-.4-.97-.81-1.45-1.21-.07-.06-.16-.09-.19-.11,0-.14,0-.25,0-.36-.03,0-.06-.01-.09-.02,.59-.96,1.14-1.94,1.78-2.86,.76-1.11,1.58-2.18,2.41-3.25,.47-.61,.97-1.2,1.5-1.76,.7-.74,1.45-1.44,2.18-2.16,.31-.3,.61-.62,.93-.9,.49-.43,.99-.86,1.5-1.26,.8-.63,1.6-1.25,2.42-1.84,.67-.49,1.36-.96,2.07-1.39,.95-.58,1.92-1.13,2.9-1.66,.78-.42,1.57-.8,2.38-1.16,.33-.15,.57-.34,.72-.65,.42-.83,.85-1.65,1.26-2.49,.39-.8,.77-1.61,1.12-2.42,.51-1.2,1.02-2.4,1.47-3.62,.45-1.22,.82-2.46,1.21-3.7,.19-.58,.37-1.16,.52-1.75,.16-.61,.29-1.22,.41-1.84,.21-1.03,.43-2.05,.59-3.08,.16-1.03,.29-2.06,.39-3.09,.1-1.1,.18-2.2,.19-3.31,.01-.92-.08-1.84-.12-2.76,0-.08,.01-.16,.01-.24,0-.33-.18-.51-.5-.58-.67-.16-1.33-.4-2.01-.48-1.23-.14-2.47-.22-3.71-.27-.93-.04-1.86,0-2.79,.02-.19,0-.38,.05-.58,.06-.37,.02-.43,.36-.61,.57-.61,.7-1.19,1.42-1.8,2.13-.4,.46-.82,.92-1.25,1.36-.63,.63-1.25,1.27-1.92,1.86-.8,.7-1.64,1.36-2.47,2.03-.46,.37-.9,.75-1.39,1.08-.73,.51-1.48,.99-2.24,1.47-.75,.48-1.51,.96-2.29,1.4-.7,.39-1.43,.74-2.15,1.1-.5,.25-.99,.51-1.5,.72-.8,.33-1.61,.63-2.41,.95-.54,.21-1.07,.43-1.62,.62-.59,.2-1.2,.36-1.81,.53-.61,.17-1.22,.36-1.83,.5-.87,.2-1.75,.38-2.64,.55-.73,.14-1.48,.25-2.21,.37-.14,.02-.28,.04-.5,.06Zm-.21-1.16c.12-.07,.19-.1,.24-.15,.27-.25,.54-.52,.81-.76,1.01-.91,2.01-1.82,3.03-2.72,.58-.51,1.17-1,1.77-1.48,.91-.72,1.84-1.42,2.77-2.11,.74-.54,1.49-1.07,2.25-1.58,.58-.39,1.17-.75,1.76-1.12,.42-.27,.83-.55,1.26-.8,.58-.35,1.18-.68,1.78-1,.7-.37,1.39-.75,2.11-1.09,1.02-.47,2.05-.92,3.08-1.36,.51-.22,1.02-.41,1.55-.59,.8-.27,1.6-.54,2.41-.79,.45-.14,.92-.23,1.39-.34,.44-.1,.88-.2,1.32-.28,.73-.13,1.47-.27,2.21-.36,.67-.08,1.35-.13,2.03-.16,.85-.04,1.71-.07,2.56-.07,.62,0,1.24,.04,1.85,.1,.79,.08,1.57,.16,2.35,.31,.62,.12,1.21,.33,1.81,.51,.93,.28,1.8,.71,2.59,1.23,.95,.63,1.81,1.39,2.43,2.36,.08,.12,.19,.23,.28,.34,.02-.01,.05-.03,.07-.04-.17-.44-.31-.9-.51-1.33-.21-.44-.48-.87-.75-1.28-.48-.73-.96-1.46-1.49-2.16-.35-.46-.77-.86-1.18-1.28-.77-.79-1.65-1.46-2.6-2.02-.56-.33-1.17-.6-1.77-.85-.91-.39-1.86-.64-2.85-.69-.47-.02-.94,0-1.4-.02-.41-.01-.81-.09-1.21-.07-.68,.03-1.37,.09-2.05,.17-.74,.09-1.48,.22-2.22,.33-.71,.1-1.43,.14-2.12,.3-.88,.21-1.75,.5-2.61,.8-1.07,.37-2.12,.78-3.17,1.2-.91,.36-1.81,.75-2.71,1.15-.69,.3-1.36,.63-2.03,.97-.7,.36-1.39,.76-2.08,1.15-.39,.22-.77,.45-1.16,.67-.41,.24-.83,.46-1.23,.71-.44,.28-.87,.58-1.31,.87-.57,.38-1.15,.76-1.71,1.16-.48,.35-.94,.73-1.41,1.1-.65,.5-1.32,.98-1.95,1.5-.53,.43-1.03,.91-1.53,1.37-.69,.62-1.39,1.23-2.05,1.88-.57,.56-1.1,1.16-1.65,1.75-.1,.11-.24,.25-.24,.38,0,.26,.06,.53,.12,.78,.12,.47,.25,.95,.41,1.41,.23,.66,.49,1.31,.75,1.99Zm13.07,32.39c.48,.37,.9,.7,1.33,1.04,.49,.38,.98,.75,1.45,1.15,.33,.28,.33,.3,.55-.04,.54-.82,1.06-1.65,1.64-2.44,.81-1.1,1.65-2.19,2.52-3.25,.67-.83,1.39-1.63,2.11-2.42,.65-.71,1.34-1.38,2.03-2.06,.49-.48,.97-.98,1.49-1.42,.82-.69,1.65-1.36,2.51-2.01,.78-.59,1.58-1.16,2.39-1.71,.48-.33,1-.62,1.51-.92,.57-.33,1.15-.65,1.74-.95,.71-.37,1.41-.74,2.15-1.05,.67-.29,1.37-.51,2.06-.75,.96-.33,1.92-.67,2.89-.98,.97-.32,1.98-.39,2.99-.43,1-.04,2.01,0,3,.21,.77,.16,1.56,.29,2.31,.51,.82,.24,1.62,.55,2.41,.87,.49,.2,.95,.45,1.4,.72,.4,.24,.79,.5,1.14,.79,.73,.6,1.44,1.23,2.14,1.86,.25,.22,.47,.47,.74,.74,.15-.51,.25-.97,.42-1.4,.24-.6,.25-1.18,0-1.77-.47-1.13-1-2.22-1.84-3.15-.6-.67-1.27-1.24-2.05-1.68-.53-.3-1.12-.5-1.69-.73-1.14-.47-2.35-.61-3.56-.66-1.04-.05-2.1,0-3.14,.12-1.14,.12-2.28,.31-3.4,.54-.89,.19-1.75,.48-2.61,.76-1.05,.34-2.1,.69-3.15,1.06-.7,.25-1.4,.5-2.08,.79-.79,.34-1.57,.72-2.35,1.1-.71,.34-1.43,.67-2.12,1.06-.79,.44-1.55,.93-2.32,1.41-.75,.47-1.5,.94-2.23,1.44-.54,.36-1.06,.74-1.57,1.15-.8,.64-1.59,1.3-2.36,1.98-.54,.47-1.05,.97-1.55,1.47-.56,.56-1.1,1.14-1.63,1.72-.4,.44-.79,.89-1.16,1.36-.62,.78-1.25,1.57-1.84,2.37-.44,.6-.84,1.23-1.23,1.85-.36,.58-.69,1.19-1.04,1.78Zm40.38-15.39c-.02,.41,0,.75-.06,1.07-.11,.71-.23,1.42-.38,2.12-.2,.97-.42,1.94-.65,2.91-.18,.74-.4,1.47-.59,2.21-.3,1.19-.59,2.37-.88,3.56-.17,.68-.32,1.36-.49,2.04-.16,.65-.34,1.3-.49,1.95-.13,.55-.25,1.11-.37,1.67-.23,1.06-.49,2.11-.67,3.18-.22,1.35-.45,2.7-.37,4.08,.04,.74,.17,1.45,.4,2.14,.18,.54,.39,1.08,.62,1.6,.3,.65,.62,1.3,.96,1.93,.29,.53,.61,1.04,.92,1.56,.3,.5,.62,.99,.95,1.52,1-1.8,2.35-3.24,3.74-4.57-.24-.76-.48-1.48-.69-2.22-.14-.47-.26-.95-.32-1.44-.11-.84-.18-1.68-.23-2.52-.04-.79-.04-1.57-.02-2.36,.01-.76,.06-1.52,.11-2.28,.04-.62,.08-1.25,.15-1.87,.07-.63,.16-1.26,.24-1.89,.1-.75,.2-1.51,.32-2.26,.1-.61,.23-1.22,.34-1.82,.14-.74,.28-1.48,.43-2.22,.14-.69,.3-1.38,.46-2.07,.14-.63,.3-1.25,.43-1.88,.06-.28,.2-.58-.07-.84-.2-.2-.39-.41-.6-.6-.49-.46-.98-.93-1.5-1.36-.54-.45-1.11-.86-1.71-1.33Zm-12.46-32.23c-.03,.19-.05,.28-.05,.37,.04,.83,.13,1.65,.13,2.48,0,.87-.06,1.74-.11,2.6-.05,.88-.1,1.76-.21,2.64-.15,1.09-.34,2.17-.55,3.24-.2,1-.4,2.01-.67,2.99-.36,1.37-.73,2.73-1.18,4.07-.54,1.58-1.16,3.14-1.79,4.7-.37,.93-.81,1.83-1.24,2.73-.3,.63-.65,1.24-.97,1.86-.14,.28-.27,.56-.41,.84,.29-.05,.52-.15,.75-.24,.67-.26,1.35-.53,2.03-.78,.5-.18,1-.35,1.51-.51,.49-.16,1-.28,1.48-.46,.27-.1,.61-.06,.75-.43,.26-.69,.56-1.37,.85-2.05,.42-.99,.86-1.97,1.24-2.97,.42-1.09,.81-2.19,1.17-3.3,.42-1.31,.82-2.62,1.17-3.95,.28-1.09,.51-2.2,.69-3.3,.16-.99,.27-1.99,.34-2.99,.05-.64,.05-1.3-.05-1.93-.09-.57-.31-1.14-.56-1.67-.27-.56-.57-1.14-.99-1.59-.53-.57-1.18-1.06-1.82-1.52-.45-.32-.97-.55-1.51-.84Zm-11.1-.78c-.2,0-.35,0-.49,.02-1.2,.23-2.41,.44-3.6,.71-.87,.2-1.73,.47-2.57,.75-.43,.14-.9,.19-1.26,.53-.45,.44-.92,.87-1.4,1.27-.7,.59-1.4,1.16-2.12,1.73-.78,.61-1.56,1.23-2.37,1.79-.72,.5-1.48,.95-2.24,1.39-.78,.45-1.57,.88-2.38,1.29-1.39,.71-2.84,1.24-4.38,1.52-.22,.04-.47,.06-.65,.17-.3,.17-.57,.4-.84,.62-.64,.53-1.27,1.07-1.89,1.61-.53,.46-1.05,.93-1.57,1.41-.55,.51-1.08,1.03-1.61,1.55-.06,.06-.09,.16-.13,.24,.09,.04,.18,.11,.28,.11,.2,0,.41-.03,.61-.07,.73-.13,1.46-.26,2.18-.42,1.19-.26,2.39-.52,3.57-.83,.76-.2,1.51-.46,2.25-.72,1.11-.4,2.23-.81,3.32-1.27,.98-.42,1.93-.9,2.89-1.37,.56-.27,1.11-.55,1.64-.86,.58-.33,1.14-.7,1.7-1.06,.51-.33,1.02-.66,1.51-1.01,.59-.41,1.18-.82,1.74-1.26,.66-.52,1.3-1.06,1.94-1.6,.31-.26,.6-.54,.89-.82,.74-.71,1.5-1.4,2.21-2.13,.56-.58,1.08-1.2,1.59-1.81,.4-.47,.76-.97,1.16-1.49Zm8.65,32.1c-.07,0-.13-.01-.17,0-.97,.4-1.95,.79-2.91,1.21-.59,.26-1.17,.56-1.74,.87-.57,.31-1.14,.64-1.68,1-.32,.21-.72,.33-.87,.74-.3,.81-.55,1.64-.92,2.41-.42,.85-.95,1.65-1.44,2.47-.59,.99-1.33,1.88-2.09,2.74-.69,.77-1.44,1.49-2.24,2.14-.32,.26-.63,.53-.97,.77-.4,.28-.81,.52-1.23,.78-.4,.24-.8,.5-1.22,.7-.5,.24-1.02,.44-1.54,.65-.41,.17-.83,.32-1.25,.47-.24,.08-.5,.11-.6,.4-.05,.14-.16,.25-.24,.38-.26,.39-.53,.77-.78,1.16-.11,.18-.03,.37,.16,.38,.38,.02,.76,.05,1.13,.04,.73-.03,1.47-.08,2.19-.16,.46-.05,.92-.17,1.37-.28,.44-.12,.88-.26,1.31-.41,.52-.19,1.05-.35,1.54-.61,.79-.42,1.56-.88,2.31-1.37,.62-.4,1.21-.84,1.78-1.3,.52-.43,1.01-.9,1.47-1.39,.8-.84,1.59-1.69,2.34-2.58,.55-.66,1.05-1.36,1.54-2.07,.49-.71,.94-1.44,1.38-2.18,.36-.59,.69-1.2,1.01-1.81,.45-.85,.91-1.69,1.32-2.55,.37-.78,.68-1.58,1.02-2.38,.03-.06,.02-.13,.03-.21Zm-12.46-37.53c.72-.09,1.36-.18,2.01-.26,.58-.08,1.16-.17,1.73-.24,.59-.07,1.18-.12,1.77-.16,.45-.03,.91-.02,1.36-.04,.07,0,.17-.1,.19-.17,.29-.94,.58-1.88,.86-2.82,.1-.34,.25-.66,.07-1.03-.33-.68-.63-1.37-.94-2.06-.17-.38-.35-.76-.53-1.15-.8,.64-1.56,1.24-2.32,1.85-.48,.39-.94,.79-1.42,1.17-.5,.39-.94,.81-1.19,1.41-.33,.8-.71,1.59-1.07,2.38-.16,.35-.32,.69-.51,1.11Zm-7.62,53.85c.1,.03,.16,.06,.2,.05,.63-.25,1.27-.48,1.87-.78,.58-.28,1.14-.59,1.67-.95,.82-.55,1.66-1.08,2.41-1.72,.78-.68,1.46-1.47,2.18-2.21,.86-.9,1.53-1.93,2.17-2.98,.33-.55,.65-1.12,.93-1.7,.26-.53,.46-1.09,.68-1.64,.02-.05-.02-.13-.03-.2-.07,.01-.16,0-.21,.04-.74,.56-1.5,1.11-2.22,1.69-.67,.54-1.31,1.1-1.94,1.67-.59,.53-1.16,1.09-1.72,1.65-.55,.55-1.1,1.12-1.63,1.69-.57,.62-1.14,1.24-1.68,1.89-.58,.69-1.14,1.41-1.69,2.13-.34,.44-.64,.89-.99,1.38Zm2.36-46.03s-.03-.04-.04-.06c-.25,.11-.49,.22-.74,.33-1.15,.54-2.32,1.06-3.45,1.64-1.01,.52-1.98,1.1-2.96,1.67-.7,.41-1.38,.86-2.05,1.3-.68,.45-1.35,.9-2.01,1.37-.73,.53-1.45,1.08-2.17,1.62-.04,.03-.04,.1-.06,.15,.04,.01,.09,.04,.13,.03,.31-.07,.62-.13,.92-.23,.69-.24,1.39-.48,2.06-.76,.65-.27,1.3-.59,1.92-.91,.45-.24,.86-.53,1.3-.79,.53-.32,1.09-.61,1.6-.96,.82-.57,1.63-1.17,2.43-1.77,.5-.38,.97-.78,1.46-1.17,.34-.28,.69-.54,1.02-.83,.23-.19,.43-.42,.64-.62Z"/><path class="cls-6" d="M14.17,235.53c-.26-.68-.52-1.33-.75-1.99-.16-.46-.29-.94-.41-1.41-.07-.26-.12-.52-.12-.78,0-.13,.14-.27,.24-.38,.54-.59,1.07-1.19,1.65-1.75,.66-.65,1.36-1.26,2.05-1.88,.51-.46,1-.94,1.53-1.37,.63-.52,1.3-1,1.95-1.5,.47-.36,.93-.75,1.41-1.1,.56-.4,1.14-.77,1.71-1.16,.43-.29,.87-.59,1.31-.87,.4-.25,.82-.48,1.23-.71,.39-.22,.77-.45,1.16-.67,.69-.39,1.38-.79,2.08-1.15,.67-.34,1.34-.67,2.03-.97,.9-.4,1.8-.79,2.71-1.15,1.05-.42,2.1-.83,3.17-1.2,.86-.3,1.72-.59,2.61-.8,.69-.17,1.41-.2,2.12-.3,.74-.11,1.48-.24,2.22-.33,.68-.08,1.36-.15,2.05-.17,.4-.02,.81,.06,1.21,.07,.47,.02,.94,0,1.4,.02,.99,.05,1.94,.3,2.85,.69,.6,.26,1.21,.52,1.77,.85,.95,.56,1.83,1.23,2.6,2.02,.41,.41,.83,.82,1.18,1.28,.53,.7,1.01,1.43,1.49,2.16,.27,.41,.53,.84,.75,1.28,.21,.43,.35,.88,.51,1.33-.02,.01-.05,.03-.07,.04-.09-.11-.2-.22-.28-.34-.62-.98-1.47-1.73-2.43-2.36-.8-.53-1.67-.95-2.59-1.23-.6-.18-1.2-.39-1.81-.51-.77-.15-1.56-.23-2.35-.31-.61-.06-1.23-.1-1.85-.1-.85,0-1.71,.03-2.56,.07-.68,.03-1.35,.07-2.03,.16-.74,.09-1.47,.23-2.21,.36-.44,.08-.88,.18-1.32,.28-.46,.11-.93,.2-1.39,.34-.81,.25-1.61,.51-2.41,.79-.52,.18-1.04,.37-1.55,.59-1.03,.44-2.06,.89-3.08,1.36-.72,.33-1.41,.71-2.11,1.09-.6,.32-1.19,.65-1.78,1-.43,.25-.84,.54-1.26,.8-.59,.37-1.19,.73-1.76,1.12-.76,.51-1.51,1.04-2.25,1.58-.93,.69-1.86,1.39-2.77,2.11-.61,.47-1.2,.97-1.77,1.48-1.02,.9-2.03,1.81-3.03,2.72-.28,.25-.54,.51-.81,.76-.05,.05-.12,.07-.24,.15Z"/><path class="cls-6" d="M27.23,267.91c.34-.59,.67-1.2,1.04-1.78,.39-.63,.79-1.26,1.23-1.85,.59-.81,1.21-1.59,1.84-2.37,.37-.46,.76-.92,1.16-1.36,.53-.58,1.07-1.16,1.63-1.72,.5-.51,1.01-1,1.55-1.47,.77-.68,1.56-1.34,2.36-1.98,.5-.41,1.03-.79,1.57-1.15,.73-.5,1.48-.97,2.23-1.44,.77-.48,1.53-.97,2.32-1.41,.69-.39,1.41-.71,2.12-1.06,.78-.38,1.56-.76,2.35-1.1,.68-.29,1.38-.55,2.08-.79,1.04-.37,2.09-.72,3.15-1.06,.86-.28,1.73-.57,2.61-.76,1.12-.24,2.26-.43,3.4-.54,1.04-.11,2.1-.16,3.14-.12,1.21,.05,2.42,.2,3.56,.66,.57,.23,1.16,.43,1.69,.73,.78,.44,1.45,1.01,2.05,1.68,.84,.93,1.36,2.02,1.84,3.15,.25,.59,.23,1.17,0,1.77-.17,.43-.27,.89-.42,1.4-.27-.27-.49-.52-.74-.74-.71-.63-1.42-1.25-2.14-1.86-.36-.29-.74-.56-1.14-.79-.45-.27-.91-.52-1.4-.72-.79-.32-1.59-.63-2.41-.87-.76-.22-1.54-.35-2.31-.51-.99-.2-1.99-.25-3-.21-1.01,.04-2.02,.12-2.99,.43-.97,.32-1.93,.65-2.89,.98-.69,.24-1.39,.46-2.06,.75-.73,.32-1.44,.69-2.15,1.05-.59,.3-1.17,.62-1.74,.95-.51,.29-1.02,.59-1.51,.92-.81,.55-1.61,1.12-2.39,1.71-.85,.65-1.69,1.32-2.51,2.01-.52,.44-1.01,.94-1.49,1.42-.68,.68-1.38,1.36-2.03,2.06-.73,.79-1.44,1.59-2.11,2.42-.86,1.06-1.7,2.15-2.52,3.25-.58,.79-1.1,1.62-1.64,2.44-.22,.34-.23,.32-.55,.04-.46-.4-.96-.77-1.45-1.15-.43-.33-.86-.67-1.33-1.04Z"/><path class="cls-6" d="M67.61,252.52c.6,.46,1.17,.88,1.71,1.33,.52,.43,1,.9,1.5,1.36,.21,.19,.4,.4,.6,.6,.27,.26,.13,.56,.07,.84-.13,.63-.29,1.26-.43,1.88-.16,.69-.32,1.38-.46,2.07-.15,.74-.29,1.48-.43,2.22-.12,.61-.24,1.21-.34,1.82-.12,.75-.22,1.51-.32,2.26-.09,.63-.18,1.26-.24,1.89-.07,.62-.11,1.25-.15,1.87-.05,.76-.09,1.52-.11,2.28-.02,.79-.02,1.57,.02,2.36,.04,.84,.12,1.68,.23,2.52,.06,.48,.19,.97,.32,1.44,.21,.74,.45,1.46,.69,2.22-1.39,1.33-2.75,2.76-3.74,4.57-.33-.53-.65-1.02-.95-1.52-.32-.52-.64-1.03-.92-1.56-.34-.63-.66-1.28-.96-1.93-.24-.52-.44-1.05-.62-1.6-.23-.69-.36-1.41-.4-2.14-.07-1.38,.15-2.73,.37-4.08,.17-1.07,.44-2.12,.67-3.18,.12-.56,.23-1.11,.37-1.67,.16-.65,.33-1.3,.49-1.95,.17-.68,.32-1.36,.49-2.04,.29-1.19,.58-2.38,.88-3.56,.19-.74,.41-1.47,.59-2.21,.23-.97,.45-1.94,.65-2.91,.15-.7,.27-1.41,.38-2.12,.05-.33,.04-.67,.06-1.07Z"/><path class="cls-6" d="M55.15,220.3c.54,.3,1.06,.52,1.51,.84,.64,.46,1.28,.95,1.82,1.52,.42,.45,.72,1.03,.99,1.59,.25,.53,.47,1.09,.56,1.67,.1,.63,.1,1.29,.05,1.93-.07,1-.17,2-.34,2.99-.18,1.11-.41,2.22-.69,3.3-.35,1.33-.75,2.64-1.17,3.95-.36,1.11-.75,2.21-1.17,3.3-.39,1-.83,1.98-1.24,2.97-.29,.68-.59,1.36-.85,2.05-.14,.37-.49,.33-.75,.43-.48,.18-.99,.3-1.48,.46-.51,.16-1.01,.33-1.51,.51-.68,.25-1.35,.52-2.03,.78-.24,.09-.47,.19-.75,.24,.14-.28,.26-.56,.41-.84,.32-.62,.67-1.23,.97-1.86,.43-.9,.87-1.81,1.24-2.73,.63-1.55,1.25-3.11,1.79-4.7,.46-1.34,.82-2.7,1.18-4.07,.26-.99,.47-1.99,.67-2.99,.21-1.08,.41-2.16,.55-3.24,.12-.87,.16-1.76,.21-2.64,.05-.87,.11-1.74,.11-2.6,0-.83-.09-1.65-.13-2.48,0-.09,.02-.18,.05-.37Z"/><path class="cls-6" d="M44.05,219.51c-.4,.52-.77,1.01-1.16,1.49-.52,.62-1.03,1.24-1.59,1.81-.71,.73-1.47,1.43-2.21,2.13-.29,.28-.58,.56-.89,.82-.64,.54-1.28,1.09-1.94,1.6-.57,.44-1.15,.85-1.74,1.26-.5,.35-1,.68-1.51,1.01-.56,.36-1.12,.73-1.7,1.06-.54,.31-1.09,.59-1.64,.86-.96,.47-1.91,.95-2.89,1.37-1.09,.46-2.2,.87-3.32,1.27-.74,.27-1.49,.53-2.25,.72-1.18,.31-2.37,.57-3.57,.83-.72,.16-1.45,.28-2.18,.42-.2,.04-.4,.07-.61,.07-.09,0-.18-.07-.28-.11,.04-.08,.07-.18,.13-.24,.53-.52,1.07-1.05,1.61-1.55,.51-.48,1.04-.95,1.57-1.41,.62-.54,1.25-1.08,1.89-1.61,.27-.22,.54-.45,.84-.62,.19-.11,.43-.13,.65-.17,1.54-.28,2.99-.81,4.38-1.52,.8-.41,1.6-.84,2.38-1.29,.76-.44,1.52-.89,2.24-1.39,.81-.57,1.59-1.18,2.37-1.79,.72-.56,1.42-1.14,2.12-1.73,.48-.41,.95-.83,1.4-1.27,.35-.35,.83-.39,1.26-.53,.85-.28,1.7-.55,2.57-.75,1.19-.27,2.4-.48,3.6-.71,.14-.03,.29-.01,.49-.02Z"/><path class="cls-6" d="M52.7,251.61c-.01,.08,0,.15-.03,.21-.33,.79-.65,1.6-1.02,2.38-.41,.86-.87,1.71-1.32,2.55-.33,.61-.66,1.22-1.01,1.81-.44,.74-.9,1.47-1.38,2.18-.49,.71-.99,1.41-1.54,2.07-.75,.89-1.54,1.73-2.34,2.58-.46,.49-.95,.96-1.47,1.39-.57,.47-1.16,.9-1.78,1.3-.75,.49-1.52,.95-2.31,1.37-.48,.26-1.02,.42-1.54,.61-.43,.15-.86,.29-1.31,.41-.45,.12-.91,.23-1.37,.28-.73,.08-1.46,.13-2.19,.16-.38,.02-.75-.01-1.13-.04-.19-.01-.27-.2-.16-.38,.25-.39,.52-.77,.78-1.16,.08-.12,.19-.24,.24-.38,.1-.29,.36-.32,.6-.4,.42-.15,.84-.3,1.25-.47,.52-.21,1.04-.41,1.54-.65,.42-.2,.82-.46,1.22-.7,.41-.25,.83-.5,1.23-.78,.34-.24,.65-.51,.97-.77,.8-.66,1.55-1.37,2.24-2.14,.77-.86,1.5-1.75,2.09-2.74,.49-.82,1.02-1.62,1.44-2.47,.38-.77,.63-1.6,.92-2.41,.15-.41,.55-.54,.87-.74,.55-.35,1.11-.68,1.68-1,.57-.31,1.15-.61,1.74-.87,.96-.42,1.94-.81,2.91-1.21,.04-.02,.1,0,.17,0Z"/><path class="cls-6" d="M40.24,214.08c.19-.42,.35-.77,.51-1.11,.36-.79,.74-1.58,1.07-2.38,.25-.6,.68-1.02,1.19-1.41,.49-.37,.95-.78,1.42-1.17,.76-.61,1.53-1.22,2.32-1.85,.18,.39,.36,.77,.53,1.15,.31,.69,.61,1.38,.94,2.06,.18,.37,.03,.7-.07,1.03-.28,.94-.56,1.88-.86,2.82-.02,.07-.12,.16-.19,.17-.45,.02-.91,.01-1.36,.04-.59,.04-1.18,.09-1.77,.16-.58,.07-1.16,.16-1.73,.24-.65,.09-1.3,.17-2.01,.26Z"/><path class="cls-6" d="M32.63,267.93c.35-.49,.65-.94,.99-1.38,.55-.72,1.11-1.43,1.69-2.13,.54-.64,1.11-1.27,1.68-1.89,.53-.57,1.07-1.14,1.63-1.69,.56-.56,1.13-1.11,1.72-1.65,.63-.57,1.28-1.14,1.94-1.67,.72-.58,1.48-1.13,2.22-1.69,.05-.04,.14-.03,.21-.04,.01,.07,.06,.15,.03,.2-.22,.55-.42,1.11-.68,1.64-.28,.58-.59,1.15-.93,1.7-.64,1.05-1.31,2.08-2.17,2.98-.72,.75-1.4,1.54-2.18,2.21-.74,.64-1.58,1.18-2.41,1.72-.53,.35-1.09,.67-1.67,.95-.61,.29-1.25,.53-1.87,.78-.04,.02-.1-.02-.2-.05Z"/><path class="cls-6" d="M34.99,221.9c-.21,.21-.41,.43-.64,.62-.33,.29-.68,.55-1.02,.83-.49,.39-.96,.8-1.46,1.17-.8,.6-1.6,1.2-2.43,1.77-.51,.35-1.07,.64-1.6,.96-.43,.26-.85,.56-1.3,.79-.63,.33-1.27,.64-1.92,.91-.68,.28-1.37,.52-2.06,.76-.3,.1-.61,.16-.92,.23-.04,0-.09-.02-.13-.03,.02-.05,.03-.12,.06-.15,.72-.54,1.43-1.09,2.17-1.62,.66-.47,1.33-.93,2.01-1.37,.68-.45,1.36-.89,2.05-1.3,.97-.58,1.95-1.16,2.96-1.67,1.13-.58,2.3-1.1,3.45-1.64,.24-.11,.49-.22,.74-.33,.01,.02,.03,.04,.04,.06Z"/></g></g><path class="cls-14" d="M114.99,322.34c-.51-.38-1.83-.5-3.42-.24-2.92,.49-4.36,1.76-4.79,2.43-.51,.8-2.21,3.47-.91,5.86,1.3,2.37,4.69,2.6,6.49,2.36,3.93-.52,5.9-3.97,6.14-4.42l-4.18-24.43,10.06-5.13-1.71-6.56-11.8,5.05,4.11,25.06Z"/></g></g></svg>